<?xml version="1.0" encoding="utf-8"?>
<!-- Generator: Adobe Illustrator 16.0.4, SVG Export Plug-In . SVG Version: 6.00 Build 0)  -->
<!DOCTYPE svg PUBLIC "-//W3C//DTD SVG 1.1//EN" "http://www.w3.org/Graphics/SVG/1.1/DTD/svg11.dtd">
<svg version="1.1" id="Layer_1" xmlns="http://www.w3.org/2000/svg" xmlns:xlink="http://www.w3.org/1999/xlink" x="0px" y="0px"
	 width="676px" height="325.872px" viewBox="0 0 676 325.872" enable-background="new 0 0 676 325.872" xml:space="preserve">
<g>
	<g id="left_weel">
		<path fill="#616161" stroke="#2B2C2B" stroke-width="2" stroke-miterlimit="10" d="M188.389,316.032
			c-52.016,0-94.333-42.317-94.333-94.333s42.317-94.333,94.333-94.333s94.333,42.318,94.333,94.333
			S240.404,316.032,188.389,316.032z M188.389,141.366c-44.296,0-80.333,36.038-80.333,80.333s36.037,80.333,80.333,80.333
			s80.333-36.037,80.333-80.333S232.685,141.366,188.389,141.366z"/>
		<path fill="#E6D83F" stroke="#2B2C2B" stroke-width="2" stroke-miterlimit="10" d="M188.389,305.532
			c-46.226,0-83.833-37.607-83.833-83.833s37.607-83.833,83.833-83.833s83.833,37.608,83.833,83.833
			S234.614,305.532,188.389,305.532z M188.389,142.866c-43.469,0-78.833,35.365-78.833,78.833s35.364,78.833,78.833,78.833
			s78.833-35.364,78.833-78.833S231.857,142.866,188.389,142.866z"/>
		<g>
			<g>
				<rect x="187.889" y="143.699" fill="#BFBEBA" width="1" height="155.999"/>
			</g>
			<g>
				
					<rect x="110.389" y="221.199" transform="matrix(0.342 0.9397 -0.9397 0.342 332.2834 -31.1548)" fill="#BFBEBA" width="155.999" height="1"/>
			</g>
			<g>
				
					<rect x="110.389" y="221.199" transform="matrix(0.6428 0.766 -0.766 0.6428 237.1243 -65.1207)" fill="#BFBEBA" width="156" height="1"/>
			</g>
			<g>
				
					<rect x="110.389" y="221.2" transform="matrix(0.866 0.5 -0.5 0.866 136.0861 -64.4918)" fill="#BFBEBA" width="155.999" height="0.999"/>
			</g>
			<g>
				
					<rect x="110.389" y="221.199" transform="matrix(0.9848 0.1736 -0.1736 0.9848 41.3581 -29.3443)" fill="#BFBEBA" width="155.999" height="1"/>
			</g>
			<g>
				
					<rect x="187.889" y="143.7" transform="matrix(0.1739 0.9848 -0.9848 0.1739 373.9499 -2.3719)" fill="#BFBEBA" width="1" height="155.999"/>
			</g>
			<g>
				
					<rect x="187.889" y="143.699" transform="matrix(0.5003 0.8658 -0.8658 0.5003 286.083 -52.3384)" fill="#BFBEBA" width="0.999" height="156"/>
			</g>
			<g>
				
					<rect x="187.889" y="143.699" transform="matrix(0.766 0.6429 -0.6429 0.766 186.6119 -69.2263)" fill="#BFBEBA" width="1" height="156"/>
			</g>
			<g>
				
					<rect x="187.889" y="143.699" transform="matrix(0.9397 0.3419 -0.3419 0.9397 87.1518 -51.0497)" fill="#BFBEBA" width="1" height="156"/>
			</g>
			<circle fill="#E6D83F" stroke="#2B2C2B" stroke-width="2" stroke-miterlimit="10" cx="188.388" cy="221.699" r="12.667"/>
		</g>
	</g>
	<path fill="#B4D7C0" stroke="#2B2C2B" stroke-width="2" stroke-miterlimit="10" d="M285.722,234.444
		c-0.114,0-0.229-0.005-0.345-0.015c-2.201-0.188-3.833-2.125-3.645-4.326c0.229-2.687,0.346-5.42,0.346-8.123
		c0-51.658-42.026-93.685-93.684-93.685c-42.071,0-79.225,28.298-90.35,68.816c-0.585,2.13-2.786,3.379-4.917,2.798
		c-2.13-0.585-3.383-2.786-2.798-4.917c12.077-43.98,52.402-74.697,98.065-74.697c56.068,0,101.684,45.615,101.684,101.685
		c0,2.93-0.126,5.892-0.375,8.805C289.525,232.87,287.777,234.444,285.722,234.444z"/>
	<path fill="none" stroke="#989898" stroke-width="3" stroke-linecap="round" stroke-miterlimit="10" d="M211.742,137.064
		c-7.794-2.278-16.04-3.5-24.571-3.5c-35.583,0-66.2,21.255-79.848,51.763"/>
</g>
<g>
	<g id="right_weel">
		<path fill="#47A5DE" stroke="#2B2C2B" stroke-width="2" stroke-miterlimit="10" d="M512.444,315.032
			c-51.464,0-93.333-41.869-93.333-93.333s41.869-93.333,93.333-93.333s93.333,41.87,93.333,93.333S563.908,315.032,512.444,315.032
			z M512.444,140.366c-44.848,0-81.333,36.486-81.333,81.333s36.485,81.333,81.333,81.333s81.333-36.485,81.333-81.333
			S557.292,140.366,512.444,140.366z"/>
		<path fill="#47A5DE" stroke="#2B2C2B" stroke-width="2" stroke-miterlimit="10" d="M512.444,315.032
			c-51.464,0-93.333-41.869-93.333-93.333s41.869-93.333,93.333-93.333s93.333,41.87,93.333,93.333S563.908,315.032,512.444,315.032
			z M512.444,140.366c-44.848,0-81.333,36.486-81.333,81.333s36.485,81.333,81.333,81.333s81.333-36.485,81.333-81.333
			S557.292,140.366,512.444,140.366z"/>
		<path fill="#616161" stroke="#2B2C2B" stroke-width="2" stroke-miterlimit="10" d="M512.444,316.032
			c-52.016,0-94.333-42.317-94.333-94.333s42.317-94.333,94.333-94.333s94.333,42.318,94.333,94.333S564.46,316.032,512.444,316.032
			z M512.444,141.366c-44.296,0-80.333,36.038-80.333,80.333s36.037,80.333,80.333,80.333s80.333-36.037,80.333-80.333
			S556.74,141.366,512.444,141.366z"/>
		<path fill="#E6D83F" stroke="#2B2C2B" stroke-width="2" stroke-miterlimit="10" d="M512.444,305.532
			c-46.226,0-83.833-37.607-83.833-83.833s37.607-83.833,83.833-83.833s83.833,37.608,83.833,83.833S558.67,305.532,512.444,305.532
			z M512.444,142.866c-43.469,0-78.833,35.365-78.833,78.833s35.364,78.833,78.833,78.833s78.833-35.364,78.833-78.833
			S555.913,142.866,512.444,142.866z"/>
		<g>
			<g>
				<rect x="511.944" y="143.699" fill="#BFBEBA" width="1" height="155.999"/>
			</g>
			<g>
				
					<rect x="434.445" y="221.199" transform="matrix(0.342 0.9397 -0.9397 0.342 545.5042 -335.667)" fill="#BFBEBA" width="155.999" height="1"/>
			</g>
			<g>
				
					<rect x="434.445" y="221.199" transform="matrix(0.6428 0.766 -0.766 0.6428 352.8794 -313.3604)" fill="#BFBEBA" width="156" height="1"/>
			</g>
			<g>
				
					<rect x="434.445" y="221.2" transform="matrix(0.866 0.5 -0.5 0.866 179.4998 -226.5169)" fill="#BFBEBA" width="155.999" height="0.999"/>
			</g>
			<g>
				
					<rect x="434.445" y="221.199" transform="matrix(0.9848 0.1736 -0.1736 0.9848 46.2809 -85.6139)" fill="#BFBEBA" width="155.999" height="1"/>
			</g>
			<g>
				
					<rect x="511.945" y="143.7" transform="matrix(0.1739 0.9848 -0.9848 0.1739 641.6533 -321.4902)" fill="#BFBEBA" width="1" height="155.999"/>
			</g>
			<g>
				
					<rect x="511.945" y="143.699" transform="matrix(0.5003 0.8658 -0.8658 0.5003 447.9998 -332.9147)" fill="#BFBEBA" width="0.999" height="156"/>
			</g>
			<g>
				
					<rect x="511.945" y="143.699" transform="matrix(0.766 0.6429 -0.6429 0.766 262.4492 -277.5524)" fill="#BFBEBA" width="1" height="156"/>
			</g>
			<g>
				
					<rect x="511.944" y="143.699" transform="matrix(0.9397 0.3419 -0.3419 0.9397 106.6806 -161.8443)" fill="#BFBEBA" width="1" height="156"/>
			</g>
			<circle fill="#989898" stroke="#2B2C2B" stroke-width="2" stroke-miterlimit="10" cx="512.444" cy="221.699" r="8"/>
		</g>
	</g>
	<path fill="#B4D7C0" stroke="#2B2C2B" stroke-width="2" stroke-miterlimit="10" d="M415.677,245.146
		c-1.879,0-3.555-1.331-3.923-3.244c-8.71-45.217,14.08-91.041,55.423-111.438c19.928-9.831,41.979-12.925,63.777-8.946
		c2.173,0.397,3.613,2.48,3.216,4.653c-0.396,2.174-2.485,3.614-4.653,3.217c-20.09-3.668-40.426-0.815-58.801,8.25
		c-38.121,18.808-59.138,61.061-51.106,102.75c0.418,2.17-1.002,4.267-3.171,4.685C416.183,245.121,415.928,245.146,415.677,245.146
		z"/>
	<path fill="none" stroke="#989898" stroke-width="3" stroke-linecap="round" stroke-miterlimit="10" d="M536.506,136.064
		c-7.794-2.278-16.039-3.5-24.57-3.5c-35.582,0-66.199,21.255-79.848,51.763"/>
</g>
<g id="gears">
	<g>
		<path fill="#E6D83F" stroke="#2B2C2B" stroke-width="2" stroke-miterlimit="10" d="M326.303,209.463
			c-14.239,0-25.783,11.54-25.783,25.781s11.544,25.782,25.783,25.782s25.783-11.541,25.783-25.782S340.542,209.463,326.303,209.463
			z M304.587,230.838c0-3.823,3.099-6.92,6.921-6.92c3.821,0,6.92,3.097,6.92,6.92c0,3.822-3.099,6.92-6.92,6.92
			C307.686,237.758,304.587,234.66,304.587,230.838z M317.095,255.268c-3.822,0-6.92-3.097-6.92-6.921
			c0-3.821,3.098-6.919,6.92-6.919c3.821,0,6.921,3.098,6.921,6.919C324.016,252.171,320.916,255.268,317.095,255.268z
			 M319.384,220.178c0-3.824,3.097-6.921,6.92-6.921c1.672,0,3.205,0.594,4.4,1.58c1.539,1.27,2.52,3.188,2.52,5.341
			c0,2.149-0.98,4.07-2.52,5.339c-1.195,0.987-2.729,1.581-4.4,1.581C322.48,227.098,319.384,224,319.384,220.178z M335.509,255.269
			c-3.821,0-6.919-3.097-6.919-6.921c0-3.822,3.098-6.92,6.919-6.92c3.822,0,6.921,3.098,6.921,6.92
			C342.43,252.172,339.331,255.269,335.509,255.269z M341.098,237.758c-3.822,0-6.92-3.098-6.92-6.92c0-3.823,3.098-6.92,6.92-6.92
			s6.921,3.097,6.921,6.92C348.019,234.66,344.92,237.758,341.098,237.758z"/>
		<g>
			<polygon fill="#070707" points="327.813,209.464 324.792,209.464 325.655,206.981 326.95,206.981 			"/>
			<polygon fill="#070707" points="323.763,209.545 320.777,210.018 321.241,207.43 322.521,207.228 			"/>
			<polygon fill="#070707" points="319.773,210.258 316.899,211.191 316.953,208.562 318.186,208.163 			"/>
			<polygon fill="#070707" points="315.946,211.587 313.253,212.959 312.896,210.354 314.049,209.766 			"/>
			<polygon fill="#070707" points="312.372,213.499 309.928,215.274 309.167,212.758 310.214,211.996 			"/>
			<polygon fill="#070707" points="309.143,215.945 307.006,218.081 305.86,215.715 306.775,214.8 			"/>
			<polygon fill="#070707" points="306.335,218.867 304.558,221.311 303.057,219.153 303.818,218.104 			"/>
			<polygon fill="#070707" points="304.02,222.192 302.646,224.884 300.826,222.988 301.414,221.833 			"/>
			<polygon fill="#070707" points="302.252,225.838 301.316,228.712 299.223,227.123 299.622,225.891 			"/>
			<polygon fill="#070707" points="301.077,229.716 300.603,232.699 298.286,231.459 298.488,230.179 			"/>
			<polygon fill="#070707" points="300.522,233.73 300.521,236.751 298.039,235.889 298.039,234.592 			"/>
			<polygon fill="#070707" points="300.604,237.782 301.075,240.766 298.488,240.302 298.285,239.021 			"/>
			<polygon fill="#070707" points="301.316,241.771 302.25,244.644 299.621,244.592 299.221,243.357 			"/>
			<polygon fill="#070707" points="302.646,245.6 304.017,248.29 301.412,248.648 300.824,247.494 			"/>
			<polygon fill="#070707" points="304.558,249.173 306.333,251.616 303.815,252.377 303.054,251.329 			"/>
			<polygon fill="#070707" points="307.005,252.404 309.139,254.538 306.773,255.686 305.856,254.768 			"/>
			<polygon fill="#070707" points="309.927,255.211 312.368,256.985 310.212,258.488 309.162,257.726 			"/>
			<polygon fill="#070707" points="313.252,257.526 315.94,258.896 314.046,260.72 312.891,260.132 			"/>
			<polygon fill="#070707" points="316.898,259.294 319.769,260.226 318.184,262.324 316.949,261.922 			"/>
			<polygon fill="#070707" points="320.777,260.471 323.758,260.94 322.52,263.261 321.237,263.057 			"/>
			<polygon fill="#070707" points="324.792,261.024 327.81,261.022 326.949,263.508 325.65,263.506 			"/>
			<polygon fill="#070707" points="328.843,260.943 331.823,260.471 331.362,263.059 330.08,263.26 			"/>
			<polygon fill="#070707" points="332.832,260.23 335.702,259.296 335.651,261.924 334.417,262.324 			"/>
			<polygon fill="#070707" points="336.661,258.901 339.35,257.53 339.71,260.133 338.554,260.722 			"/>
			<polygon fill="#070707" points="340.234,256.988 342.675,255.215 343.438,257.729 342.389,258.492 			"/>
			<polygon fill="#070707" points="343.465,254.541 345.597,252.408 346.745,254.771 345.827,255.688 			"/>
			<polygon fill="#070707" points="346.273,251.617 348.045,249.178 349.549,251.333 348.784,252.382 			"/>
			<polygon fill="#070707" points="348.589,248.291 349.957,245.604 351.78,247.499 351.189,248.654 			"/>
			<polygon fill="#070707" points="350.355,244.645 351.287,241.775 353.383,243.363 352.981,244.597 			"/>
			<polygon fill="#070707" points="351.53,240.766 352.002,237.787 354.32,239.026 354.116,240.308 			"/>
			<polygon fill="#070707" points="352.084,236.751 352.084,233.736 354.567,234.598 354.565,235.894 			"/>
			<polygon fill="#070707" points="352.002,232.699 351.53,229.721 354.119,230.184 354.319,231.463 			"/>
			<polygon fill="#070707" points="351.288,228.711 350.356,225.841 352.984,225.894 353.383,227.127 			"/>
			<polygon fill="#070707" points="349.959,224.882 348.59,222.195 351.192,221.834 351.781,222.99 			"/>
			<polygon fill="#070707" points="348.047,221.309 346.274,218.869 348.79,218.105 349.551,219.156 			"/>
			<polygon fill="#070707" points="345.6,218.079 343.467,215.946 345.831,214.8 346.747,215.717 			"/>
			<polygon fill="#070707" points="342.677,215.27 340.236,213.499 342.393,211.995 343.44,212.758 			"/>
			<polygon fill="#070707" points="339.351,212.954 336.663,211.585 338.559,209.764 339.712,210.354 			"/>
			<polygon fill="#070707" points="335.703,211.186 332.835,210.255 334.422,208.159 335.653,208.561 			"/>
			<polygon fill="#070707" points="331.823,210.013 328.847,209.542 330.086,207.224 331.365,207.427 			"/>
		</g>
	</g>
	<g>
		<path fill="#616161" stroke="#2B2C2B" stroke-miterlimit="10" d="M326.652,265.911c-0.001,0-0.001,0-0.002,0
			c-1.015,0-2.043-0.051-3.058-0.151c-0.292-0.029-0.583-0.063-0.872-0.102l-0.007,0.079l-1.12-0.183l-139.031-31.09l0.011-0.072
			c-6.022-1.959-10.009-7.959-9.379-14.33c0.668-6.751,6.096-11.906,12.782-12.289l0.046-0.003c0.211-0.012,0.423-0.018,0.637-0.02
			l0.235-0.008l139.57-3.166c0.003,0,0.006,0,0.01,0c1.114,0,2.148,0.051,3.158,0.151c8.151,0.807,15.5,4.739,20.693,11.073
			s7.609,14.311,6.803,22.462C355.57,254.025,342.469,265.911,326.652,265.911z M321.452,263.474l0.524,0.052
			c0.598,0.097,1.201,0.184,1.812,0.244c0.949,0.094,1.912,0.142,2.861,0.142c14.784,0.001,27.032-11.109,28.488-25.845
			c0.754-7.619-1.504-15.076-6.358-20.997c-4.855-5.921-11.725-9.597-19.345-10.351c-0.947-0.094-1.919-0.142-2.888-0.142
			l-138.691,3.145l-0.002,0.031l-1.076-0.003c-6.016,0-11,4.519-11.593,10.51c-0.564,5.698,3.201,11.05,8.757,12.447l0.551,0.139
			L321.452,263.474z"/>
		<g>
			<path fill="#616161" stroke="#2B2C2B" stroke-miterlimit="10" d="M185.915,210.279c-0.782,0-1.441-0.606-1.495-1.398
				c-0.056-0.826,0.568-1.542,1.395-1.598c0.316-0.022,0.636-0.033,0.957-0.033h0c0.037-0.003,0.074-0.006,0.111-0.007l1-0.022
				c0.856,0.009,1.515,0.639,1.533,1.466c0.019,0.829-0.638,1.516-1.466,1.534l-0.848,0.019c-0.067,0.009-0.136,0.011-0.204,0.012
				c-0.298-0.005-0.59,0.006-0.881,0.024C185.983,210.278,185.949,210.279,185.915,210.279z"/>
			<path fill="#616161" stroke="#2B2C2B" stroke-miterlimit="10" d="M178.23,232.229c-0.362,0-0.726-0.131-1.014-0.395
				c-0.577-0.529-1.113-1.111-1.595-1.729c-0.51-0.652-0.394-1.595,0.259-2.105c0.654-0.51,1.595-0.393,2.105,0.26
				c0.381,0.487,0.805,0.946,1.259,1.363c0.61,0.561,0.651,1.51,0.091,2.12C179.04,232.065,178.636,232.229,178.23,232.229z
				 M174.504,225.985c-0.671,0-1.283-0.453-1.454-1.134c-0.191-0.76-0.319-1.542-0.381-2.325c-0.065-0.825,0.552-1.548,1.378-1.612
				c0.837-0.058,1.548,0.553,1.613,1.378c0.048,0.615,0.149,1.23,0.299,1.827c0.202,0.804-0.285,1.619-1.089,1.821
				C174.749,225.971,174.625,225.985,174.504,225.985z M174.837,218.725c-0.164,0-0.33-0.026-0.494-0.084
				c-0.782-0.272-1.195-1.127-0.923-1.909c0.258-0.74,0.581-1.465,0.96-2.152c0.4-0.725,1.312-0.989,2.038-0.589
				c0.726,0.399,0.989,1.312,0.589,2.038c-0.298,0.54-0.551,1.108-0.754,1.689C176.038,218.337,175.458,218.725,174.837,218.725z
				 M179.11,212.846c-0.452,0-0.899-0.203-1.194-0.591c-0.502-0.659-0.375-1.601,0.284-2.103c0.625-0.476,1.292-0.902,1.981-1.267
				c0.734-0.387,1.64-0.107,2.027,0.625s0.107,1.64-0.625,2.027c-0.544,0.288-1.071,0.624-1.565,1.001
				C179.747,212.746,179.427,212.846,179.11,212.846z"/>
			<path fill="#616161" stroke="#2B2C2B" stroke-miterlimit="10" d="M184.673,235.409c-0.109,0-0.219-0.012-0.33-0.036l-0.37-0.083
				c-0.024-0.005-0.046-0.01-0.062-0.014l-0.542-0.12c-0.09-0.02-0.177-0.048-0.259-0.082c-0.289-0.078-0.573-0.164-0.853-0.259
				c-0.785-0.267-1.205-1.118-0.939-1.902s1.117-1.203,1.902-0.939c0.276,0.094,0.558,0.177,0.844,0.249
				c0.058,0.014,0.115,0.032,0.169,0.053l0.767,0.17c0.808,0.182,1.316,0.984,1.135,1.792
				C185.979,234.936,185.359,235.409,184.673,235.409z"/>
			<path fill="#616161" stroke="#2B2C2B" stroke-miterlimit="10" d="M315.903,264.758c-0.108,0-0.219-0.012-0.329-0.036
				l-1.973-0.441c-0.808-0.181-1.317-0.982-1.136-1.791s0.982-1.316,1.792-1.137l1.973,0.441c0.808,0.181,1.317,0.982,1.136,1.791
				C317.209,264.283,316.589,264.758,315.903,264.758z M308.996,263.213c-0.108,0-0.219-0.012-0.329-0.036l-1.973-0.441
				c-0.808-0.181-1.317-0.982-1.136-1.791s0.982-1.314,1.792-1.137l1.973,0.441c0.808,0.181,1.317,0.982,1.136,1.791
				C310.302,262.738,309.683,263.213,308.996,263.213z M302.089,261.669c-0.108,0-0.219-0.012-0.329-0.036l-1.973-0.441
				c-0.808-0.181-1.317-0.982-1.136-1.791s0.981-1.317,1.792-1.137l1.973,0.441c0.808,0.181,1.317,0.982,1.136,1.791
				C303.396,261.194,302.776,261.669,302.089,261.669z M295.183,260.124c-0.108,0-0.219-0.012-0.329-0.036l-1.974-0.441
				c-0.809-0.181-1.317-0.982-1.137-1.791s0.985-1.315,1.791-1.137l1.974,0.441c0.808,0.181,1.317,0.982,1.136,1.791
				C296.489,259.649,295.869,260.124,295.183,260.124z M288.276,258.579c-0.108,0-0.219-0.012-0.329-0.036l-1.974-0.441
				c-0.808-0.181-1.317-0.982-1.136-1.791c0.181-0.809,0.984-1.314,1.791-1.137l1.974,0.441c0.809,0.181,1.317,0.982,1.137,1.791
				C289.582,258.104,288.962,258.579,288.276,258.579z M281.369,257.034c-0.108,0-0.218-0.012-0.328-0.036l-1.973-0.44
				c-0.809-0.181-1.318-0.982-1.137-1.791s0.984-1.313,1.791-1.137l1.973,0.44c0.809,0.181,1.318,0.982,1.137,1.791
				C282.675,256.56,282.056,257.034,281.369,257.034z M274.462,255.49c-0.108,0-0.219-0.012-0.329-0.036l-1.973-0.441
				c-0.808-0.181-1.317-0.982-1.136-1.791c0.181-0.809,0.983-1.315,1.792-1.137l1.973,0.441c0.808,0.181,1.317,0.982,1.136,1.791
				C275.768,255.016,275.148,255.49,274.462,255.49z M267.555,253.945c-0.108,0-0.219-0.012-0.329-0.036l-1.974-0.441
				c-0.809-0.181-1.317-0.982-1.137-1.791c0.181-0.809,0.983-1.317,1.792-1.137l1.973,0.441c0.809,0.181,1.317,0.982,1.137,1.791
				C268.861,253.471,268.242,253.945,267.555,253.945z M260.648,252.4c-0.108,0-0.219-0.012-0.329-0.036l-1.974-0.441
				c-0.809-0.181-1.317-0.982-1.137-1.791s0.986-1.315,1.791-1.137l1.974,0.441c0.808,0.181,1.317,0.982,1.136,1.791
				C261.955,251.926,261.335,252.4,260.648,252.4z M253.742,250.856c-0.108,0-0.219-0.012-0.329-0.036l-1.973-0.441
				c-0.809-0.181-1.317-0.982-1.137-1.791s0.986-1.315,1.791-1.137l1.974,0.441c0.809,0.181,1.317,0.982,1.137,1.791
				C255.048,250.382,254.428,250.856,253.742,250.856z M246.834,249.312c-0.108,0-0.219-0.012-0.329-0.036l-1.973-0.441
				c-0.808-0.181-1.317-0.982-1.136-1.791s0.982-1.317,1.792-1.137l1.973,0.441c0.808,0.181,1.317,0.982,1.136,1.791
				C248.141,248.837,247.521,249.312,246.834,249.312z M239.928,247.767c-0.108,0-0.219-0.012-0.329-0.036l-1.973-0.441
				c-0.808-0.181-1.317-0.982-1.136-1.791s0.981-1.315,1.792-1.137l1.973,0.441c0.808,0.181,1.317,0.982,1.136,1.791
				C241.234,247.292,240.614,247.767,239.928,247.767z M233.021,246.222c-0.108,0-0.219-0.012-0.329-0.036l-1.974-0.441
				c-0.809-0.181-1.317-0.982-1.137-1.791s0.981-1.317,1.792-1.137l1.974,0.441c0.808,0.181,1.317,0.982,1.136,1.791
				C234.327,245.747,233.708,246.222,233.021,246.222z M226.114,244.678c-0.108,0-0.219-0.012-0.329-0.036l-1.974-0.441
				c-0.808-0.181-1.317-0.982-1.136-1.791c0.181-0.809,0.984-1.316,1.791-1.137l1.974,0.441c0.809,0.181,1.317,0.982,1.137,1.791
				C227.42,244.203,226.801,244.678,226.114,244.678z M219.207,243.133c-0.108,0-0.219-0.012-0.329-0.036l-1.973-0.441
				c-0.808-0.181-1.317-0.982-1.136-1.791c0.181-0.809,0.984-1.315,1.792-1.137l1.973,0.441c0.808,0.181,1.317,0.982,1.136,1.791
				C220.513,242.658,219.894,243.133,219.207,243.133z M212.3,241.588c-0.108,0-0.219-0.012-0.329-0.036l-1.973-0.441
				c-0.808-0.181-1.317-0.982-1.136-1.791c0.181-0.809,0.983-1.317,1.792-1.137l1.973,0.441c0.808,0.181,1.317,0.982,1.136,1.791
				C213.606,241.113,212.987,241.588,212.3,241.588z M205.394,240.043c-0.108,0-0.219-0.012-0.329-0.036l-1.973-0.441
				c-0.809-0.181-1.317-0.982-1.137-1.791c0.181-0.809,0.987-1.315,1.791-1.137l1.974,0.441c0.809,0.181,1.317,0.982,1.137,1.791
				C206.7,239.568,206.08,240.043,205.394,240.043z M198.487,238.499c-0.108,0-0.219-0.012-0.329-0.036l-1.974-0.441
				c-0.809-0.181-1.317-0.982-1.137-1.791c0.181-0.809,0.983-1.314,1.792-1.137l1.974,0.441c0.808,0.181,1.317,0.982,1.136,1.791
				C199.793,238.024,199.173,238.499,198.487,238.499z M191.58,236.954c-0.108,0-0.219-0.012-0.329-0.036l-1.973-0.441
				c-0.808-0.181-1.317-0.982-1.136-1.791c0.181-0.809,0.982-1.316,1.792-1.137l1.973,0.441c0.808,0.181,1.317,0.982,1.136,1.791
				C192.886,236.479,192.266,236.954,191.58,236.954z"/>
			<path fill="#616161" stroke="#2B2C2B" stroke-miterlimit="10" d="M322.805,266.16c-0.067,0-0.135-0.004-0.204-0.014
				c-0.206-0.028-0.411-0.058-0.615-0.089c-0.166,0.024-0.335,0.023-0.501-0.015l-0.976-0.218c-0.809-0.181-1.318-0.982-1.137-1.79
				c0.18-0.81,0.987-1.313,1.791-1.138l0.558,0.124c0.112-0.009,0.225-0.008,0.336,0.011c0.315,0.051,0.631,0.099,0.949,0.142
				c0.821,0.111,1.396,0.867,1.284,1.688C324.187,265.614,323.543,266.16,322.805,266.16z"/>
			<path fill="#616161" stroke="#2B2C2B" stroke-miterlimit="10" d="M327.788,266.39c-0.802,0-1.467-0.635-1.498-1.443
				c-0.031-0.827,0.614-1.524,1.442-1.556c0.632-0.023,1.268-0.069,1.889-0.136c0.831-0.083,1.563,0.509,1.651,1.332
				s-0.509,1.562-1.333,1.65c-0.689,0.074-1.394,0.125-2.094,0.151C327.826,266.39,327.807,266.39,327.788,266.39z M334.677,265.301
				c-0.654,0-1.256-0.432-1.442-1.092c-0.225-0.798,0.238-1.627,1.036-1.852c0.604-0.171,1.212-0.365,1.807-0.577
				c0.779-0.279,1.638,0.127,1.917,0.907s-0.128,1.639-0.908,1.917c-0.659,0.235-1.332,0.451-2.001,0.64
				C334.949,265.283,334.812,265.301,334.677,265.301z M341.121,262.623c-0.525,0-1.034-0.275-1.31-0.766
				c-0.405-0.723-0.148-1.637,0.573-2.042c0.547-0.307,1.092-0.638,1.623-0.984c0.691-0.453,1.623-0.259,2.076,0.436
				c0.453,0.693,0.258,1.623-0.436,2.076c-0.587,0.383-1.19,0.749-1.795,1.088C341.621,262.562,341.369,262.623,341.121,262.623z
				 M346.76,258.519c-0.403,0-0.805-0.161-1.101-0.48c-0.562-0.608-0.526-1.558,0.081-2.12c0.464-0.43,0.914-0.874,1.35-1.334
				c0.569-0.604,1.519-0.629,2.12-0.06c0.603,0.569,0.629,1.519,0.06,2.12c-0.474,0.501-0.976,0.997-1.49,1.475
				C347.49,258.387,347.125,258.519,346.76,258.519z M351.29,253.218c-0.287,0-0.577-0.082-0.833-0.253
				c-0.688-0.461-0.873-1.393-0.413-2.081c0.353-0.526,0.688-1.067,0.999-1.608c0.413-0.718,1.331-0.964,2.048-0.554
				c0.719,0.413,0.966,1.329,0.554,2.048c-0.345,0.601-0.717,1.2-1.106,1.782C352.248,252.984,351.773,253.218,351.29,253.218z
				 M354.454,247.005c-0.172,0-0.347-0.029-0.518-0.092c-0.777-0.286-1.176-1.147-0.891-1.926c0.219-0.596,0.419-1.201,0.594-1.799
				c0.232-0.795,1.066-1.249,1.86-1.019c0.795,0.232,1.251,1.065,1.019,1.86c-0.193,0.662-0.414,1.332-0.656,1.992
				C355.639,246.629,355.065,247.005,354.454,247.005z M356.074,240.222c-0.058,0-0.116-0.003-0.176-0.01
				c-0.822-0.096-1.412-0.841-1.316-1.664l0.059-0.531c0.045-0.455,0.079-0.907,0.102-1.358c0.04-0.827,0.743-1.455,1.571-1.425
				c0.828,0.041,1.466,0.744,1.425,1.571c-0.024,0.502-0.062,1.005-0.113,1.51l-0.062,0.581
				C357.474,239.659,356.825,240.222,356.074,240.222z M356.075,233.247c-0.75,0-1.398-0.562-1.487-1.325
				c-0.074-0.63-0.17-1.256-0.285-1.874c-0.151-0.814,0.386-1.598,1.2-1.749c0.818-0.156,1.598,0.386,1.749,1.2
				c0.128,0.69,0.234,1.388,0.314,2.073c0.098,0.822-0.491,1.567-1.314,1.664C356.193,233.244,356.134,233.247,356.075,233.247z
				 M354.446,226.465c-0.609,0-1.183-0.374-1.407-0.979c-0.222-0.6-0.463-1.189-0.717-1.752c-0.341-0.755-0.005-1.644,0.75-1.984
				c0.755-0.342,1.644-0.005,1.984,0.75c0.282,0.626,0.551,1.28,0.797,1.945c0.287,0.777-0.11,1.64-0.887,1.928
				C354.795,226.436,354.619,226.465,354.446,226.465z M351.273,220.254c-0.483,0-0.958-0.233-1.247-0.665
				c-0.354-0.528-0.727-1.046-1.107-1.54c-0.506-0.655-0.385-1.598,0.271-2.104c0.655-0.506,1.597-0.386,2.104,0.271
				c0.421,0.546,0.833,1.118,1.225,1.702c0.461,0.688,0.277,1.62-0.411,2.081C351.852,220.172,351.561,220.254,351.273,220.254z
				 M346.74,214.951c-0.364,0-0.729-0.132-1.018-0.398c-0.465-0.429-0.943-0.843-1.436-1.241c-0.645-0.521-0.744-1.466-0.223-2.109
				s1.466-0.743,2.109-0.223c0.543,0.439,1.076,0.9,1.584,1.37c0.608,0.562,0.646,1.511,0.084,2.119
				C347.546,214.789,347.144,214.951,346.74,214.951z M341.1,210.851c-0.248,0-0.5-0.062-0.731-0.191
				c-0.554-0.311-1.118-0.602-1.68-0.867c-0.749-0.354-1.069-1.249-0.715-1.998c0.354-0.748,1.25-1.067,1.998-0.715
				c0.623,0.296,1.251,0.619,1.864,0.963c0.723,0.405,0.979,1.319,0.575,2.042C342.135,210.574,341.625,210.851,341.1,210.851z
				 M192.966,210.106c-0.812,0-1.48-0.649-1.499-1.466c-0.019-0.828,0.637-1.515,1.465-1.534l1.997-0.046
				c0.868,0.014,1.515,0.638,1.534,1.466s-0.637,1.515-1.465,1.534l-1.997,0.046C192.99,210.106,192.978,210.106,192.966,210.106z
				 M199.956,209.947c-0.813,0-1.481-0.649-1.499-1.466c-0.019-0.829,0.638-1.516,1.466-1.534l1.997-0.045
				c0.831,0.004,1.515,0.639,1.533,1.466c0.019,0.829-0.638,1.516-1.466,1.534l-1.997,0.045
				C199.979,209.947,199.967,209.947,199.956,209.947z M206.946,209.789c-0.813,0-1.481-0.649-1.499-1.466
				c-0.019-0.829,0.638-1.516,1.466-1.534l1.997-0.045c0.829,0.02,1.515,0.639,1.533,1.466c0.019,0.829-0.638,1.516-1.466,1.534
				l-1.997,0.045C206.969,209.789,206.957,209.789,206.946,209.789z M213.936,209.631c-0.812,0-1.48-0.649-1.499-1.466
				c-0.019-0.828,0.637-1.515,1.465-1.534l1.997-0.046c0.85-0.013,1.516,0.639,1.534,1.466c0.019,0.828-0.637,1.515-1.465,1.534
				l-1.997,0.046C213.959,209.631,213.947,209.631,213.936,209.631z M220.925,209.472c-0.813,0-1.481-0.649-1.499-1.466
				c-0.019-0.829,0.638-1.516,1.466-1.534l1.997-0.045c0.825,0.014,1.515,0.638,1.533,1.466c0.019,0.829-0.638,1.516-1.466,1.534
				l-1.997,0.045C220.948,209.472,220.937,209.472,220.925,209.472z M227.916,209.313c-0.812,0-1.48-0.649-1.499-1.466
				c-0.019-0.828,0.637-1.515,1.465-1.534l1.997-0.046c0.843-0.003,1.516,0.638,1.534,1.466c0.019,0.828-0.637,1.515-1.465,1.534
				l-1.997,0.046C227.939,209.313,227.927,209.313,227.916,209.313z M234.905,209.155c-0.812,0-1.48-0.649-1.499-1.466
				c-0.019-0.828,0.637-1.515,1.465-1.534l1.997-0.046c0.825,0.018,1.515,0.638,1.534,1.466s-0.637,1.515-1.465,1.534l-1.997,0.046
				C234.929,209.155,234.917,209.155,234.905,209.155z M241.895,208.996c-0.813,0-1.481-0.649-1.499-1.466
				c-0.019-0.829,0.638-1.516,1.466-1.534l1.997-0.045c0.855,0.023,1.515,0.639,1.533,1.466c0.019,0.829-0.638,1.516-1.466,1.534
				l-1.997,0.045C241.918,208.996,241.906,208.996,241.895,208.996z M248.885,208.838c-0.812,0-1.48-0.649-1.499-1.466
				c-0.019-0.828,0.637-1.515,1.465-1.534l1.997-0.046c0.855-0.008,1.515,0.639,1.534,1.466c0.019,0.828-0.637,1.515-1.465,1.534
				l-1.997,0.046C248.908,208.838,248.896,208.838,248.885,208.838z M255.875,208.679c-0.813,0-1.481-0.649-1.499-1.466
				c-0.019-0.829,0.638-1.516,1.466-1.534l1.997-0.045c0.852,0.019,1.515,0.639,1.533,1.466c0.019,0.829-0.638,1.516-1.466,1.534
				l-1.997,0.045C255.897,208.679,255.886,208.679,255.875,208.679z M262.865,208.521c-0.813,0-1.481-0.649-1.499-1.466
				c-0.019-0.829,0.638-1.516,1.466-1.534l1.997-0.045c0.011,0,0.023,0,0.034,0c0.813,0,1.481,0.649,1.499,1.466
				c0.019,0.829-0.638,1.516-1.466,1.534l-1.997,0.045C262.888,208.521,262.876,208.521,262.865,208.521z M269.854,208.362
				c-0.812,0-1.48-0.649-1.499-1.466c-0.019-0.828,0.637-1.515,1.465-1.534l1.997-0.046c0.836,0.021,1.516,0.638,1.534,1.466
				c0.019,0.828-0.637,1.515-1.465,1.534l-1.997,0.046C269.878,208.362,269.866,208.362,269.854,208.362z M276.844,208.203
				c-0.813,0-1.481-0.649-1.499-1.466c-0.019-0.829,0.638-1.516,1.466-1.534l1.997-0.045c0.846,0.028,1.515,0.639,1.533,1.466
				c0.019,0.829-0.638,1.516-1.466,1.534l-1.997,0.045C276.867,208.203,276.855,208.203,276.844,208.203z M334.661,208.188
				c-0.134,0-0.271-0.018-0.406-0.056c-0.606-0.17-1.225-0.321-1.84-0.449c-0.811-0.169-1.332-0.964-1.162-1.774
				c0.169-0.812,0.965-1.334,1.774-1.163c0.681,0.143,1.367,0.31,2.039,0.498c0.797,0.224,1.263,1.052,1.039,1.85
				C335.918,207.755,335.316,208.188,334.661,208.188z M283.834,208.045c-0.812,0-1.48-0.649-1.499-1.466
				c-0.019-0.828,0.637-1.515,1.465-1.534l1.997-0.046c0.861-0.002,1.515,0.638,1.534,1.466s-0.637,1.515-1.465,1.534l-1.997,0.046
				C283.857,208.045,283.846,208.045,283.834,208.045z M290.824,207.886c-0.813,0-1.481-0.649-1.499-1.466
				c-0.019-0.829,0.638-1.516,1.466-1.534l1.997-0.045c0.842,0.023,1.515,0.639,1.533,1.466c0.019,0.829-0.638,1.516-1.466,1.534
				l-1.997,0.045C290.847,207.886,290.835,207.886,290.824,207.886z M297.813,207.728c-0.813,0-1.481-0.649-1.499-1.466
				c-0.019-0.829,0.638-1.516,1.466-1.534l1.998-0.045c0.84,0.002,1.515,0.639,1.533,1.466c0.019,0.829-0.638,1.516-1.466,1.534
				l-1.998,0.045C297.836,207.728,297.825,207.728,297.813,207.728z M304.804,207.569c-0.812,0-1.48-0.649-1.499-1.466
				c-0.019-0.828,0.637-1.515,1.465-1.534l1.997-0.046c0.848,0.024,1.516,0.638,1.534,1.466c0.019,0.828-0.637,1.515-1.465,1.534
				l-1.997,0.046C304.827,207.569,304.815,207.569,304.804,207.569z M311.793,207.41c-0.813,0-1.481-0.649-1.499-1.466
				c-0.019-0.829,0.638-1.516,1.466-1.534l1.997-0.045c0.011,0,0.023,0,0.034,0c0.813,0,1.481,0.649,1.499,1.466
				c0.019,0.829-0.638,1.516-1.466,1.534l-1.997,0.045C311.816,207.41,311.805,207.41,311.793,207.41z M318.783,207.252
				c-0.813,0-1.481-0.649-1.499-1.466c-0.019-0.829,0.638-1.516,1.466-1.534l1.997-0.045c0.834,0.012,1.516,0.638,1.533,1.466
				c0.019,0.829-0.638,1.516-1.466,1.534l-1.997,0.045C318.806,207.252,318.794,207.252,318.783,207.252z M327.771,207.101
				c-0.021,0-0.041,0-0.062-0.001c-0.389-0.016-0.776-0.023-1.162-0.023l-0.739,0.018c-0.816,0.029-1.515-0.636-1.534-1.465
				c-0.02-0.828,0.636-1.516,1.465-1.535l0.713-0.017c0.52,0.002,0.95,0.008,1.379,0.024c0.828,0.034,1.471,0.732,1.438,1.56
				C329.236,206.469,328.572,207.101,327.771,207.101z"/>
		</g>
	</g>
</g>
<g id="pedal">
	<path fill="#616161" stroke="#2B2C2B" stroke-width="2" stroke-miterlimit="10" d="M360.056,271.99
		c-1.111,1.027-2.844,0.962-3.872-0.148l-32.152-34.728c-1.029-1.109-0.962-2.844,0.149-3.872l0,0
		c1.111-1.028,2.844-0.961,3.873,0.149l32.151,34.727C361.233,269.229,361.167,270.961,360.056,271.99L360.056,271.99z"/>
	<g>
		<path fill="#616161" d="M375.466,272.635c0,1.1-0.9,2-2,2h-18.833c-1.1,0-2-0.9-2-2v-5.333c0-1.1,0.9-2,2-2h18.833
			c1.1,0,2,0.9,2,2V272.635z"/>
		<path fill="none" stroke="#2B2C2B" stroke-width="2" stroke-miterlimit="10" d="M375.466,272.635c0,1.1-0.9,2-2,2h-18.833
			c-1.1,0-2-0.9-2-2v-5.333c0-1.1,0.9-2,2-2h18.833c1.1,0,2,0.9,2,2V272.635z"/>
	</g>
</g>
<g id="body">
	<g>
		<path fill="#B4D7C0" d="M326.002,234.873c-0.815,0-1.609-0.347-2.179-0.95c-0.106-0.113-0.237-0.199-0.383-0.253
			c-0.185-0.068-0.369-0.146-0.548-0.24c-2.005-1.053-2.916-3.443-2.12-5.562c0.094-0.249,0.084-0.525-0.027-0.768l-32.685-71.386
			c-0.115-0.251-0.329-0.443-0.59-0.531c-0.104-0.035-0.211-0.052-0.319-0.052c-0.164,0-0.326,0.04-0.473,0.119
			c-32.121,17.247-65.989,37.492-96.055,68.578c-0.855,0.885-2.004,1.372-3.235,1.372c-1.173,0-2.285-0.449-3.128-1.266
			c-0.864-0.836-1.351-1.957-1.371-3.159s0.429-2.34,1.265-3.203c31.111-32.167,63.929-57.903,97.542-76.495
			c0.447-0.247,0.636-0.791,0.438-1.262l-3.951-9.419c-0.64-1.525,0.08-3.287,1.605-3.927c0.365-0.153,0.819-0.234,1.312-0.234
			c1.594,0,3.182,0.809,3.615,1.84l3.647,8.697c0.108,0.258,0.32,0.459,0.583,0.554c0.11,0.04,0.225,0.06,0.339,0.06
			c0.16,0,0.318-0.038,0.462-0.113c27.011-14.093,52.718-23.232,78.589-27.94c20.479-3.727,39.752-5.616,57.287-5.616
			c4.76,0,9.289,0.145,13.462,0.429c0.023,0.001,0.046,0.002,0.068,0.002c0.312,0,0.606-0.146,0.797-0.396
			c0.203-0.269,0.258-0.622,0.146-0.939c-1.314-3.706-2.624-7.388-3.921-11.005c-0.506-1.412,1.097-3.222,2.812-3.836
			c0.326-0.117,0.666-0.177,1.009-0.177c1.265,0,2.4,0.799,2.827,1.989c1.567,4.373,3.148,8.827,4.744,13.321
			c11.402,32.118,23.188,65.315,35.649,85.445c13.396,21.642,29.762,29.105,30.451,29.412c1.506,0.683,2.18,2.461,1.504,3.965
			c-0.618,1.377-1.685,2.439-2.593,2.584c-0.11,0.018-0.248,0.024-0.397,0.024c-0.488,0-0.923-0.08-1.1-0.158
			c-1.914-0.848-18.815-8.81-32.967-31.669c-10.474-16.919-20.489-41.626-27.048-59.375c-0.146-0.396-0.522-0.653-0.937-0.653
			c-0.032,0-0.065,0.001-0.098,0.005c-9.38,0.909-24.028,4.052-40.545,13.859c-35.012,20.791-61.307,48.509-80.386,84.739
			c-0.081,0.152-0.12,0.324-0.115,0.497c0.039,1.255-0.679,2.377-1.828,2.859C326.79,234.794,326.4,234.873,326.002,234.873z
			 M403.948,123.81c-4.408,0-9.522,0.166-14.791,0.479c-25.033,1.488-69.135,14.181-94.378,27.162
			c-0.476,0.245-0.675,0.821-0.451,1.308l30.487,66.148c0.157,0.34,0.49,0.563,0.864,0.58c0.015,0.001,0.029,0.001,0.044,0.001
			c0.357,0,0.689-0.191,0.868-0.504c30.341-53.046,86.252-87.035,92.527-90.736l0.792-0.459c0.323-0.189,0.514-0.543,0.494-0.917
			C420.348,125.801,420.24,123.81,403.948,123.81z"/>
		<path fill="#2B2C2B" d="M439.997,88.793c0.844,0,1.602,0.533,1.886,1.326c1.566,4.372,3.148,8.825,4.748,13.332
			c11.415,32.154,23.219,65.403,35.737,85.624c13.557,21.9,30.193,29.487,30.889,29.797c1.004,0.455,1.454,1.642,1.004,2.645
			c-0.519,1.154-1.342,1.927-1.837,2.005c-0.027,0.005-0.112,0.013-0.241,0.013c-0.362,0-0.644-0.057-0.729-0.088
			c-1.852-0.819-18.495-8.661-32.488-31.266c-10.43-16.848-20.417-41.49-26.959-59.195c-0.292-0.791-1.045-1.307-1.875-1.307
			c-0.064,0-0.129,0.003-0.194,0.009c-9.48,0.919-24.283,4.093-40.959,13.995c-35.176,20.888-61.592,48.734-80.76,85.133
			c-0.161,0.306-0.24,0.648-0.229,0.993c0.026,0.838-0.451,1.586-1.215,1.906c-0.248,0.104-0.508,0.157-0.772,0.157
			c-0.541,0-1.07-0.232-1.452-0.637c-0.212-0.226-0.475-0.398-0.766-0.506c-0.162-0.059-0.301-0.12-0.429-0.187
			c-1.559-0.818-2.267-2.678-1.648-4.324c0.188-0.499,0.168-1.053-0.054-1.537l-32.685-71.385c-0.23-0.502-0.657-0.887-1.181-1.063
			c-0.208-0.07-0.422-0.104-0.637-0.104c-0.327,0-0.652,0.08-0.946,0.238c-32.192,17.286-66.139,37.58-96.301,68.765
			c-0.665,0.688-1.559,1.066-2.516,1.066c-0.913,0-1.776-0.35-2.433-0.984c-0.672-0.65-1.05-1.522-1.066-2.457
			s0.333-1.819,0.983-2.491c31.042-32.096,63.781-57.771,97.307-76.315c0.893-0.494,1.271-1.582,0.876-2.523l-3.951-9.419
			c-0.207-0.493-0.209-1.037-0.007-1.531c0.202-0.495,0.585-0.881,1.076-1.087c0.241-0.101,0.57-0.157,0.926-0.157
			c1.284,0,2.449,0.647,2.693,1.227l3.648,8.697c0.216,0.516,0.639,0.918,1.165,1.108c0.22,0.079,0.45,0.119,0.679,0.119
			c0.319,0,0.637-0.076,0.925-0.227c26.92-14.045,52.534-23.153,78.306-27.843c20.419-3.716,39.633-5.6,57.107-5.6
			c4.738,0,9.244,0.144,13.395,0.427c0.045,0.003,0.091,0.004,0.136,0.004c0.623,0,1.214-0.291,1.594-0.791
			c0.407-0.537,0.517-1.243,0.291-1.878c-1.315-3.707-2.624-7.39-3.922-11.008c-0.262-0.731,0.914-2.094,2.209-2.558
			C439.543,88.833,439.77,88.793,439.997,88.793 M325.724,220.487c0.715,0,1.378-0.383,1.736-1.007
			c11.045-19.312,26.895-38.368,47.107-56.642c20.549-18.577,38.357-29.777,45.06-33.729l0.431-0.25l0.358-0.208
			c0.646-0.378,1.027-1.086,0.987-1.834c-0.113-2.112-1.534-4.008-17.455-4.008c-4.427,0-9.562,0.166-14.851,0.48
			c-25.145,1.495-69.433,14.238-94.776,27.271c-0.953,0.49-1.35,1.643-0.902,2.616l30.487,66.148
			c0.313,0.681,0.98,1.128,1.729,1.161C325.666,220.486,325.695,220.487,325.724,220.487 M439.997,86.793
			c-0.447,0-0.902,0.076-1.347,0.235c-2.08,0.746-4.161,3.036-3.416,5.115c1.297,3.617,2.605,7.298,3.92,11.002
			c-3.479-0.237-8.007-0.432-13.53-0.432c-13.459,0-32.843,1.151-57.466,5.632c-26.664,4.853-52.511,14.284-78.873,28.038
			l-3.648-8.697c-0.643-1.532-2.693-2.453-4.537-2.453c-0.608,0-1.193,0.101-1.699,0.312c-2.037,0.854-2.996,3.199-2.141,5.236
			l3.951,9.419c-33.671,18.624-66.554,44.394-97.776,76.675c-2.111,2.183-2.054,5.665,0.13,7.776
			c1.068,1.033,2.446,1.547,3.823,1.547c1.438,0,2.875-0.561,3.954-1.677c29.77-30.779,63.487-51.037,95.809-68.393l32.685,71.386
			c-0.962,2.561,0.106,5.495,2.59,6.799c0.219,0.115,0.443,0.211,0.669,0.294c0.756,0.802,1.809,1.265,2.907,1.265
			c0.516,0,1.041-0.101,1.546-0.312c1.571-0.659,2.49-2.205,2.44-3.812c24.588-46.69,57.646-71.063,80.012-84.345
			c17.073-10.138,32.052-12.941,40.131-13.724c8.368,22.647,18.014,44.82,27.135,59.554c14.893,24.057,32.696,31.737,33.41,32.056
			c0.376,0.168,0.991,0.245,1.507,0.245c0.208,0,0.4-0.013,0.555-0.037c1.423-0.227,2.682-1.678,3.348-3.161
			c0.903-2.01,0.005-4.375-2.002-5.285c-0.153-0.069-16.516-7.222-30.015-29.028c-12.407-20.042-24.176-53.193-35.558-85.253
			c-1.596-4.495-3.178-8.951-4.745-13.324C443.18,87.811,441.637,86.793,439.997,86.793L439.997,86.793z M325.724,218.487
			l-30.487-66.148c26.334-13.542,69.975-25.625,93.98-27.053c5.344-0.318,10.37-0.477,14.731-0.477
			c9.157,0,15.382,0.702,15.458,2.115c-0.266,0.155-0.527,0.304-0.795,0.461C396.214,140.595,350.943,174.395,325.724,218.487
			L325.724,218.487z"/>
	</g>
	<path opacity="0.2" fill="none" stroke="#282828" stroke-width="8" stroke-linecap="round" stroke-miterlimit="10" d="M299,96.746"
		/>
	<path opacity="0.2" fill="none" stroke="#282828" stroke-width="8" stroke-linecap="round" stroke-miterlimit="10" d="M243,99.794"
		/>
	<path opacity="0.3" fill="#FFFFFF" d="M414.914,135.894c-5.539,2.813-36.664,16.15-78.61,71.98
		c27.893-33.001,66.196-71.008,111.529-78.639c-0.715-1.349-1.938-3.774-1.938-3.774S426.579,129.969,414.914,135.894z"/>
	
		<path fill="#616161" stroke="#2B2C2B" stroke-width="2" stroke-linecap="round" stroke-linejoin="round" stroke-miterlimit="10" d="
		M296.749,126.68c-0.474-1.297-1.91-1.966-3.206-1.492l-8.117,2.962l-7.957-20.08c-0.814-2.053-3.139-3.058-5.192-2.245
		c-2.054,0.814-3.059,3.139-2.245,5.192l7.876,19.876l-7.266,2.652c-1.297,0.474-1.965,1.909-1.492,3.206
		c0.37,1.014,1.328,1.644,2.349,1.644c0.285,0,0.574-0.049,0.857-0.152l22.901-8.357
		C296.554,129.412,297.222,127.977,296.749,126.68z"/>
	<g>
		<path fill="#616161" d="M296.393,91.745c-13.692,1.265-36.144,2.312-49.894,2.328l-1.934,0.002
			c-13.75,0.016-16.261,6.052-5.581,13.414c10.681,7.362,29.581,8.558,42,2.657l21.771-10.344c12.419-5.901,11.378-9.694-2.313-8.43
			L296.393,91.745z"/>
		<path fill="none" stroke="#2B2C2B" stroke-width="2" stroke-miterlimit="10" d="M296.393,91.745
			c-13.692,1.265-36.144,2.312-49.894,2.328l-1.934,0.002c-13.75,0.016-16.261,6.052-5.581,13.414
			c10.681,7.362,29.581,8.558,42,2.657l21.771-10.344c12.419-5.901,11.378-9.694-2.313-8.43L296.393,91.745z"/>
	</g>
	<g opacity="0.4">
		<path fill="#989898" d="M246.583,106.179c-7.253-5-4.389-9.101,6.366-9.113c10.755-0.013,19.609-0.024,19.675-0.025
			c0.067-0.001,7.309-0.667,15.945-1.464c8.636-0.797,5.69,3.307-6.547,9.122S253.837,111.179,246.583,106.179z"/>
	</g>
	<g>
		<path fill="#616161" stroke="#2B2C2B" stroke-width="2" stroke-miterlimit="10" d="M380.694,50.11
			c-1.289,0-2.48-0.837-2.871-2.135c-0.479-1.586,0.42-3.26,2.006-3.738c0.244-0.074,24.555-7.411,40.734-12.99
			c9.677-3.336,16.151-0.946,19.879,1.647c1.36,0.946,1.696,2.816,0.75,4.176c-0.946,1.359-2.817,1.696-4.176,0.75
			c-3.763-2.616-8.639-2.92-14.497-0.901c-16.292,5.619-40.714,12.989-40.958,13.063C381.272,50.069,380.98,50.11,380.694,50.11z"/>
		<path fill="#B4D7C0" stroke="#2B2C2B" stroke-width="2" stroke-miterlimit="10" d="M413.99,36.922
			c0.942,3.062-0.775,6.308-3.84,7.249l-26.097,8.025c-3.062,0.942-6.309-0.777-7.249-3.84l0,0c-0.942-3.062,0.776-6.307,3.84-7.249
			l26.098-8.025C409.804,32.141,413.05,33.86,413.99,36.922L413.99,36.922z"/>
	</g>
	<path fill="#616161" stroke="#2B2C2B" stroke-width="2" stroke-miterlimit="10" d="M452.757,57.418
		c1.298-1.182,1.674-3.072,0.926-4.661l-14.408-30.611c-2.812-6.223-12.896-16.348-30.911-10.134
		c-19.037,6.564-47.646,15.199-47.933,15.285c-2.115,0.638-3.313,2.869-2.676,4.984c0.638,2.116,2.875,3.314,4.984,2.675
		c0.288-0.087,29.046-8.766,48.231-15.382c15.229-5.249,20.48,4.742,21.04,5.922l13.176,27.995l-15.386,14.011
		c-0.182,0.165-0.338,0.348-0.483,0.538c-0.046,0.06-0.086,0.122-0.128,0.184c-0.095,0.141-0.18,0.285-0.256,0.436
		c-0.033,0.066-0.068,0.13-0.098,0.197c-0.092,0.21-0.171,0.425-0.226,0.647c-0.005,0.021-0.006,0.042-0.011,0.064
		c-0.047,0.205-0.075,0.414-0.09,0.625c-0.004,0.069-0.004,0.139-0.005,0.208c-0.003,0.168,0.006,0.335,0.024,0.504
		c0.008,0.072,0.015,0.143,0.026,0.214c0.033,0.195,0.08,0.389,0.143,0.581c0.012,0.035,0.018,0.07,0.029,0.105
		c0.001,0.003,0.002,0.006,0.003,0.009l2.697,7.492c-1.629,2.092-2.19,4.945-1.226,7.625l1.302,3.619
		c1.174,3.263,4.249,5.294,7.527,5.294c0.899,0,1.813-0.152,2.708-0.474c4.157-1.496,6.315-6.079,4.819-10.236l-1.302-3.619
		c-1.039-2.888-3.568-4.806-6.407-5.21l-1.688-4.686L452.757,57.418z"/>
	<path fill="#B4D7C0" stroke="#2B2C2B" stroke-width="2" stroke-miterlimit="10" d="M401.589,19.003
		c1.188,3.86-0.979,7.952-4.841,9.139l-32.9,10.117c-3.861,1.188-7.953-0.98-9.139-4.841l0,0c-1.188-3.86,0.979-7.952,4.841-9.139
		l32.9-10.117C396.311,12.975,400.403,15.143,401.589,19.003L401.589,19.003z"/>
	<g>
		<path fill="#E6D83F" stroke="#2B2C2B" stroke-width="2" stroke-miterlimit="10" d="M428.466,15h-9.406c-3.866,0-7-3.134-7-7
			s3.134-7,7-7h9.406c3.866,0,7,3.134,7,7S432.332,15,428.466,15z"/>
		<g>
			<path fill="#AFA32F" d="M425.338,9.043c-1.989-0.939-1.818-1.778,0.38-1.865l13.182-0.518c2.198-0.086,3.18,1.446,2.18,3.406
				l-0.816,1.601c-1,1.96-3.445,2.795-5.435,1.856L425.338,9.043z"/>
			<path fill="none" stroke="#2B2C2B" stroke-width="2" stroke-miterlimit="10" d="M425.338,9.043
				c-1.989-0.939-1.818-1.778,0.38-1.865l13.182-0.518c2.198-0.086,3.18,1.446,2.18,3.406l-0.816,1.601
				c-1,1.96-3.445,2.795-5.435,1.856L425.338,9.043z"/>
		</g>
	</g>
	
		<line opacity="0.4" fill="#B4D7C0" stroke="#FFFFFF" stroke-width="4" stroke-linecap="round" stroke-linejoin="round" stroke-miterlimit="10" x1="395.397" y1="19.044" x2="360.75" y2="29.612"/>
	
		<line opacity="0.4" fill="#B4D7C0" stroke="#FFFFFF" stroke-width="4" stroke-linecap="round" stroke-linejoin="round" stroke-miterlimit="10" x1="406.909" y1="38.403" x2="383.182" y2="45.64"/>
	<circle fill="#E6D83F" stroke="#2B2C2B" stroke-width="2" stroke-miterlimit="10" cx="188.171" cy="220.996" r="5.895"/>
	<g>
		<defs>
			<rect id="SVGID_1_" x="160.373" y="183.595" width="64.622" height="46.874"/>
		</defs>
		<clipPath id="SVGID_2_">
			<use xlink:href="#SVGID_1_"  overflow="visible"/>
		</clipPath>
		<g clip-path="url(#SVGID_2_)">
			<path fill="#B4D7C0" d="M324.002,234.873c-0.815,0-1.609-0.347-2.179-0.95c-0.106-0.113-0.237-0.199-0.383-0.253
				c-0.185-0.068-0.369-0.146-0.548-0.24c-2.005-1.053-2.916-3.443-2.12-5.562c0.091-0.241,0.084-0.509-0.017-0.746l-30.685-71.386
				c-0.111-0.257-0.325-0.457-0.589-0.549c-0.107-0.037-0.218-0.056-0.33-0.056c-0.164,0-0.326,0.04-0.473,0.119
				c-32.121,17.247-65.989,37.492-96.055,68.578c-0.855,0.885-2.004,1.372-3.235,1.372c-1.173,0-2.285-0.449-3.128-1.266
				c-0.864-0.836-1.351-1.957-1.371-3.159s0.429-2.34,1.265-3.203c31.111-32.167,63.929-57.903,97.542-76.495
				c0.447-0.247,0.636-0.791,0.438-1.262l-3.951-9.419c-0.64-1.525,0.08-3.287,1.605-3.927c0.365-0.153,0.819-0.234,1.312-0.234
				c1.594,0,3.182,0.809,3.615,1.84l3.647,8.697c0.108,0.258,0.32,0.459,0.583,0.554c0.11,0.04,0.225,0.06,0.339,0.06
				c0.16,0,0.318-0.038,0.462-0.113c27.011-14.093,52.718-23.232,78.589-27.94c20.479-3.727,39.752-5.616,57.287-5.616
				c4.76,0,9.289,0.145,13.462,0.429c0.023,0.001,0.046,0.002,0.068,0.002c0.312,0,0.606-0.146,0.797-0.396
				c0.203-0.269,0.258-0.622,0.146-0.939c-1.314-3.706-2.624-7.388-3.921-11.005c-0.506-1.412,1.097-3.222,2.812-3.836
				c0.326-0.117,0.666-0.177,1.009-0.177c1.265,0,2.4,0.799,2.827,1.989c1.567,4.373,3.148,8.827,4.744,13.321
				c11.402,32.118,23.188,65.315,35.649,85.445c13.396,21.642,29.762,29.105,30.451,29.412c1.506,0.683,2.18,2.461,1.504,3.965
				c-0.618,1.377-1.685,2.439-2.593,2.584c-0.11,0.018-0.248,0.024-0.397,0.024c-0.488,0-0.923-0.08-1.1-0.158
				c-1.914-0.848-18.815-8.81-32.967-31.669c-10.474-16.919-20.489-41.626-27.048-59.375c-0.146-0.396-0.522-0.653-0.937-0.653
				c-0.032,0-0.065,0.001-0.098,0.005c-9.38,0.909-24.028,4.052-40.545,13.859c-54.942,32.625-75.598,71.849-82.386,84.739
				c-0.081,0.152-0.12,0.324-0.115,0.497c0.039,1.255-0.679,2.377-1.828,2.859C324.79,234.794,324.4,234.873,324.002,234.873z
				 M403.948,123.81c-4.408,0-9.522,0.166-14.791,0.479c-25.033,1.488-69.135,14.181-94.378,27.162
				c-0.467,0.24-0.669,0.802-0.461,1.285l28.487,66.148c0.15,0.348,0.484,0.581,0.862,0.603c0.019,0.001,0.038,0.002,0.057,0.002
				c0.357,0,0.689-0.191,0.868-0.504c22.29-38.97,64.853-73.235,94.527-90.736l0.792-0.459c0.323-0.189,0.514-0.543,0.494-0.917
				C420.348,125.801,420.24,123.81,403.948,123.81z"/>
			<path fill="#2B2C2B" d="M439.997,88.793c0.844,0,1.602,0.533,1.886,1.326c1.566,4.372,3.148,8.825,4.748,13.332
				c11.415,32.154,23.219,65.403,35.737,85.624c13.557,21.9,30.193,29.487,30.889,29.797c1.004,0.455,1.454,1.642,1.004,2.645
				c-0.519,1.154-1.342,1.927-1.837,2.005c-0.027,0.005-0.112,0.013-0.241,0.013c-0.362,0-0.644-0.057-0.729-0.088
				c-1.852-0.819-18.495-8.661-32.488-31.266c-10.43-16.848-20.417-41.49-26.959-59.195c-0.292-0.791-1.045-1.307-1.875-1.307
				c-0.064,0-0.129,0.003-0.194,0.009c-9.48,0.919-24.283,4.093-40.959,13.995c-13.648,8.105-55.185,32.77-82.76,85.133
				c-0.161,0.306-0.24,0.648-0.229,0.993c0.026,0.838-0.451,1.586-1.215,1.906c-0.248,0.104-0.508,0.157-0.772,0.157
				c-0.541,0-1.07-0.232-1.452-0.637c-0.212-0.226-0.475-0.398-0.766-0.506c-0.162-0.059-0.301-0.12-0.429-0.187
				c-1.559-0.818-2.267-2.678-1.648-4.324c0.182-0.484,0.169-1.02-0.035-1.494l-30.685-71.386c-0.221-0.515-0.648-0.913-1.178-1.098
				c-0.214-0.075-0.438-0.112-0.66-0.112c-0.327,0-0.652,0.08-0.946,0.238c-32.192,17.286-66.139,37.58-96.301,68.765
				c-0.665,0.688-1.559,1.066-2.516,1.066c-0.913,0-1.776-0.35-2.433-0.984c-0.672-0.65-1.05-1.522-1.066-2.457
				s0.333-1.819,0.983-2.491c31.042-32.096,63.781-57.771,97.307-76.315c0.893-0.494,1.271-1.582,0.876-2.523l-3.951-9.419
				c-0.207-0.493-0.209-1.037-0.007-1.531c0.202-0.495,0.585-0.881,1.076-1.087c0.241-0.101,0.57-0.157,0.926-0.157
				c1.284,0,2.449,0.647,2.693,1.227l3.648,8.697c0.216,0.516,0.639,0.918,1.165,1.108c0.22,0.079,0.45,0.119,0.679,0.119
				c0.319,0,0.637-0.076,0.925-0.227c26.92-14.045,52.534-23.153,78.306-27.843c20.419-3.716,39.633-5.6,57.107-5.6
				c4.738,0,9.244,0.144,13.395,0.427c0.045,0.003,0.091,0.004,0.136,0.004c0.623,0,1.214-0.291,1.594-0.791
				c0.407-0.537,0.517-1.243,0.291-1.878c-1.315-3.707-2.624-7.39-3.922-11.008c-0.262-0.731,0.914-2.094,2.209-2.558
				C439.543,88.833,439.77,88.793,439.997,88.793 M323.724,220.487c0.714,0,1.378-0.382,1.736-1.007
				c10.966-19.173,27.145-38.224,48.086-56.623c20.536-18.043,39.067-29.612,46.081-33.749l0.431-0.25l0.358-0.208
				c0.646-0.378,1.027-1.086,0.987-1.834c-0.113-2.112-1.534-4.008-17.455-4.008c-4.427,0-9.562,0.166-14.851,0.48
				c-25.145,1.495-69.433,14.238-94.776,27.271c-0.935,0.481-1.338,1.604-0.922,2.57l28.487,66.148
				c0.3,0.696,0.967,1.163,1.724,1.206C323.649,220.486,323.687,220.487,323.724,220.487 M439.997,86.793
				c-0.447,0-0.902,0.076-1.347,0.235c-2.08,0.746-4.161,3.036-3.416,5.115c1.297,3.617,2.605,7.298,3.92,11.002
				c-3.479-0.237-8.007-0.432-13.53-0.432c-13.459,0-32.843,1.151-57.466,5.632c-26.664,4.853-52.511,14.284-78.873,28.038
				l-3.648-8.697c-0.643-1.532-2.693-2.453-4.537-2.453c-0.608,0-1.193,0.101-1.699,0.312c-2.037,0.854-2.996,3.199-2.141,5.236
				l3.951,9.419c-33.671,18.624-66.554,44.394-97.776,76.675c-2.111,2.183-2.054,5.665,0.13,7.776
				c1.068,1.033,2.446,1.547,3.823,1.547c1.438,0,2.875-0.561,3.954-1.677c29.77-30.779,63.487-51.037,95.809-68.393l30.685,71.386
				c-0.962,2.561,0.106,5.495,2.59,6.799c0.219,0.115,0.443,0.211,0.669,0.294c0.756,0.802,1.809,1.265,2.907,1.265
				c0.516,0,1.041-0.101,1.546-0.312c1.571-0.659,2.49-2.205,2.44-3.812c24.588-46.69,59.646-71.063,82.012-84.345
				c17.073-10.138,32.052-12.941,40.131-13.724c8.368,22.647,18.014,44.82,27.135,59.554c14.893,24.057,32.696,31.737,33.41,32.056
				c0.376,0.168,0.991,0.245,1.507,0.245c0.208,0,0.4-0.013,0.555-0.037c1.423-0.227,2.682-1.678,3.348-3.161
				c0.903-2.01,0.005-4.375-2.002-5.285c-0.153-0.069-16.516-7.222-30.015-29.028c-12.407-20.042-24.176-53.193-35.558-85.253
				c-1.596-4.495-3.178-8.951-4.745-13.324C443.18,87.811,441.637,86.793,439.997,86.793L439.997,86.793z M323.724,218.487
				l-28.487-66.148c26.334-13.542,69.975-25.625,93.98-27.053c5.344-0.318,10.37-0.477,14.731-0.477
				c9.157,0,15.382,0.702,15.458,2.115c-0.266,0.155-0.527,0.304-0.795,0.461C396.214,140.595,348.943,174.395,323.724,218.487
				L323.724,218.487z"/>
		</g>
	</g>
	<path opacity="0.3" fill="#FFFFFF" d="M440.867,108.946c0,0-123.466-16.2-233.367,92.631c33-21.283,104-93.483,237.395-81.281
		C443.167,114.346,440.867,108.946,440.867,108.946z"/>
</g>
<g id="road">
	
		<line fill="none" stroke="#2B2B2B" stroke-width="2" stroke-linecap="round" stroke-miterlimit="10" x1="380.695" y1="317.794" x2="134" y2="317.794"/>
	
		<line fill="none" stroke="#2B2B2B" stroke-width="2" stroke-linecap="round" stroke-miterlimit="10" x1="585" y1="317.794" x2="413.911" y2="317.794"/>
	
		<line fill="none" stroke="#2B2B2B" stroke-width="2" stroke-linecap="round" stroke-miterlimit="10" x1="675" y1="317.794" x2="608.911" y2="317.794"/>
	
		<line fill="none" stroke="#2B2B2B" stroke-width="2" stroke-linecap="round" stroke-miterlimit="10" x1="116" y1="317.794" x2="1" y2="317.794"/>
</g>
</svg>
