<?xml version="1.0" encoding="utf-8"?>
<!-- Generator: Adobe Illustrator 16.0.4, SVG Export Plug-In . SVG Version: 6.00 Build 0)  -->
<!DOCTYPE svg PUBLIC "-//W3C//DTD SVG 1.1//EN" "http://www.w3.org/Graphics/SVG/1.1/DTD/svg11.dtd">
<svg version="1.1" id="Layer_1" xmlns="http://www.w3.org/2000/svg" xmlns:xlink="http://www.w3.org/1999/xlink" x="0px" y="0px"
	 width="346.927px" height="286.009px" viewBox="0 0 346.927 286.009" enable-background="new 0 0 346.927 286.009"
	 xml:space="preserve">
<g id="body">
	<g>
		<path fill="#363445" d="M187.443,135.812c-0.346-1.613-1.794-3.615-3.218-4.449l-15.322-8.969c-1.424-0.834-3.31-0.374-4.19,1.021
			l-8.797,13.928c-0.881,1.395-0.914,3.698-0.074,5.118l24.445,41.336c0.84,1.42,2.877,2.582,4.527,2.582h3
			c1.65,0,3.105-1.346,3.234-2.991l1.531-19.518c0.129-1.646-0.049-4.312-0.395-5.925L187.443,135.812z"/>
		<path fill="none" stroke="#000000" stroke-width="2" stroke-miterlimit="10" d="M187.443,135.812
			c-0.346-1.613-1.794-3.615-3.218-4.449l-15.322-8.969c-1.424-0.834-3.31-0.374-4.19,1.021l-8.797,13.928
			c-0.881,1.395-0.914,3.698-0.074,5.118l24.445,41.336c0.84,1.42,2.877,2.582,4.527,2.582h3c1.65,0,3.105-1.346,3.234-2.991
			l1.531-19.518c0.129-1.646-0.049-4.312-0.395-5.925L187.443,135.812z"/>
	</g>
	<g>
		<polygon fill="#363445" stroke="#000000" stroke-width="0.3" stroke-miterlimit="10" points="145.9,133.3 145.521,132.375 
			149.867,130.59 149.711,125.603 150.711,125.572 150.889,131.252 		"/>
		<g>
			<line fill="#363445" stroke="#000000" stroke-miterlimit="10" x1="157.002" y1="135.42" x2="153.502" y2="133.17"/>
			
				<rect x="153.172" y="133.296" transform="matrix(0.8412 0.5408 -0.5408 0.8412 97.2786 -62.6247)" fill="#17161C" stroke="#000000" stroke-miterlimit="10" width="4.161" height="2"/>
		</g>
		<g>
			<path fill="#191821" d="M152.8,128.484c1.051-1.271,2.129-0.98,2.395,0.648l0.033,0.203c0.266,1.629-0.389,3.861-1.454,4.961
				s-3.166,1.99-4.666,1.979c-1.501-0.011-1.869-1.062-0.818-2.333L152.8,128.484z"/>
			<path fill="none" stroke="#000000" stroke-miterlimit="10" d="M152.8,128.484c1.051-1.271,2.129-0.98,2.395,0.648l0.033,0.203
				c0.266,1.629-0.389,3.861-1.454,4.961s-3.166,1.99-4.666,1.979c-1.501-0.011-1.869-1.062-0.818-2.333L152.8,128.484z"/>
		</g>
		<path fill="#363445" stroke="#000000" stroke-miterlimit="10" d="M142.481,141.212h-0.209c-0.618,0-1.214-0.41-1.375-0.667
			c-0.958-1.53-0.203-3.315,6.584-12.083c6.092-7.868,7.771-8.875,8.75-8.875c0.374,0,1.113,0.029,1.396,0.249
			c1.633,1.276,1.267,2.941-5.688,12.077C145.47,140.413,143.619,141.212,142.481,141.212z M156.149,121.483
			c-0.897-0.396-2.636,1.902-7.402,8.059c-5.3,6.846-6.702,9.088-6.077,9.365c0.104,0.473,2.112-1.835,7.191-8.507
			C153.585,125.508,156.356,122.087,156.149,121.483z"/>
	</g>
	<g opacity="0.4">
		<path fill="#9989BD" d="M65.973,135.875c-0.087-1.648,0.026-4.333,0.253-5.968l6.714-48.557c0.227-1.635,1.761-2.972,3.411-2.972
			h96.815c1.65,0,3.286,1.319,3.636,2.932l14.877,68.637c0.35,1.612,0.544,4.278,0.431,5.925l-2.09,30.513
			c-0.113,1.646-1.554,3.043-3.203,3.104l-114.774,4.278c-1.649,0.061-3.069-1.236-3.156-2.885L65.973,135.875z"/>
	</g>
	<path fill="#363445" stroke="#000000" stroke-width="2" stroke-miterlimit="10" d="M110.314,176.378c-3.313,0-6-2.687-6-6v-94.5
		c0-3.313,2.687-6,6-6s6,2.687,6,6v94.5C116.314,173.692,113.628,176.378,110.314,176.378z"/>
	<g>
		<path fill="#C4011A" d="M190.688,145.379c0,0,70.875,1.498,95.294,4.999c22.669,3.25,23.181,6.372,23.181,6.372
			c0.267,1.629,0.485,4.311,0.485,5.961v69.833c0,1.65-1.35,3.003-3,3.006l-162.334,0.322c-1.65,0.003-4.35-0.035-5.999-0.084
			l-77.002-2.32c-1.649-0.049-3.1-1.436-3.224-3.081c0,0-5.774-76.509-14.774-80.009s14-11,24.5-12.5s80.59,50.463,80.59,50.463
			c1.326,0.983,3.759,1.733,5.408,1.667l30.062-0.726c1.617-0.328,3.433-1.854,4.035-3.39
			C187.909,185.893,193.201,172.385,190.688,145.379z"/>
		<path fill="none" stroke="#000000" stroke-width="2" stroke-miterlimit="10" d="M190.688,145.379c0,0,70.875,1.498,95.294,4.999
			c22.669,3.25,23.181,6.372,23.181,6.372c0.267,1.629,0.485,4.311,0.485,5.961v69.833c0,1.65-1.35,3.003-3,3.006l-162.334,0.322
			c-1.65,0.003-4.35-0.035-5.999-0.084l-77.002-2.32c-1.649-0.049-3.1-1.436-3.224-3.081c0,0-5.774-76.509-14.774-80.009
			s14-11,24.5-12.5s80.59,50.463,80.59,50.463c1.326,0.983,3.759,1.733,5.408,1.667l30.062-0.726
			c1.617-0.328,3.433-1.854,4.035-3.39C187.909,185.893,193.201,172.385,190.688,145.379z"/>
	</g>
	<rect x="132.899" y="194.878" opacity="0.4" fill="#810913" width="180.704" height="25.104"/>
	<g id="ladder">
		<line fill="none" stroke="#000000" stroke-width="5" stroke-miterlimit="10" x1="184.645" y1="221.86" x2="148.917" y2="221.86"/>
		
			<line fill="none" stroke="#000000" stroke-width="5" stroke-miterlimit="10" x1="184.645" y1="207.816" x2="148.917" y2="207.816"/>
		
			<path fill="#231F31" stroke="#000000" stroke-width="1.5" stroke-linecap="round" stroke-linejoin="round" stroke-miterlimit="10" d="
			M181.819,245.793h-30.077c-2.855,0-5.18-2.468-5.18-5.5v-47.647h4.709v39.647c0,0.271,0.215,0.5,0.471,0.5h30.077
			c0.256,0,0.471-0.229,0.471-0.5v-39.647h4.709v47.647C186.999,243.326,184.675,245.793,181.819,245.793z"/>
	</g>
	<g>
		<path fill="#363445" stroke="#000000" stroke-width="2" stroke-miterlimit="10" d="M70.382,192.904
			c-3.218,0-4.322,1.349-4.492-1.863l-2.913-55.008c-0.098-1.844,0.024-4.715,0.277-6.538l6.714-48.556
			c0.433-3.118,3.235-5.561,6.383-5.561h96.815c3.039,0,5.924,2.326,6.567,5.296l14.877,68.637c0.408,1.879,0.624,4.852,0.492,6.767
			l-2.09,30.512c-0.22,3.188-2.892,5.778-6.084,5.897L70.382,192.904z M76.351,81.378c-0.151,0-0.419,0.233-0.439,0.384
			l-5.529,43.81c-0.201,1.455-0.201,1.455-0.201,1.455c70.485,7.255,87.859,58.561,87.859,58.561l28.665,0.903
			c0.115-0.004,0.313-0.197,0.321-0.312l2.09-30.512c0.095-1.367-0.078-3.742-0.369-5.084L173.87,81.946
			c-0.051-0.233-0.465-0.567-0.704-0.567H76.351z"/>
		<path fill="#0D0C18" d="M48.142,159.521l-7.828-12.143c0,0,27.5-19.75,60.5-7.5c8.5,2.5,43.188,27.397,54.438,62.397
			c-6.5-2.5-26.209,5.155-26.209,5.155l-31.979-39.553l-49.75-8.25"/>
	</g>
	<g>
		
			<line fill="#363445" stroke="#000000" stroke-width="3" stroke-linecap="round" stroke-miterlimit="10" x1="201.314" y1="168.722" x2="240.564" y2="168.722"/>
		
			<line fill="#363445" stroke="#000000" stroke-width="3" stroke-linecap="round" stroke-miterlimit="10" x1="201.314" y1="174.934" x2="235.714" y2="174.934"/>
		
			<line fill="#363445" stroke="#000000" stroke-width="3" stroke-linecap="round" stroke-miterlimit="10" x1="201.314" y1="181.146" x2="232.299" y2="181.146"/>
		
			<line fill="#363445" stroke="#000000" stroke-width="3" stroke-linecap="round" stroke-miterlimit="10" x1="201.314" y1="162.51" x2="246.814" y2="162.51"/>
	</g>
	<g>
		<path fill="#231F31" d="M304.663,154.071c-1.562-0.533-2.84,0.381-2.84,2.031v10.357c0,1.65,1.258,3.489,2.796,4.089l2.896,1.127
			c1.538,0.6,2.757-0.261,2.708-1.91l-0.32-10.938c-0.049-1.649-1.365-3.435-2.928-3.968L304.663,154.071z"/>
		
			<path fill="none" stroke="#000000" stroke-width="1.5" stroke-linecap="round" stroke-linejoin="round" stroke-miterlimit="10" d="
			M304.663,154.071c-1.562-0.533-2.84,0.381-2.84,2.031v10.357c0,1.65,1.258,3.489,2.796,4.089l2.896,1.127
			c1.538,0.6,2.757-0.261,2.708-1.91l-0.32-10.938c-0.049-1.649-1.365-3.435-2.928-3.968L304.663,154.071z"/>
	</g>
	<path opacity="0.2" fill="#FFFFFF" d="M292.92,156.322c-30.343-1.463-30.343-1.463-93.105-2.55v-4.144
		c0,0,82.447,2.326,94.974,5.038C294.533,154.753,293.305,156.34,292.92,156.322z"/>
	<line fill="#FFFFFF" x1="207.986" y1="142.474" x2="207.986" y2="127.876"/>
	<path fill="#C4011A" stroke="#000000" stroke-width="2" stroke-miterlimit="10" d="M184.314,78.878c0,1.65-1.35,3-3,3h-114.5
		c-1.65,0-3-1.35-3-3v-6c0-1.65,1.35-3,3-3h114.5c1.65,0,3,1.35,3,3V78.878z"/>
	<polygon opacity="0.1" fill="#FFFFFF" points="166.755,122.364 160.552,131.881 189.116,155.667 183.683,131.914 	"/>
	
		<line fill="#231F31" stroke="#000000" stroke-width="1.5" stroke-linecap="round" stroke-linejoin="round" stroke-miterlimit="10" x1="266.481" y1="169.045" x2="273.147" y2="184.712"/>
	<path fill="#295B90" stroke="#000000" stroke-width="2" stroke-miterlimit="10" d="M225.147,224.726
		c0-32.257,30.51-63.23,68.76-59.98c0.875,0.125-1.198,5.386-4.093,5.124c-21.137-1.913-42.872,12.006-53.104,30.903
		c-3.807,7.029-6.021,14.748-6.021,22.597C230.689,224.562,225.147,226.053,225.147,224.726z"/>
	
		<line fill="#231F31" stroke="#000000" stroke-width="1.5" stroke-linecap="round" stroke-linejoin="round" stroke-miterlimit="10" x1="247.814" y1="207.816" x2="236.974" y2="200.293"/>
	
		<line opacity="0.2" fill="none" stroke="#FFFFFF" stroke-width="3" stroke-linecap="round" stroke-miterlimit="10" x1="68.552" y1="74.378" x2="179.814" y2="74.378"/>
	<g>
		<path fill="#363445" stroke="#000000" stroke-width="2" stroke-miterlimit="10" d="M206.981,105.045v40.334h4.333v-37.001
			c0-6.825,4.031-9.794,9.834-12.499V88.3C213.111,89.652,206.981,96.625,206.981,105.045z"/>
		<path opacity="0.2" fill="#FFFFFF" d="M218.231,91.629c0,0-5.918,1.917-8.584,9.25l0,0c0,0,3.834-6.834,8.584-7.417V91.629z"/>
	</g>
	<g>
		<path fill="#454257" d="M212.939,144.081c0,0.55-0.45,1-1,1h-4.958c-0.55,0-1-0.45-1-1v-17.208c0-0.55,0.45-1,1-1h4.958
			c0.55,0,1,0.45,1,1V144.081z"/>
		<path fill="none" stroke="#000000" stroke-width="2" stroke-miterlimit="10" d="M212.939,144.081c0,0.55-0.45,1-1,1h-4.958
			c-0.55,0-1-0.45-1-1v-17.208c0-0.55,0.45-1,1-1h4.958c0.55,0,1,0.45,1,1V144.081z"/>
	</g>
	<path fill="#295B90" stroke="#000000" stroke-width="2" stroke-miterlimit="10" d="M149.448,202.276
		c-10.033-34.461-41.576-60.362-79.896-60.362c-13.59,0-22.791,1.237-34.697,7.589c-2.437,1.301-5.025,1.354-8.29-0.124
		c-2.516-1.139-5.565-3.979-3.129-5.278c13.35-7.122,30.89-12.187,46.116-12.187c42.94,0,81.493,31.087,90.915,73.425
		c0.6,2.695-2.073,2.261-5.215,1.571C152.933,206.401,150.105,204.533,149.448,202.276z"/>
	<path opacity="0.2" fill="none" stroke="#FFFFFF" stroke-width="2" stroke-linecap="round" stroke-miterlimit="10" d="
		M155.252,199.529"/>
	<path opacity="0.2" fill="none" stroke="#FFFFFF" stroke-width="2" stroke-linecap="round" stroke-miterlimit="10" d="
		M59.266,137.234c14.15-1.805,31.898-1.058,49.216,7.847c12.889,6.628,27.749,17.551,38.333,35.544"/>
	<g opacity="0.88">
		
			<line fill="none" stroke="#231F31" stroke-width="2" stroke-linecap="round" stroke-miterlimit="10" x1="137.245" y1="100.155" x2="148.9" y2="90.584"/>
		
			<line fill="none" stroke="#231F31" stroke-width="2" stroke-linecap="round" stroke-miterlimit="10" x1="132.899" y1="115.37" x2="143.312" y2="106.819"/>
		
			<line fill="none" stroke="#231F31" stroke-width="2" stroke-linecap="round" stroke-miterlimit="10" x1="127.217" y1="113.998" x2="149.698" y2="95.537"/>
	</g>
	<g opacity="0.88">
		<g>
			<path fill="none" stroke="#231F31" stroke-width="2" stroke-linecap="round" stroke-miterlimit="10" d="M87.592,102.62
				c0.025-0.02,7.963-6.102,7.963-6.102"/>
			<path fill="none" stroke="#231F31" stroke-width="2" stroke-linecap="round" stroke-miterlimit="10" d="M86.897,114.145
				c7.994-6.148,6.405-4.908,7.964-6.102"/>
			<path fill="none" stroke="#231F31" stroke-width="2" stroke-linecap="round" stroke-miterlimit="10" d="M82.256,112.167
				c0.044-0.034,14.382-11.019,14.382-11.019"/>
		</g>
	</g>
	<polygon opacity="0.1" fill="#FFFFFF" points="111.018,136.832 105.315,134.503 105.315,81.878 111.018,81.878 	"/>
	
		<line opacity="0.2" fill="none" stroke="#FFFFFF" stroke-linecap="round" stroke-miterlimit="10" x1="208.753" y1="128.419" x2="208.753" y2="142.474"/>
	<path opacity="0.25" fill="none" stroke="#FFFFFF" stroke-linecap="round" stroke-miterlimit="10" d="M288.771,166.878
		c0,0-17.16-0.766-33.363,9.328c-11.016,6.862-24.429,19.507-27.784,44.401"/>
	<g opacity="0.2">
		<path fill="#9989BD" d="M182.148,239.711c0,0.55-0.45,1-1,1h-28.5c-0.55,0-1-0.45-1-1v-2.778c0-0.55,0.45-1,1-1h28.5
			c0.55,0,1,0.45,1,1V239.711z"/>
	</g>
</g>
<g id="big_weel_1_">
	<g id="big_weel">
		<circle fill="#454257" stroke="#000000" stroke-width="2" stroke-miterlimit="10" cx="71.867" cy="214.143" r="67.548"/>
		<g>
			<path fill="#231F31" d="M72.551,285.259c-2.015,0-4.812-1.062-8.336-3.16c0.538,0.057,1.072,0.092,1.666,0.092
				c1.099,0,2.383-0.122,4.164-0.395c0.384-0.059,0.66-0.401,0.635-0.789c-0.123-1.913-0.634-5.577-0.928-7.591
				c-0.052-0.355-0.348-0.624-0.707-0.641c-1.331-0.063-2.738-0.186-4.301-0.374c-0.03-0.004-0.06-0.006-0.09-0.006
				c-0.272,0-0.525,0.147-0.658,0.39l-3.867,7.063c-0.036,0.072-1.45,3.011-4.26,3.306c-0.156,0.017-0.327,0.029-0.515,0.029
				c-2.144,0-4.984-1.808-8.465-5.381c1.391,0.535,2.786,0.894,5.707,1.217c0.028,0.004,0.056,0.005,0.083,0.005
				c0.354,0,0.664-0.249,0.735-0.603c0.371-1.854,0.828-5.535,1.067-7.563c0.042-0.356-0.174-0.693-0.516-0.803
				c-1.324-0.423-2.654-0.905-4.067-1.475c-0.091-0.037-0.186-0.055-0.28-0.055c-0.201,0-0.398,0.081-0.542,0.232l-5.551,5.813
				c-0.049,0.057-1.842,2.145-4.288,2.145c-0.222,0-0.45-0.018-0.683-0.055c-0.889-0.139-3.385-0.529-7.289-7.494
				c1.206,0.878,2.458,1.585,5.196,2.654c0.089,0.035,0.182,0.052,0.272,0.052c0.278,0,0.542-0.154,0.672-0.417
				c0.902-1.818,2.395-5.534,2.995-7.048c0.132-0.333,0.01-0.713-0.292-0.907c-1.296-0.834-2.457-1.639-3.549-2.462
				c-0.133-0.101-0.292-0.151-0.451-0.151c-0.135,0-0.27,0.036-0.39,0.109l-6.868,4.18c-0.055,0.037-1.627,1.114-3.511,1.114
				c-0.647,0-1.264-0.129-1.832-0.382c-0.822-0.365-3.132-1.392-5.099-9.123c0.937,1.159,1.963,2.166,4.33,3.906
				c0.133,0.098,0.289,0.146,0.444,0.146c0.209,0,0.416-0.087,0.563-0.255c1.272-1.444,3.498-4.394,4.712-6.022
				c0.214-0.288,0.195-0.688-0.046-0.953c-0.877-0.964-1.784-2.047-2.774-3.31c-0.145-0.185-0.364-0.287-0.59-0.287
				c-0.07,0-0.141,0.01-0.21,0.03l-7.728,2.262c-0.055,0.019-0.999,0.353-2.208,0.353c-1.246,0-2.305-0.345-3.146-1.026
				c-0.7-0.564-2.665-2.151-2.563-10.135c0.605,1.362,1.336,2.602,3.171,4.896c0.147,0.184,0.365,0.281,0.586,0.281
				c0.143,0,0.287-0.041,0.414-0.125c1.576-1.046,4.508-3.331,6.116-4.601c0.282-0.223,0.366-0.613,0.202-0.933
				c-0.73-1.416-1.336-2.695-1.853-3.91c-0.118-0.276-0.39-0.456-0.69-0.456c-0.006,0-8.042,0.184-8.042,0.184
				c-0.062,0.004-0.179,0.013-0.369,0.013c-0.944,0-3.285-0.199-4.628-2.048c-0.529-0.728-2.015-2.769,0.147-10.453
				c0.233,1.471,0.619,2.857,1.797,5.548c0.123,0.279,0.396,0.449,0.687,0.449c0.08,0,0.16-0.013,0.239-0.039
				c1.816-0.611,5.225-2.055,7.094-2.861c0.329-0.142,0.512-0.497,0.436-0.847c-0.301-1.391-0.554-2.821-0.754-4.252
				c-0.042-0.305-0.267-0.553-0.565-0.625l-7.82-1.902c-0.078-0.016-3.285-0.623-4.299-3.261c-0.322-0.839-1.227-3.2,2.849-10.058
				c-0.157,1.481-0.143,2.92,0.3,5.824c0.056,0.368,0.373,0.637,0.741,0.637c0.016,0,0.032,0,0.048-0.002
				c1.77-0.112,5.107-0.566,7.596-0.928c0.355-0.052,0.625-0.349,0.641-0.707c0.063-1.354,0.186-2.76,0.374-4.299
				c0.037-0.305-0.115-0.602-0.385-0.749l-7.066-3.864c-0.071-0.035-3.009-1.452-3.308-4.263c-0.094-0.894-0.359-3.405,5.354-8.975
				c-0.535,1.39-0.894,2.783-1.217,5.7c-0.042,0.387,0.217,0.742,0.598,0.818c1.958,0.394,5.944,0.877,7.567,1.067
				c0.029,0.003,0.059,0.005,0.087,0.005c0.322,0,0.613-0.208,0.714-0.521c0.425-1.328,0.922-2.694,1.476-4.062
				c0.115-0.285,0.045-0.611-0.177-0.824l-5.816-5.552c-0.06-0.052-2.532-2.182-2.095-4.975c0.141-0.887,0.538-3.384,7.498-7.284
				c-0.876,1.205-1.584,2.459-2.652,5.193c-0.141,0.361,0.017,0.771,0.366,0.944c1.795,0.891,5.527,2.392,7.048,2.996
				c0.09,0.035,0.184,0.053,0.277,0.053c0.249,0,0.489-0.124,0.63-0.344c0.844-1.31,1.649-2.471,2.461-3.55
				c0.185-0.245,0.201-0.579,0.042-0.842l-4.183-6.867c-0.044-0.065-1.879-2.763-0.734-5.348c0.366-0.819,1.396-3.128,9.129-5.096
				c-1.159,0.938-2.166,1.965-3.906,4.331c-0.23,0.313-0.183,0.75,0.109,1.007c1.5,1.321,4.711,3.733,6.022,4.709
				c0.133,0.1,0.291,0.148,0.448,0.148c0.181,0,0.361-0.065,0.503-0.194c0.964-0.873,2.046-1.779,3.309-2.771
				c0.241-0.189,0.343-0.506,0.257-0.801l-2.263-7.729c-0.025-0.075-1.103-3.155,0.674-5.356c0.568-0.7,2.079-2.565,9.5-2.565
				c0.209,0,0.422,0.002,0.638,0.005c-1.363,0.604-2.603,1.336-4.897,3.173c-0.304,0.243-0.371,0.678-0.155,1.002
				c1.117,1.677,3.592,4.832,4.604,6.111c0.146,0.185,0.365,0.284,0.588,0.284c0.116,0,0.234-0.027,0.343-0.083
				c1.422-0.733,2.7-1.339,3.908-1.852c0.283-0.12,0.463-0.4,0.457-0.708l-0.186-8.023c-0.005-0.079-0.249-3.333,2.036-4.997
				c0.638-0.463,1.639-0.995,3.74-0.995c1.77,0,4.02,0.384,6.714,1.145c-1.473,0.232-2.859,0.618-5.549,1.799
				c-0.356,0.156-0.534,0.558-0.41,0.926c0.61,1.812,2.055,5.22,2.861,7.09c0.12,0.279,0.394,0.453,0.688,0.453
				c0.053,0,0.105-0.006,0.158-0.017c1.386-0.299,2.816-0.552,4.25-0.753c0.304-0.043,0.551-0.267,0.624-0.565l1.91-7.814
				c0.016-0.079,0.619-3.285,3.256-4.299c0.381-0.147,0.921-0.315,1.724-0.315c2.015,0,4.811,1.062,8.333,3.161
				c-0.537-0.058-1.07-0.092-1.662-0.092c-1.097,0-2.38,0.121-4.163,0.394c-0.384,0.059-0.659,0.4-0.635,0.788
				c0.126,2.027,0.69,5.985,0.926,7.593c0.052,0.354,0.349,0.623,0.707,0.64c1.329,0.062,2.735,0.186,4.299,0.374
				c0.03,0.004,0.06,0.006,0.09,0.006c0.271,0,0.525-0.147,0.658-0.39l3.871-7.06c0.036-0.073,1.448-3.013,4.259-3.311
				c0.154-0.017,0.323-0.028,0.511-0.028c2.146,0,4.987,1.808,8.466,5.38c-1.388-0.533-2.783-0.892-5.703-1.215
				c-0.028-0.003-0.056-0.005-0.083-0.005c-0.353,0-0.663,0.248-0.734,0.601c-0.399,1.97-0.881,5.947-1.07,7.565
				c-0.042,0.356,0.175,0.692,0.517,0.802c1.33,0.425,2.659,0.907,4.063,1.473c0.091,0.037,0.186,0.055,0.28,0.055
				c0.201,0,0.397-0.081,0.542-0.231l5.557-5.808c0.05-0.058,1.843-2.148,4.291-2.148c0.22,0,0.447,0.017,0.679,0.054
				c0.888,0.14,3.385,0.531,7.285,7.491c-1.203-0.875-2.458-1.581-5.193-2.648c-0.089-0.034-0.182-0.051-0.272-0.051
				c-0.277,0-0.542,0.154-0.671,0.416c-0.794,1.597-2.067,4.711-2.996,7.043c-0.133,0.333-0.011,0.713,0.29,0.907
				c1.305,0.843,2.466,1.647,3.549,2.462c0.133,0.1,0.292,0.15,0.451,0.15c0.134,0,0.269-0.036,0.389-0.109l6.871-4.172
				c0.056-0.037,1.631-1.116,3.517-1.116c0.646,0,1.261,0.128,1.828,0.38c0.822,0.364,3.133,1.392,5.1,9.123
				c-0.937-1.157-1.963-2.164-4.331-3.904c-0.133-0.098-0.289-0.146-0.444-0.146c-0.208,0-0.415,0.087-0.562,0.254
				c-1.272,1.439-3.498,4.391-4.71,6.021c-0.214,0.287-0.195,0.686,0.046,0.951c0.867,0.956,1.773,2.038,2.769,3.309
				c0.145,0.185,0.364,0.287,0.59,0.287c0.07,0,0.141-0.01,0.21-0.03l7.729-2.258c0.055-0.019,0.999-0.353,2.207-0.353
				c1.246,0,2.305,0.345,3.147,1.025c0.7,0.565,2.667,2.153,2.564,10.134c-0.605-1.36-1.338-2.601-3.174-4.895
				c-0.147-0.184-0.365-0.281-0.586-0.281c-0.143,0-0.287,0.041-0.415,0.125c-1.594,1.059-4.514,3.337-6.112,4.6
				c-0.282,0.223-0.366,0.613-0.202,0.933c0.73,1.415,1.335,2.693,1.851,3.907c0.118,0.277,0.39,0.457,0.69,0.457
				c0.005,0,8.041-0.18,8.041-0.18c0.063-0.004,0.179-0.013,0.369-0.013c0.943,0,3.282,0.199,4.625,2.048
				c0.53,0.726,2.019,2.766-0.145,10.449c-0.232-1.471-0.619-2.856-1.798-5.546c-0.123-0.279-0.396-0.449-0.687-0.449
				c-0.079,0-0.16,0.013-0.239,0.039c-1.896,0.637-5.591,2.211-7.091,2.858c-0.329,0.142-0.512,0.497-0.436,0.847
				c0.293,1.357,0.547,2.787,0.754,4.251c0.043,0.304,0.267,0.551,0.564,0.624l7.816,1.911c0.08,0.016,3.284,0.621,4.298,3.258
				c0.325,0.838,1.237,3.192-2.847,10.06c0.157-1.483,0.143-2.92-0.299-5.828c-0.056-0.368-0.373-0.637-0.741-0.637
				c-0.016,0-0.031,0-0.047,0.001c-1.916,0.12-5.581,0.633-7.596,0.928c-0.355,0.052-0.624,0.349-0.64,0.707
				c-0.061,1.312-0.184,2.719-0.374,4.3c-0.037,0.305,0.116,0.601,0.384,0.748l7.061,3.868c0.072,0.035,3.013,1.45,3.309,4.258
				c0.097,0.895,0.369,3.403-5.352,8.98c0.534-1.391,0.892-2.785,1.217-5.705c0.043-0.387-0.216-0.741-0.597-0.818
				c-1.968-0.396-5.946-0.879-7.565-1.067c-0.029-0.003-0.059-0.005-0.087-0.005c-0.323,0-0.614,0.208-0.714,0.521
				c-0.424,1.327-0.92,2.693-1.474,4.062c-0.115,0.284-0.045,0.611,0.177,0.823l5.811,5.557c0.061,0.054,2.536,2.18,2.094,4.969
				c-0.138,0.889-0.526,3.384-7.495,7.29c0.876-1.206,1.583-2.459,2.652-5.196c0.141-0.361-0.017-0.771-0.365-0.944
				c-1.793-0.892-5.525-2.393-7.046-2.997c-0.09-0.035-0.184-0.053-0.277-0.053c-0.249,0-0.489,0.124-0.631,0.344
				c-0.847,1.316-1.651,2.477-2.46,3.548c-0.185,0.246-0.202,0.579-0.042,0.842l4.174,6.872c0.045,0.067,1.887,2.762,0.738,5.341
				c-0.364,0.822-1.387,3.132-9.126,5.102c1.159-0.938,2.166-1.964,3.907-4.332c0.23-0.312,0.184-0.75-0.108-1.007
				c-1.424-1.256-4.385-3.49-6.022-4.711c-0.134-0.1-0.291-0.148-0.448-0.148c-0.181,0-0.362,0.065-0.504,0.195
				c-0.96,0.872-2.011,1.753-3.309,2.771c-0.241,0.189-0.343,0.506-0.257,0.8l2.259,7.729c0.026,0.077,1.105,3.156-0.672,5.351
				c-0.891,1.104-2.844,2.572-9.507,2.572c-0.207,0-0.416-0.001-0.629-0.004c1.362-0.605,2.602-1.339,4.896-3.175
				c0.303-0.243,0.371-0.677,0.156-1.001c-0.771-1.161-2.361-3.275-4.599-6.113c-0.146-0.185-0.365-0.285-0.589-0.285
				c-0.116,0-0.233,0.027-0.343,0.083c-1.437,0.739-2.716,1.347-3.911,1.854c-0.283,0.12-0.463,0.4-0.457,0.707l0.183,8.023
				c0.005,0.081,0.251,3.332-2.035,4.992c-0.639,0.466-1.641,1-3.746,1c-1.768,0-4.016-0.384-6.707-1.144
				c1.472-0.231,2.859-0.618,5.55-1.8c0.356-0.156,0.534-0.559,0.409-0.927c-0.606-1.796-2.052-5.213-2.86-7.09
				c-0.121-0.279-0.395-0.453-0.688-0.453c-0.053,0-0.106,0.006-0.159,0.017c-1.38,0.299-2.812,0.553-4.252,0.755
				c-0.304,0.043-0.551,0.268-0.624,0.565l-1.905,7.817c-0.016,0.079-0.621,3.283-3.258,4.295
				C73.895,285.09,73.354,285.259,72.551,285.259z"/>
			<g>
				<path d="M71.183,143.779c1.041,0,2.713,0.341,5.32,1.621c-0.829,0.061-1.777,0.175-2.926,0.351
					c-0.768,0.117-1.319,0.801-1.271,1.576c0.128,2.057,0.695,6.038,0.933,7.655c0.104,0.709,0.697,1.246,1.413,1.279
					c1.311,0.062,2.699,0.184,4.244,0.37c0.061,0.007,0.121,0.011,0.181,0.011c0.542,0,1.049-0.295,1.315-0.778l3.871-7.06
					c0.014-0.025,0.03-0.058,0.042-0.084c0.013-0.025,1.262-2.59,3.638-2.842c0.13-0.015,0.274-0.024,0.432-0.024
					c1.666,0,3.732,1.316,5.758,3.088c-0.791-0.151-1.73-0.288-2.912-0.419c-0.056-0.006-0.111-0.009-0.167-0.009
					c-0.705,0-1.326,0.496-1.469,1.202c-0.405,1.998-0.89,5.999-1.079,7.627c-0.083,0.713,0.35,1.384,1.033,1.603
					c1.312,0.42,2.625,0.896,4.011,1.455c0.182,0.073,0.372,0.108,0.561,0.108c0.402,0,0.796-0.161,1.084-0.463l5.557-5.808
					c0.023-0.024,0.046-0.05,0.067-0.076c0.016-0.018,1.596-1.841,3.682-1.841c0.187,0,0.376,0.015,0.563,0.044
					c1.586,0.25,3.324,1.78,5.193,4.565c-0.727-0.352-1.602-0.728-2.713-1.161c-0.179-0.069-0.363-0.103-0.544-0.103
					c-0.554,0-1.083,0.309-1.344,0.832c-0.805,1.619-2.087,4.754-3.021,7.1c-0.265,0.666-0.022,1.426,0.58,1.815
					c1.29,0.832,2.436,1.627,3.505,2.431c0.266,0.199,0.583,0.301,0.901,0.301c0.269,0,0.539-0.072,0.778-0.218l6.871-4.172
					c0.029-0.018,0.057-0.036,0.084-0.055c0.013-0.01,1.401-0.953,3.043-0.953c0.54,0,1.053,0.106,1.523,0.315
					c1.467,0.651,2.75,2.579,3.836,5.753c-0.611-0.528-1.357-1.117-2.319-1.824c-0.267-0.195-0.578-0.291-0.888-0.291
					c-0.417,0-0.83,0.173-1.125,0.507c-1.29,1.46-3.53,4.43-4.75,6.07c-0.428,0.575-0.389,1.373,0.093,1.903
					c0.855,0.942,1.75,2.012,2.734,3.268c0.289,0.368,0.728,0.574,1.181,0.574c0.14,0,0.282-0.02,0.42-0.061l7.729-2.258
					c0.027-0.008,0.061-0.019,0.087-0.028c0.008-0.003,0.845-0.294,1.91-0.294c1.07,0,1.971,0.289,2.676,0.859
					c1.249,1.009,1.989,3.203,2.216,6.552c-0.454-0.669-1.023-1.433-1.77-2.365c-0.294-0.368-0.73-0.562-1.172-0.562
					c-0.286,0-0.574,0.081-0.829,0.25c-1.617,1.074-4.555,3.366-6.163,4.637c-0.563,0.445-0.732,1.227-0.403,1.864
					c0.721,1.398,1.319,2.66,1.827,3.856c0.236,0.556,0.78,0.914,1.381,0.914c0.011,0,0.022,0,0.034,0l8.024-0.18
					c0.028-0.001,0.064-0.003,0.091-0.005c0.023-0.002,0.116-0.008,0.261-0.008c0.828,0,2.877,0.169,4.02,1.741
					c0.945,1.295,1.092,3.605,0.445,6.897c-0.265-0.763-0.617-1.646-1.096-2.739c-0.245-0.559-0.793-0.897-1.374-0.897
					c-0.159,0-0.319,0.025-0.477,0.078c-1.855,0.622-5.276,2.072-7.15,2.881c-0.658,0.283-1.023,0.993-0.872,1.694
					c0.29,1.339,0.541,2.751,0.745,4.197c0.086,0.607,0.533,1.102,1.129,1.247l7.816,1.911c0.027,0.007,0.063,0.014,0.091,0.02
					c0.028,0.005,2.828,0.55,3.687,2.782c0.579,1.494,0.123,3.764-1.357,6.779c-0.059-0.806-0.169-1.752-0.349-2.933
					c-0.112-0.737-0.746-1.274-1.482-1.274c-0.031,0-0.062,0.001-0.094,0.003c-1.942,0.121-5.631,0.637-7.657,0.934
					c-0.71,0.104-1.248,0.697-1.281,1.415c-0.06,1.293-0.181,2.682-0.369,4.245c-0.073,0.608,0.231,1.2,0.769,1.494l7.061,3.868
					c0.024,0.014,0.057,0.029,0.082,0.042c0.026,0.012,2.591,1.264,2.842,3.642c0.172,1.593-0.856,3.668-3.065,6.197
					c0.152-0.793,0.29-1.735,0.421-2.922c0.086-0.772-0.432-1.482-1.194-1.637c-1.994-0.402-5.998-0.887-7.626-1.077
					c-0.059-0.007-0.117-0.01-0.175-0.01c-0.645,0-1.227,0.416-1.428,1.043c-0.418,1.31-0.908,2.657-1.455,4.009
					c-0.23,0.569-0.09,1.222,0.354,1.646l5.811,5.557c0.02,0.02,0.047,0.044,0.069,0.062s2.176,1.89,1.802,4.251
					c-0.246,1.584-1.776,3.322-4.566,5.194c0.353-0.728,0.729-1.602,1.164-2.714c0.282-0.724-0.034-1.543-0.729-1.889
					c-1.753-0.872-5.203-2.269-7.104-3.023c-0.181-0.071-0.368-0.105-0.553-0.105c-0.498,0-0.979,0.249-1.262,0.688
					c-0.837,1.3-1.631,2.445-2.428,3.502c-0.37,0.49-0.404,1.157-0.085,1.682l4.174,6.872c0.018,0.029,0.036,0.058,0.056,0.085
					c0.016,0.023,1.608,2.385,0.637,4.564c-0.649,1.467-2.577,2.75-5.753,3.836c0.528-0.611,1.118-1.357,1.826-2.319
					c0.46-0.626,0.366-1.5-0.216-2.014c-1.445-1.274-4.424-3.522-6.071-4.75c-0.267-0.198-0.582-0.297-0.896-0.297
					c-0.363,0-0.725,0.131-1.01,0.391c-0.946,0.859-1.984,1.729-3.267,2.735c-0.482,0.379-0.686,1.013-0.514,1.602l2.259,7.729
					c0.008,0.026,0.02,0.062,0.029,0.088s0.939,2.725-0.565,4.582c-0.4,0.497-1.518,1.884-6.552,2.219
					c0.669-0.454,1.433-1.023,2.366-1.771c0.606-0.485,0.742-1.354,0.312-2c-0.793-1.195-2.353-3.269-4.635-6.163
					c-0.292-0.371-0.731-0.571-1.178-0.571c-0.233,0-0.468,0.054-0.686,0.166c-1.42,0.731-2.684,1.33-3.862,1.832
					c-0.565,0.24-0.926,0.8-0.912,1.414l0.183,8.023c0,0.027,0.002,0.063,0.005,0.092c0.002,0.028,0.201,2.872-1.734,4.277
					c-0.351,0.256-1.172,0.855-3.302,0.855c-1.028,0-2.23-0.137-3.599-0.408c0.764-0.265,1.649-0.617,2.744-1.098
					c0.711-0.312,1.067-1.117,0.818-1.854c-0.615-1.82-2.07-5.259-2.882-7.146c-0.241-0.56-0.789-0.907-1.377-0.907
					c-0.105,0-0.211,0.011-0.317,0.034c-1.363,0.295-2.775,0.545-4.198,0.745c-0.608,0.085-1.104,0.533-1.249,1.13l-1.905,7.817
					c-0.008,0.032-0.014,0.064-0.02,0.098c-0.005,0.027-0.551,2.82-2.78,3.676c-0.32,0.124-0.775,0.266-1.455,0.266
					c-1.041,0-2.712-0.341-5.321-1.621c0.83-0.06,1.779-0.175,2.928-0.351c0.769-0.117,1.32-0.803,1.27-1.578
					c-0.125-1.94-0.639-5.627-0.935-7.651c-0.104-0.71-0.696-1.248-1.414-1.281c-1.312-0.062-2.702-0.184-4.246-0.37
					c-0.061-0.007-0.121-0.011-0.181-0.011c-0.543,0-1.05,0.295-1.315,0.779l-3.867,7.063c-0.016,0.029-0.031,0.059-0.044,0.089
					c-0.012,0.026-1.262,2.582-3.638,2.832c-0.131,0.014-0.275,0.024-0.435,0.024c-1.663,0-3.729-1.316-5.755-3.087
					c0.792,0.15,1.731,0.287,2.914,0.419c0.056,0.006,0.111,0.009,0.167,0.009c0.706,0,1.328-0.498,1.469-1.205
					c0.376-1.881,0.836-5.583,1.077-7.623c0.084-0.713-0.349-1.386-1.033-1.604c-1.306-0.418-2.619-0.894-4.014-1.457
					c-0.182-0.073-0.372-0.108-0.561-0.108c-0.402,0-0.796,0.162-1.085,0.464l-5.551,5.813c-0.022,0.024-0.045,0.049-0.066,0.074
					c-0.015,0.019-1.595,1.839-3.679,1.839c-0.188,0-0.378-0.016-0.568-0.045c-1.584-0.249-3.322-1.778-5.192-4.563
					c0.727,0.353,1.601,0.729,2.712,1.163c0.179,0.069,0.363,0.103,0.545,0.103c0.555,0,1.084-0.31,1.344-0.834
					c0.914-1.843,2.417-5.582,3.021-7.104c0.264-0.666,0.02-1.427-0.583-1.814c-1.28-0.823-2.426-1.618-3.503-2.431
					c-0.266-0.2-0.584-0.302-0.903-0.302c-0.27,0-0.54,0.072-0.78,0.219l-6.868,4.18c-0.023,0.014-0.053,0.034-0.076,0.05
					c-0.014,0.009-1.41,0.955-3.045,0.955c-0.542,0-1.055-0.106-1.528-0.317c-1.466-0.651-2.749-2.578-3.833-5.75
					c0.61,0.527,1.356,1.117,2.316,1.823c0.267,0.195,0.578,0.291,0.888,0.291c0.417,0,0.832-0.174,1.126-0.509
					c1.29-1.465,3.53-4.433,4.75-6.07c0.429-0.576,0.39-1.374-0.093-1.905c-0.864-0.951-1.76-2.021-2.738-3.269
					c-0.289-0.368-0.728-0.574-1.181-0.574c-0.141,0-0.282,0.02-0.421,0.061l-7.728,2.262c-0.026,0.008-0.061,0.019-0.086,0.028
					c-0.008,0.003-0.846,0.294-1.91,0.294c-1.07,0-1.97-0.289-2.676-0.86c-1.247-1.007-1.987-3.2-2.214-6.548
					c0.453,0.668,1.021,1.43,1.766,2.36c0.294,0.369,0.73,0.563,1.172,0.563c0.286,0,0.574-0.081,0.829-0.25
					c1.517-1.007,4.19-3.078,6.166-4.637c0.563-0.445,0.732-1.227,0.404-1.864c-0.721-1.4-1.319-2.663-1.829-3.86
					c-0.236-0.555-0.78-0.913-1.38-0.913c-0.011,0-0.023,0-0.034,0l-8.024,0.184c-0.027,0.001-0.063,0.003-0.091,0.005
					c-0.023,0.002-0.116,0.008-0.261,0.008c-0.829,0-2.881-0.17-4.022-1.74c-0.943-1.296-1.09-3.608-0.443-6.9
					c0.265,0.763,0.616,1.646,1.095,2.738c0.245,0.56,0.793,0.898,1.374,0.898c0.159,0,0.32-0.025,0.479-0.078
					c1.842-0.62,5.272-2.072,7.152-2.883c0.659-0.284,1.024-0.994,0.873-1.695c-0.297-1.372-0.547-2.783-0.744-4.196
					c-0.085-0.609-0.534-1.105-1.131-1.25l-7.82-1.902c-0.026-0.007-0.061-0.014-0.088-0.02c-0.028-0.005-2.831-0.551-3.688-2.78
					c-0.575-1.499-0.118-3.77,1.358-6.78c0.058,0.805,0.169,1.749,0.349,2.928c0.112,0.736,0.746,1.273,1.482,1.273
					c0.032,0,0.064-0.001,0.096-0.003c1.795-0.114,5.154-0.571,7.656-0.935c0.711-0.104,1.25-0.696,1.283-1.414
					c0.062-1.335,0.183-2.723,0.368-4.243c0.075-0.609-0.23-1.203-0.769-1.498l-7.066-3.864c-0.028-0.016-0.058-0.03-0.087-0.044
					c-0.026-0.012-2.583-1.265-2.834-3.639c-0.168-1.595,0.86-3.669,3.065-6.194c-0.151,0.792-0.289,1.732-0.419,2.916
					c-0.086,0.772,0.433,1.482,1.195,1.636c1.913,0.384,5.6,0.84,7.627,1.077c0.059,0.007,0.117,0.01,0.175,0.01
					c0.645,0,1.227-0.416,1.428-1.042c0.419-1.311,0.909-2.659,1.456-4.009c0.231-0.57,0.09-1.224-0.354-1.648l-5.816-5.552
					c-0.02-0.019-0.046-0.042-0.066-0.06c-0.021-0.019-2.175-1.895-1.805-4.254c0.252-1.585,1.784-3.323,4.568-5.192
					c-0.352,0.727-0.728,1.599-1.162,2.709c-0.283,0.725,0.035,1.544,0.731,1.89c1.755,0.87,5.205,2.267,7.105,3.021
					c0.181,0.071,0.368,0.105,0.553,0.105c0.498,0,0.979-0.248,1.261-0.688c0.834-1.295,1.629-2.441,2.43-3.505
					c0.37-0.491,0.402-1.158,0.083-1.683l-4.183-6.867c-0.014-0.022-0.033-0.052-0.048-0.074c-0.016-0.023-1.61-2.393-0.642-4.576
					c0.655-1.466,2.584-2.749,5.758-3.835c-0.528,0.611-1.117,1.357-1.823,2.318c-0.46,0.627-0.366,1.501,0.217,2.015
					c1.466,1.292,4.432,3.528,6.07,4.747c0.267,0.199,0.582,0.297,0.896,0.297c0.362,0,0.723-0.131,1.007-0.389
					c0.951-0.86,2.02-1.756,3.269-2.736c0.482-0.378,0.686-1.013,0.513-1.602l-2.263-7.729c-0.007-0.025-0.019-0.06-0.028-0.085
					c-0.009-0.027-0.937-2.728,0.564-4.587c0.402-0.496,1.525-1.882,6.555-2.216c-0.669,0.454-1.432,1.022-2.365,1.77
					c-0.607,0.486-0.742,1.355-0.311,2.003c1.133,1.699,3.623,4.874,4.64,6.16c0.292,0.37,0.73,0.569,1.177,0.569
					c0.233,0,0.468-0.054,0.687-0.167c1.406-0.724,2.667-1.322,3.857-1.827c0.565-0.24,0.927-0.802,0.913-1.415l-0.186-8.023
					c0-0.033-0.002-0.065-0.005-0.099c-0.002-0.028-0.197-2.869,1.732-4.274c0.351-0.256,1.173-0.853,3.299-0.853
					c1.03,0,2.235,0.137,3.606,0.408c-0.764,0.266-1.648,0.618-2.742,1.099c-0.711,0.312-1.066,1.115-0.818,1.852
					c0.619,1.838,2.072,5.267,2.883,7.147c0.241,0.559,0.789,0.906,1.377,0.906c0.104,0,0.21-0.011,0.316-0.033
					c1.369-0.295,2.78-0.545,4.197-0.744c0.608-0.085,1.103-0.533,1.249-1.129l1.91-7.814c0.008-0.033,0.015-0.066,0.021-0.1
					c0.005-0.027,0.549-2.821,2.778-3.679C70.049,143.92,70.503,143.779,71.183,143.779L71.183,143.779 M71.183,142.279
					c-0.887,0-1.515,0.181-1.993,0.365c-3.083,1.186-3.716,4.821-3.716,4.821l-1.91,7.814c-1.453,0.204-2.888,0.458-4.304,0.763
					c-0.667-1.548-2.211-5.17-2.839-7.032c4.316-1.895,5.075-1.671,8.721-2.176c-4.827-1.665-8.021-2.204-10.188-2.204
					c-2.328-0.001-3.47,0.622-4.182,1.139c-2.67,1.945-2.345,5.621-2.345,5.621l0.186,8.023c-1.349,0.573-2.664,1.208-3.958,1.875
					c-1.045-1.32-3.476-4.423-4.568-6.062c3.681-2.947,4.472-2.928,7.861-4.358c-1.516-0.107-2.867-0.155-4.071-0.155
					c-7.188,0-9.167,1.714-10.083,2.845c-2.076,2.571-0.81,6.038-0.81,6.038l2.263,7.729c-1.146,0.899-2.271,1.827-3.35,2.805
					c-1.352-1.006-4.5-3.371-5.974-4.67c2.792-3.799,3.56-3.984,6.463-6.245c-10.396,2.016-12.284,4.711-12.976,6.262
					c-1.339,3.021,0.779,6.042,0.779,6.042l4.183,6.867c-0.877,1.165-1.702,2.368-2.493,3.595c-1.564-0.621-5.228-2.096-6.992-2.971
					c1.715-4.391,2.409-4.771,4.63-7.704c-9.524,4.637-10.649,7.729-10.916,9.406c-0.511,3.264,2.317,5.634,2.317,5.634l5.816,5.552
					c-0.546,1.348-1.047,2.718-1.495,4.114c-1.678-0.196-5.581-0.671-7.506-1.058c0.519-4.687,1.092-5.231,2.479-8.64
					c-7.998,6.943-8.284,10.223-8.106,11.91c0.348,3.285,3.693,4.842,3.693,4.842l7.066,3.864c-0.175,1.438-0.309,2.887-0.378,4.354
					c-1.668,0.242-5.571,0.797-7.536,0.922c-0.711-4.662-0.299-5.336,0.156-8.987c-5.927,8.777-5.354,12.019-4.746,13.604
					c1.186,3.083,4.822,3.72,4.822,3.72l7.82,1.902c0.203,1.454,0.457,2.89,0.764,4.307c-1.549,0.668-5.173,2.212-7.037,2.839
					c-1.892-4.319-1.67-5.076-2.177-8.721c-3.451,10.013-2.061,12.995-1.062,14.367c1.56,2.146,4.24,2.357,5.235,2.357
					c0.243,0,0.386-0.013,0.386-0.013l8.024-0.184c0.573,1.348,1.208,2.664,1.875,3.96c-1.32,1.042-4.425,3.476-6.066,4.564
					c-2.945-3.682-2.925-4.471-4.358-7.86c-0.744,10.564,1.372,13.085,2.693,14.151c1.156,0.937,2.495,1.193,3.618,1.193
					c1.37,0,2.418-0.383,2.418-0.383l7.728-2.262c0.899,1.147,1.828,2.272,2.809,3.352c-1.008,1.353-3.375,4.5-4.674,5.976
					c-3.8-2.794-3.983-3.562-6.244-6.465c2.014,10.396,4.711,12.282,6.263,12.972c0.726,0.323,1.453,0.446,2.137,0.446
					c2.16,0,3.901-1.224,3.901-1.224l6.868-4.18c1.164,0.877,2.367,1.704,3.595,2.494c-0.62,1.562-2.095,5.227-2.97,6.991
					c-4.393-1.716-4.771-2.41-7.706-4.628c4.638,9.521,7.731,10.645,9.409,10.907c0.273,0.043,0.541,0.063,0.8,0.063
					c2.843,0,4.83-2.377,4.83-2.377l5.551-5.813c1.352,0.545,2.723,1.048,4.119,1.494c-0.198,1.678-0.672,5.58-1.058,7.504
					c-4.689-0.52-5.233-1.09-8.642-2.475c6.208,7.148,9.485,8.134,11.318,8.134c0.217,0,0.414-0.014,0.593-0.033
					c3.286-0.345,4.839-3.691,4.839-3.691l3.867-7.063c1.438,0.174,2.888,0.31,4.355,0.379c0.243,1.666,0.796,5.569,0.922,7.53
					c-1.819,0.278-3.032,0.386-4.05,0.386c-1.592,0-2.711-0.261-4.938-0.538c6.128,4.137,9.557,5.106,11.608,5.106
					c0.887,0,1.516-0.182,1.995-0.366c3.083-1.183,3.718-4.817,3.718-4.817l1.905-7.817c1.453-0.204,2.889-0.458,4.307-0.765
					c0.666,1.547,2.211,5.173,2.839,7.033c-4.319,1.896-5.075,1.673-8.722,2.178c4.822,1.663,8.014,2.202,10.18,2.202
					c2.332,0,3.475-0.624,4.187-1.144c2.673-1.94,2.345-5.615,2.345-5.615l-0.183-8.023c1.35-0.574,2.663-1.21,3.961-1.878
					c1.041,1.32,3.476,4.426,4.562,6.063c-3.682,2.947-4.469,2.929-7.859,4.36c1.511,0.106,2.859,0.154,4.061,0.154
					c7.196,0,9.176-1.717,10.09-2.851c2.078-2.565,0.809-6.032,0.809-6.032l-2.259-7.729c1.146-0.899,2.273-1.827,3.351-2.807
					c1.352,1.007,4.502,3.373,5.975,4.672c-2.795,3.8-3.561,3.984-6.463,6.246c10.396-2.017,12.283-4.713,12.971-6.267
					c1.343-3.016-0.782-6.035-0.782-6.035l-4.174-6.872c0.877-1.162,1.702-2.366,2.492-3.594c1.562,0.62,5.228,2.096,6.989,2.972
					c-1.715,4.392-2.406,4.77-4.625,7.705c9.521-4.638,10.646-7.73,10.907-9.409c0.517-3.261-2.316-5.628-2.316-5.628L127,236.389
					c0.546-1.349,1.047-2.719,1.493-4.114c1.676,0.195,5.582,0.67,7.504,1.058c-0.521,4.688-1.089,5.229-2.474,8.641
					c7.996-6.945,8.282-10.223,8.1-11.911c-0.346-3.283-3.694-4.838-3.694-4.838l-7.061-3.868c0.173-1.438,0.31-2.887,0.378-4.354
					c1.666-0.244,5.571-0.799,7.533-0.921c0.71,4.663,0.299,5.333-0.153,8.985c5.928-8.777,5.354-12.017,4.741-13.6
					c-1.186-3.082-4.82-3.717-4.82-3.717l-7.816-1.911c-0.205-1.452-0.457-2.888-0.764-4.305c1.546-0.667,5.171-2.211,7.033-2.836
					c1.894,4.319,1.671,5.072,2.177,8.717c3.454-10.012,2.061-12.991,1.06-14.362c-1.56-2.146-4.238-2.356-5.231-2.356
					c-0.244,0-0.386,0.013-0.386,0.013l-8.024,0.18c-0.573-1.35-1.207-2.663-1.875-3.958c1.318-1.042,4.426-3.477,6.062-4.563
					c2.946,3.682,2.928,4.467,4.36,7.857c0.746-10.565-1.374-13.083-2.693-14.148c-1.157-0.936-2.496-1.192-3.619-1.192
					c-1.37,0-2.417,0.383-2.417,0.383l-7.729,2.258c-0.899-1.147-1.826-2.272-2.804-3.35c1.005-1.351,3.371-4.501,4.671-5.973
					c3.8,2.793,3.982,3.557,6.244,6.459c-2.015-10.397-4.713-12.279-6.264-12.968c-0.725-0.322-1.45-0.444-2.132-0.444
					c-2.162,0-3.906,1.226-3.906,1.226l-6.871,4.172c-1.164-0.875-2.367-1.701-3.593-2.492c0.621-1.56,2.096-5.227,2.971-6.986
					c4.396,1.714,4.771,2.403,7.703,4.623c-4.635-9.521-7.729-10.643-9.405-10.906c-0.271-0.043-0.538-0.062-0.796-0.062
					c-2.846,0-4.833,2.38-4.833,2.38l-5.557,5.808c-1.352-0.545-2.72-1.046-4.115-1.492c0.195-1.677,0.67-5.581,1.06-7.503
					c4.689,0.52,5.228,1.088,8.637,2.474c-6.208-7.153-9.488-8.134-11.317-8.134c-0.216,0-0.412,0.014-0.59,0.032
					c-3.286,0.349-4.838,3.696-4.838,3.696l-3.871,7.06c-1.438-0.174-2.886-0.31-4.354-0.379c-0.245-1.666-0.798-5.57-0.92-7.53
					c1.821-0.278,3.032-0.385,4.05-0.385c1.59,0,2.707,0.261,4.934,0.539C76.662,143.248,73.233,142.279,71.183,142.279
					L71.183,142.279z"/>
			</g>
		</g>
		<g>
			<path fill="#C4011A" stroke="#000000" stroke-width="2" stroke-miterlimit="10" d="M112.084,214.295
				c0,22.217-18.006,40.222-40.222,40.222c-22.215,0-40.222-18.005-40.222-40.222c0-22.214,18.007-40.221,40.222-40.221
				C94.078,174.075,112.084,192.082,112.084,214.295z"/>
			<path fill="#7B161D" stroke="#000000" stroke-width="2" stroke-miterlimit="10" d="M107.441,214.292
				c0,19.655-15.928,35.581-35.581,35.581c-19.649,0-35.578-15.926-35.578-35.581c0-19.649,15.929-35.574,35.578-35.574
				C91.514,178.718,107.441,194.643,107.441,214.292z"/>
			<circle fill="#C4011A" stroke="#000000" stroke-miterlimit="10" cx="71.862" cy="214.297" r="20.247"/>
			<circle fill="#C1BD2B" stroke="#000000" stroke-width="2" stroke-miterlimit="10" cx="71.862" cy="214.294" r="13.827"/>
			<g>
				<circle fill="#231F31" stroke="#000000" stroke-miterlimit="10" cx="71.862" cy="214.295" r="5.128"/>
				<g>
					<polygon fill="#807D67" stroke="#000000" stroke-width="0.7" stroke-miterlimit="10" points="70.872,206.424 69.897,204.734 
						70.872,203.047 72.824,203.047 73.798,204.734 72.824,206.424 					"/>
					<polygon fill="#807D67" stroke="#000000" stroke-width="0.7" stroke-miterlimit="10" points="65.933,208.945 64.1,208.275 
						63.761,206.355 65.256,205.1 67.086,205.77 67.428,207.689 					"/>
					<polygon fill="#807D67" stroke="#000000" stroke-width="0.7" stroke-miterlimit="10" points="63.767,214.048 61.933,214.715 
						60.44,213.463 60.778,211.541 62.611,210.876 64.105,212.126 					"/>
					<polygon fill="#807D67" stroke="#000000" stroke-width="0.7" stroke-miterlimit="10" points="65.39,219.35 64.414,221.041 
						62.466,221.041 61.487,219.35 62.466,217.666 64.415,217.661 					"/>
					<polygon fill="#807D67" stroke="#000000" stroke-width="0.7" stroke-miterlimit="10" points="70.042,222.37 70.379,224.292 
						68.889,225.545 67.051,224.88 66.719,222.958 68.209,221.703 					"/>
					<polygon fill="#807D67" stroke="#000000" stroke-width="0.7" stroke-miterlimit="10" points="75.543,221.693 77.04,222.951 
						76.703,224.867 74.868,225.537 73.378,224.28 73.712,222.36 					"/>
					<polygon fill="#807D67" stroke="#000000" stroke-width="0.7" stroke-miterlimit="10" points="79.325,217.636 81.279,217.639 
						82.253,219.326 81.277,221.019 79.329,221.011 78.35,219.326 					"/>
					<polygon fill="#807D67" stroke="#000000" stroke-width="0.7" stroke-miterlimit="10" points="79.614,212.102 81.113,210.845 
						82.941,211.511 83.284,213.434 81.787,214.684 79.953,214.019 					"/>
					<polygon fill="#807D67" stroke="#000000" stroke-width="0.7" stroke-miterlimit="10" points="76.277,207.674 76.617,205.748 
						78.447,205.083 79.945,206.335 79.602,208.252 77.771,208.925 					"/>
				</g>
			</g>
		</g>
	</g>
	<path opacity="0.2" fill="none" stroke="#686380" stroke-width="5" stroke-linecap="round" stroke-miterlimit="10" d="
		M94.725,171.524c-3.381-1.858-7.037-3.343-10.929-4.388c-21.509-5.762-43.513,3.762-54.473,21.914"/>
	<path fill="none" stroke="#0D0C18" stroke-width="5" stroke-linecap="round" stroke-miterlimit="10" d="M41.268,251.865
		c8.484,7.099,19.412,11.371,31.338,11.371c22.268,0,41.058-14.895,46.945-35.265"/>
</g>
<g id="small_weel_1_">
	<g id="small_weel">
		<circle fill="#454257" stroke="#000000" stroke-width="2" stroke-miterlimit="10" cx="290.113" cy="229.196" r="53.399"/>
		<g>
			<path fill="#231F31" d="M290.654,285.259c-1.452,0-3.435-0.715-5.915-2.129c0.206,0.011,0.418,0.018,0.641,0.018
				c0.877,0,1.899-0.097,3.315-0.313c0.385-0.059,0.66-0.401,0.635-0.789c-0.096-1.495-0.501-4.409-0.734-6.014
				c-0.052-0.354-0.348-0.624-0.706-0.641c-1.061-0.051-2.17-0.147-3.39-0.295c-0.03-0.004-0.061-0.006-0.09-0.006
				c-0.271,0-0.525,0.147-0.658,0.39l-3.057,5.584c-0.031,0.064-1.115,2.309-3.246,2.532c-0.119,0.013-0.249,0.022-0.392,0.022
				c-1.553,0-3.597-1.248-6.094-3.717c0.933,0.305,2.018,0.53,3.897,0.738c0.027,0.003,0.056,0.005,0.083,0.005
				c0.353,0,0.663-0.249,0.734-0.603c0.295-1.471,0.656-4.385,0.846-5.991c0.042-0.356-0.175-0.692-0.517-0.802
				c-1.046-0.336-2.094-0.716-3.204-1.163c-0.091-0.037-0.186-0.055-0.28-0.055c-0.201,0-0.398,0.081-0.542,0.232l-4.389,4.596
				c-0.046,0.051-1.419,1.646-3.276,1.646c-0.167,0-0.34-0.013-0.516-0.041c-0.658-0.103-2.46-0.386-5.307-5.246
				c0.821,0.534,1.812,1.034,3.571,1.721c0.089,0.035,0.182,0.052,0.272,0.052c0.277,0,0.542-0.154,0.672-0.417
				c0.712-1.435,1.896-4.382,2.373-5.583c0.132-0.333,0.01-0.713-0.291-0.907c-1.027-0.661-1.942-1.296-2.797-1.939
				c-0.133-0.101-0.292-0.151-0.451-0.151c-0.135,0-0.27,0.036-0.39,0.109l-5.43,3.304c-0.052,0.034-1.258,0.858-2.695,0.858
				c-0.489,0-0.954-0.097-1.384-0.288c-0.608-0.271-2.276-1.012-3.767-6.44c0.654,0.729,1.48,1.468,3.002,2.586
				c0.134,0.098,0.289,0.146,0.444,0.146c0.208,0,0.415-0.087,0.562-0.254c1.007-1.143,2.771-3.479,3.734-4.771
				c0.214-0.288,0.194-0.688-0.047-0.953c-0.69-0.759-1.405-1.611-2.185-2.607c-0.145-0.185-0.364-0.287-0.591-0.287
				c-0.07,0-0.141,0.01-0.211,0.03l-6.109,1.788c-0.052,0.018-0.775,0.272-1.7,0.272c-0.949,0-1.752-0.261-2.389-0.776
				c-0.518-0.418-1.937-1.564-1.971-7.197c0.443,0.873,1.05,1.801,2.229,3.275c0.147,0.184,0.365,0.281,0.586,0.281
				c0.144,0,0.288-0.041,0.415-0.125c1.271-0.844,3.581-2.646,4.845-3.645c0.281-0.223,0.366-0.613,0.202-0.933
				c-0.578-1.122-1.055-2.13-1.459-3.08c-0.118-0.277-0.39-0.457-0.69-0.457c-0.006,0-6.361,0.146-6.361,0.146
				c-0.061,0.004-0.147,0.01-0.288,0.01c-0.722,0-2.512-0.151-3.531-1.555c-0.392-0.538-1.464-2.013-0.04-7.463
				c0.203,0.959,0.55,2.012,1.308,3.741c0.122,0.279,0.396,0.449,0.687,0.449c0.079,0,0.16-0.013,0.239-0.039
				c1.513-0.51,4.435-1.755,5.62-2.267c0.329-0.142,0.512-0.497,0.437-0.847c-0.237-1.096-0.437-2.223-0.594-3.35
				c-0.043-0.305-0.267-0.553-0.565-0.625l-6.182-1.505c-0.07-0.015-2.521-0.481-3.29-2.481c-0.238-0.621-0.892-2.325,1.893-7.218
				c-0.053,0.979,0.01,2.085,0.295,3.951c0.056,0.368,0.373,0.637,0.74,0.637c0.017,0,0.032-0.001,0.049-0.002
				c1.513-0.096,4.419-0.501,6.018-0.734c0.355-0.052,0.624-0.349,0.641-0.707c0.051-1.07,0.146-2.178,0.294-3.387
				c0.037-0.305-0.115-0.602-0.385-0.749l-5.586-3.055c-0.063-0.031-2.308-1.117-2.533-3.248c-0.07-0.661-0.261-2.476,3.695-6.48
				c-0.304,0.931-0.53,2.017-0.737,3.891c-0.043,0.387,0.217,0.742,0.598,0.818c1.492,0.3,4.396,0.658,5.994,0.846
				c0.029,0.003,0.059,0.005,0.088,0.005c0.322,0,0.613-0.208,0.713-0.521c0.335-1.043,0.726-2.12,1.163-3.2
				c0.115-0.285,0.045-0.611-0.178-0.824l-4.598-4.389c-0.054-0.047-1.94-1.677-1.608-3.794c0.104-0.656,0.391-2.459,5.25-5.304
				c-0.535,0.821-1.035,1.812-1.721,3.569c-0.142,0.361,0.017,0.771,0.365,0.944c1.442,0.715,4.386,1.897,5.584,2.373
				c0.09,0.036,0.184,0.053,0.276,0.053c0.249,0,0.489-0.124,0.631-0.344c0.666-1.035,1.301-1.949,1.938-2.796
				c0.186-0.245,0.202-0.579,0.042-0.841l-3.307-5.43c-0.039-0.06-1.439-2.122-0.57-4.082c0.271-0.606,1.014-2.273,6.444-3.765
				c-0.729,0.655-1.468,1.482-2.586,3.003c-0.23,0.313-0.183,0.751,0.109,1.007c1.14,1.004,3.478,2.769,4.77,3.731
				c0.134,0.1,0.291,0.148,0.448,0.148c0.181,0,0.361-0.065,0.504-0.194c0.762-0.69,1.614-1.404,2.607-2.184
				c0.241-0.189,0.343-0.506,0.257-0.801l-1.789-6.11c-0.022-0.067-0.842-2.423,0.505-4.091c0.431-0.532,1.57-1.938,7.198-1.969
				c-0.874,0.443-1.802,1.051-3.276,2.231c-0.304,0.243-0.371,0.679-0.155,1.002c0.889,1.333,2.847,3.83,3.647,4.842
				c0.146,0.185,0.365,0.284,0.588,0.284c0.117,0,0.234-0.027,0.344-0.084c1.11-0.572,2.117-1.05,3.078-1.458
				c0.283-0.12,0.464-0.4,0.457-0.708l-0.146-6.343c-0.005-0.071-0.188-2.559,1.545-3.819c0.484-0.353,1.248-0.758,2.864-0.758
				c1.237,0,2.777,0.241,4.6,0.719c-0.96,0.202-2.013,0.549-3.742,1.308c-0.355,0.156-0.533,0.558-0.409,0.926
				c0.481,1.43,1.627,4.133,2.267,5.617c0.12,0.279,0.394,0.453,0.688,0.453c0.052,0,0.105-0.006,0.158-0.017
				c1.086-0.234,2.213-0.434,3.349-0.593c0.304-0.043,0.551-0.267,0.624-0.565l1.51-6.178c0.015-0.071,0.479-2.521,2.479-3.29
				c0.288-0.111,0.697-0.238,1.306-0.238c1.452,0,3.434,0.715,5.914,2.129c-0.206-0.011-0.418-0.017-0.64-0.017
				c-0.875,0-1.897,0.096-3.314,0.312c-0.384,0.059-0.659,0.4-0.636,0.787c0.099,1.597,0.546,4.739,0.733,6.017
				c0.053,0.354,0.348,0.623,0.706,0.64c1.059,0.051,2.167,0.147,3.388,0.295c0.03,0.004,0.061,0.006,0.09,0.006
				c0.271,0,0.524-0.147,0.657-0.39l3.061-5.581c0.033-0.065,1.115-2.311,3.246-2.536c0.116-0.013,0.245-0.021,0.388-0.021
				c1.555,0,3.6,1.248,6.096,3.717c-0.931-0.304-2.017-0.53-3.895-0.737c-0.027-0.003-0.056-0.005-0.083-0.005
				c-0.353,0-0.662,0.248-0.734,0.601c-0.316,1.561-0.698,4.711-0.848,5.993c-0.041,0.356,0.175,0.691,0.517,0.801
				c1.047,0.336,2.095,0.716,3.202,1.162c0.091,0.037,0.186,0.055,0.28,0.055c0.2,0,0.397-0.081,0.542-0.231l4.393-4.592
				c0.046-0.052,1.42-1.649,3.278-1.649c0.167,0,0.338,0.012,0.513,0.04c0.657,0.104,2.461,0.387,5.305,5.246
				c-0.821-0.534-1.812-1.033-3.57-1.719c-0.089-0.035-0.182-0.052-0.272-0.052c-0.277,0-0.542,0.154-0.672,0.416
				c-0.669,1.347-1.773,4.074-2.373,5.58c-0.132,0.333-0.011,0.713,0.29,0.907c1.038,0.671,1.953,1.306,2.796,1.94
				c0.133,0.1,0.292,0.15,0.451,0.15c0.135,0,0.27-0.036,0.39-0.109l5.432-3.299c0.052-0.034,1.259-0.859,2.697-0.859
				c0.488,0,0.954,0.097,1.382,0.287c0.609,0.27,2.277,1.01,3.768,6.44c-0.655-0.729-1.481-1.467-3.003-2.585
				c-0.134-0.098-0.289-0.146-0.444-0.146c-0.208,0-0.415,0.087-0.562,0.254c-1.05,1.188-2.96,3.731-3.732,4.771
				c-0.214,0.287-0.194,0.687,0.046,0.951c0.686,0.755,1.399,1.606,2.182,2.606c0.145,0.185,0.364,0.287,0.591,0.287
				c0.07,0,0.141-0.01,0.21-0.03l6.111-1.784c0.053-0.018,0.776-0.272,1.702-0.272c0.947,0,1.751,0.261,2.388,0.775
				c0.519,0.419,1.938,1.565,1.972,7.198c-0.444-0.874-1.052-1.802-2.232-3.276c-0.147-0.184-0.365-0.281-0.586-0.281
				c-0.144,0-0.288,0.041-0.415,0.125c-1.318,0.877-3.826,2.841-4.843,3.644c-0.282,0.223-0.366,0.614-0.201,0.934
				c0.568,1.099,1.045,2.104,1.458,3.077c0.118,0.277,0.39,0.457,0.69,0.457c0.006,0,6.36-0.142,6.36-0.142
				c0.062-0.004,0.148-0.01,0.289-0.01c0.722,0,2.51,0.151,3.529,1.554c0.393,0.538,1.468,2.011,0.042,7.461
				c-0.203-0.958-0.549-2.011-1.308-3.74c-0.122-0.279-0.396-0.449-0.687-0.449c-0.079,0-0.16,0.013-0.238,0.039
				c-1.444,0.484-4.141,1.627-5.619,2.265c-0.329,0.142-0.512,0.497-0.437,0.847c0.231,1.071,0.432,2.198,0.595,3.35
				c0.042,0.304,0.266,0.551,0.564,0.624l6.18,1.51c0.071,0.015,2.52,0.48,3.288,2.479c0.24,0.621,0.898,2.321-1.892,7.221
				c0.053-0.979-0.01-2.085-0.294-3.954c-0.056-0.369-0.373-0.638-0.74-0.638c-0.016,0-0.032,0-0.048,0.001
				c-1.509,0.095-4.417,0.501-6.017,0.734c-0.355,0.052-0.624,0.349-0.641,0.707c-0.049,1.042-0.146,2.149-0.294,3.388
				c-0.037,0.305,0.115,0.601,0.384,0.748l5.582,3.059c0.065,0.031,2.311,1.115,2.534,3.244c0.072,0.663,0.269,2.475-3.694,6.485
				c0.303-0.932,0.529-2.018,0.738-3.895c0.043-0.386-0.216-0.741-0.597-0.818c-1.559-0.315-4.711-0.697-5.993-0.847
				c-0.029-0.003-0.059-0.005-0.087-0.005c-0.323,0-0.614,0.208-0.714,0.521c-0.335,1.044-0.726,2.12-1.163,3.2
				c-0.115,0.285-0.045,0.611,0.177,0.823l4.594,4.393c0.055,0.048,1.944,1.676,1.609,3.79c-0.103,0.658-0.384,2.46-5.248,5.309
				c0.534-0.822,1.034-1.812,1.721-3.572c0.142-0.361-0.017-0.771-0.364-0.944c-1.365-0.679-4.084-1.778-5.583-2.374
				c-0.09-0.035-0.184-0.053-0.276-0.053c-0.249,0-0.489,0.124-0.631,0.344c-0.666,1.035-1.3,1.949-1.938,2.795
				c-0.186,0.246-0.202,0.579-0.042,0.842l3.301,5.433c0.04,0.061,1.444,2.121,0.572,4.076c-0.269,0.61-1.006,2.277-6.441,3.77
				c0.729-0.655,1.468-1.482,2.587-3.004c0.229-0.313,0.183-0.75-0.108-1.007c-1.135-1-3.476-2.768-4.771-3.732
				c-0.134-0.1-0.291-0.148-0.448-0.148c-0.182,0-0.362,0.065-0.505,0.195c-0.756,0.688-1.585,1.382-2.606,2.184
				c-0.241,0.189-0.343,0.506-0.257,0.8l1.785,6.111c0.023,0.069,0.846,2.423-0.502,4.087c-0.432,0.534-1.567,1.942-7.2,1.974
				c0.874-0.444,1.803-1.052,3.277-2.232c0.304-0.243,0.371-0.678,0.156-1.001c-0.83-1.249-2.639-3.57-3.644-4.843
				c-0.146-0.186-0.365-0.285-0.589-0.285c-0.117,0-0.234,0.027-0.344,0.083c-1.121,0.578-2.129,1.056-3.081,1.461
				c-0.282,0.121-0.463,0.4-0.456,0.707l0.145,6.343c0.005,0.072,0.189,2.558-1.544,3.815c-0.486,0.355-1.251,0.762-2.869,0.762
				c-1.236,0-2.774-0.24-4.595-0.717c0.96-0.203,2.013-0.551,3.743-1.31c0.355-0.156,0.533-0.558,0.409-0.926
				c-0.507-1.503-1.754-4.429-2.267-5.617c-0.12-0.279-0.394-0.453-0.688-0.453c-0.052,0-0.105,0.006-0.158,0.017
				c-1.085,0.234-2.212,0.435-3.351,0.594c-0.304,0.043-0.552,0.268-0.624,0.565l-1.506,6.181c-0.015,0.071-0.48,2.519-2.479,3.286
				C291.672,285.131,291.263,285.259,290.654,285.259z"/>
			<g>
				<path d="M289.571,173.884c0.644,0,1.608,0.174,3.024,0.77c-0.362,0.045-0.753,0.099-1.178,0.164
					c-0.768,0.116-1.318,0.8-1.271,1.575c0.101,1.624,0.551,4.792,0.739,6.078c0.104,0.71,0.696,1.246,1.412,1.28
					c1.04,0.05,2.131,0.146,3.333,0.291c0.061,0.007,0.121,0.011,0.181,0.011c0.543,0,1.05-0.295,1.315-0.778l3.061-5.581
					c0.013-0.023,0.029-0.058,0.041-0.082c0.009-0.019,0.928-1.89,2.625-2.069c0.094-0.011,0.196-0.018,0.31-0.018
					c0.913,0,2.083,0.554,3.469,1.631c-0.358-0.051-0.751-0.1-1.185-0.147c-0.056-0.006-0.111-0.009-0.166-0.009
					c-0.705,0-1.325,0.496-1.469,1.201c-0.323,1.589-0.708,4.765-0.858,6.056c-0.083,0.713,0.35,1.384,1.032,1.603
					c1.03,0.33,2.061,0.704,3.151,1.144c0.182,0.073,0.372,0.108,0.561,0.108c0.401,0,0.795-0.161,1.084-0.463l4.393-4.592
					c0.023-0.024,0.046-0.05,0.067-0.075c0.011-0.014,1.188-1.344,2.669-1.343c0.132,0,0.265,0.01,0.396,0.03
					c0.989,0.156,2.07,1.006,3.235,2.539c-0.335-0.143-0.703-0.292-1.111-0.451c-0.179-0.069-0.362-0.103-0.545-0.103
					c-0.554,0-1.083,0.309-1.344,0.833c-0.681,1.37-1.794,4.119-2.397,5.636c-0.265,0.666-0.022,1.426,0.579,1.814
					c1.023,0.661,1.924,1.286,2.752,1.909c0.267,0.2,0.584,0.302,0.902,0.302c0.269,0,0.539-0.072,0.778-0.218l5.432-3.299
					c0.029-0.018,0.057-0.036,0.084-0.055c0.011-0.008,1.043-0.696,2.225-0.696c0.389,0,0.741,0.073,1.078,0.223
					c0.915,0.405,1.739,1.507,2.468,3.288c-0.286-0.224-0.603-0.463-0.955-0.723c-0.267-0.195-0.578-0.291-0.888-0.291
					c-0.417,0-0.83,0.173-1.125,0.507c-1.031,1.167-2.807,3.521-3.772,4.819c-0.429,0.575-0.39,1.373,0.093,1.904
					c0.673,0.74,1.375,1.579,2.146,2.563c0.289,0.369,0.728,0.575,1.181,0.575c0.14,0,0.281-0.02,0.42-0.061l6.111-1.784
					c0.025-0.007,0.062-0.019,0.086-0.027c0.006-0.002,0.624-0.215,1.405-0.215c0.772,0,1.417,0.204,1.918,0.609
					c0.778,0.629,1.29,1.906,1.532,3.816c-0.219-0.291-0.463-0.605-0.737-0.947c-0.295-0.368-0.73-0.562-1.172-0.562
					c-0.286,0-0.575,0.082-0.829,0.251c-1.294,0.859-3.621,2.674-4.893,3.68c-0.564,0.445-0.732,1.228-0.402,1.866
					c0.559,1.081,1.028,2.071,1.434,3.026c0.236,0.555,0.78,0.913,1.381,0.913c0.011,0,0.022,0,0.033,0l6.344-0.142
					c0.026-0.001,0.063-0.003,0.09-0.005c0.021-0.002,0.085-0.005,0.183-0.005c0.473,0,2.083,0.09,2.924,1.246
					c0.589,0.808,0.753,2.173,0.493,4.08c-0.137-0.337-0.29-0.703-0.466-1.104c-0.245-0.559-0.793-0.897-1.374-0.897
					c-0.158,0-0.319,0.025-0.478,0.078c-1.47,0.493-4.188,1.645-5.677,2.287c-0.658,0.283-1.023,0.993-0.872,1.694
					c0.228,1.053,0.424,2.161,0.584,3.296c0.086,0.607,0.533,1.102,1.129,1.247l6.18,1.51c0.033,0.008,0.065,0.015,0.099,0.021
					c0.02,0.004,2.053,0.4,2.669,2.002c0.361,0.932,0.165,2.293-0.58,4.069c-0.044-0.361-0.099-0.755-0.164-1.188
					c-0.112-0.736-0.746-1.274-1.482-1.274c-0.031,0-0.062,0.001-0.095,0.003c-1.536,0.096-4.468,0.505-6.078,0.74
					c-0.711,0.104-1.248,0.696-1.281,1.414c-0.049,1.022-0.144,2.113-0.29,3.334c-0.073,0.608,0.231,1.2,0.769,1.494l5.582,3.059
					c0.029,0.016,0.059,0.031,0.089,0.045c0.019,0.009,1.881,0.918,2.061,2.625c0.107,0.993-0.434,2.257-1.614,3.78
					c0.052-0.36,0.101-0.755,0.149-1.189c0.086-0.772-0.433-1.482-1.193-1.636c-1.587-0.321-4.764-0.707-6.056-0.857
					c-0.059-0.007-0.117-0.01-0.175-0.01c-0.645,0-1.227,0.416-1.428,1.042c-0.328,1.026-0.713,2.086-1.144,3.148
					c-0.23,0.569-0.09,1.222,0.354,1.646l4.594,4.393c0.024,0.023,0.05,0.046,0.075,0.067c0.017,0.013,1.58,1.373,1.312,3.066
					c-0.153,0.988-1.004,2.069-2.539,3.235c0.143-0.335,0.293-0.703,0.452-1.112c0.282-0.723-0.034-1.542-0.729-1.888
					c-1.39-0.691-4.13-1.801-5.64-2.4c-0.181-0.071-0.368-0.105-0.554-0.105c-0.497,0-0.979,0.249-1.261,0.688
					c-0.656,1.02-1.28,1.919-1.907,2.75c-0.37,0.49-0.403,1.157-0.085,1.683l3.301,5.433c0.014,0.022,0.035,0.054,0.05,0.075
					c0.012,0.018,1.174,1.749,0.478,3.311c-0.403,0.914-1.504,1.738-3.287,2.467c0.225-0.287,0.464-0.604,0.723-0.956
					c0.461-0.626,0.367-1.5-0.216-2.014c-1.155-1.019-3.515-2.8-4.818-3.771c-0.268-0.198-0.582-0.297-0.896-0.297
					c-0.362,0-0.725,0.131-1.009,0.391c-0.743,0.676-1.559,1.358-2.565,2.147c-0.482,0.379-0.686,1.013-0.514,1.602l1.785,6.111
					c0.007,0.025,0.019,0.061,0.027,0.086c0.007,0.02,0.681,1.992-0.394,3.32c-0.264,0.326-0.947,1.174-3.814,1.531
					c0.29-0.219,0.604-0.462,0.944-0.735c0.606-0.485,0.742-1.354,0.312-2.001c-0.803-1.207-2.444-3.327-3.68-4.893
					c-0.293-0.37-0.731-0.57-1.179-0.57c-0.232,0-0.468,0.054-0.687,0.167c-1.104,0.569-2.096,1.039-3.031,1.438
					c-0.564,0.24-0.926,0.801-0.912,1.414l0.145,6.343c0.001,0.026,0.003,0.063,0.005,0.089c0.002,0.021,0.142,2.101-1.242,3.104
					c-0.253,0.185-0.845,0.616-2.426,0.616c-0.497,0-1.048-0.042-1.65-0.124c0.337-0.137,0.701-0.29,1.1-0.465
					c0.712-0.312,1.067-1.117,0.818-1.854c-0.497-1.475-1.646-4.188-2.288-5.674c-0.24-0.559-0.788-0.906-1.376-0.906
					c-0.105,0-0.212,0.011-0.317,0.034c-1.067,0.23-2.177,0.427-3.296,0.584c-0.609,0.085-1.104,0.533-1.249,1.13l-1.506,6.181
					c-0.008,0.032-0.015,0.064-0.021,0.098c-0.004,0.021-0.4,2.053-2.001,2.667c-0.242,0.093-0.555,0.188-1.037,0.188
					c-0.644,0-1.608-0.174-3.024-0.77c0.363-0.044,0.754-0.099,1.179-0.164c0.769-0.117,1.32-0.803,1.271-1.578
					c-0.093-1.445-0.454-4.101-0.741-6.073c-0.104-0.71-0.695-1.248-1.412-1.282c-1.043-0.05-2.134-0.146-3.335-0.291
					c-0.061-0.007-0.121-0.011-0.181-0.011c-0.544,0-1.051,0.295-1.315,0.779l-3.057,5.584c-0.017,0.029-0.031,0.059-0.045,0.089
					c-0.009,0.019-0.918,1.879-2.625,2.059c-0.094,0.01-0.196,0.018-0.311,0.018c-0.911,0-2.08-0.554-3.466-1.63
					c0.36,0.05,0.753,0.1,1.187,0.147c0.056,0.006,0.111,0.009,0.166,0.009c0.707,0,1.328-0.498,1.47-1.205
					c0.285-1.421,0.622-4.075,0.854-6.051c0.084-0.713-0.349-1.386-1.031-1.604c-1.029-0.329-2.061-0.704-3.153-1.145
					c-0.182-0.073-0.372-0.108-0.561-0.108c-0.401,0-0.796,0.162-1.085,0.464l-4.389,4.596c-0.022,0.024-0.045,0.049-0.065,0.074
					c-0.012,0.014-1.188,1.341-2.668,1.341c-0.133,0-0.267-0.011-0.4-0.031c-0.987-0.155-2.068-1.005-3.233-2.537
					c0.335,0.143,0.702,0.292,1.11,0.451c0.178,0.069,0.362,0.103,0.545,0.103c0.555,0,1.084-0.31,1.344-0.834
					c0.724-1.46,1.918-4.43,2.398-5.639c0.264-0.667,0.021-1.427-0.582-1.814c-1.012-0.651-1.912-1.276-2.751-1.909
					c-0.267-0.2-0.585-0.302-0.903-0.302c-0.27,0-0.539,0.072-0.779,0.219l-5.43,3.304c-0.028,0.017-0.057,0.035-0.083,0.054
					c-0.01,0.008-1.042,0.695-2.223,0.695c-0.389,0-0.741-0.073-1.079-0.224c-0.914-0.406-1.738-1.506-2.467-3.286
					c0.286,0.224,0.602,0.463,0.953,0.722c0.267,0.195,0.578,0.291,0.888,0.291c0.418,0,0.831-0.174,1.126-0.509
					c1.024-1.162,2.804-3.518,3.773-4.818c0.429-0.576,0.39-1.375-0.094-1.905c-0.678-0.745-1.381-1.585-2.149-2.565
					c-0.289-0.369-0.728-0.575-1.181-0.575c-0.141,0-0.282,0.02-0.421,0.061l-6.109,1.788c-0.025,0.007-0.061,0.019-0.085,0.027
					c-0.006,0.002-0.624,0.215-1.405,0.215c-0.772,0-1.417-0.205-1.918-0.61c-0.777-0.628-1.289-1.904-1.531-3.813
					c0.219,0.29,0.461,0.604,0.734,0.944c0.294,0.368,0.73,0.562,1.172,0.562c0.286,0,0.574-0.082,0.829-0.25
					c1.293-0.859,3.622-2.676,4.895-3.682c0.563-0.444,0.732-1.226,0.404-1.863c-0.569-1.105-1.039-2.098-1.436-3.031
					c-0.236-0.555-0.78-0.913-1.381-0.913c-0.012,0-0.022,0-0.034,0l-6.344,0.146c-0.026,0.001-0.062,0.003-0.089,0.005
					c-0.02,0.002-0.084,0.005-0.183,0.005c-0.474,0-2.085-0.09-2.925-1.245c-0.588-0.809-0.751-2.175-0.491-4.082
					c0.136,0.337,0.29,0.702,0.465,1.103c0.245,0.559,0.793,0.897,1.374,0.897c0.159,0,0.32-0.025,0.479-0.078
					c1.539-0.519,4.483-1.773,5.678-2.289c0.658-0.283,1.023-0.993,0.872-1.694c-0.232-1.077-0.429-2.186-0.584-3.294
					c-0.085-0.609-0.533-1.104-1.131-1.25l-6.182-1.505c-0.024-0.007-0.061-0.014-0.086-0.019c-0.021-0.004-2.067-0.409-2.681-2.002
					c-0.358-0.935-0.162-2.296,0.581-4.069c0.045,0.36,0.099,0.752,0.165,1.184c0.112,0.736,0.746,1.273,1.481,1.273
					c0.031,0,0.063-0.001,0.096-0.003c1.54-0.098,4.47-0.507,6.079-0.741c0.71-0.104,1.248-0.696,1.281-1.414
					c0.05-1.051,0.145-2.141,0.29-3.331c0.074-0.609-0.23-1.203-0.77-1.498l-5.586-3.055c-0.022-0.012-0.055-0.028-0.078-0.039
					c-0.019-0.01-1.89-0.931-2.069-2.629c-0.105-0.994,0.436-2.258,1.613-3.779c-0.05,0.359-0.1,0.752-0.147,1.186
					c-0.085,0.772,0.434,1.482,1.195,1.636c1.519,0.305,4.445,0.667,6.055,0.855c0.06,0.007,0.118,0.01,0.176,0.01
					c0.645,0,1.227-0.416,1.428-1.042c0.328-1.026,0.713-2.085,1.144-3.148c0.23-0.569,0.09-1.223-0.354-1.647l-4.598-4.389
					c-0.023-0.022-0.048-0.044-0.073-0.065c-0.016-0.013-1.578-1.376-1.313-3.067c0.157-0.988,1.008-2.07,2.54-3.234
					c-0.143,0.334-0.291,0.701-0.45,1.107c-0.282,0.725,0.035,1.545,0.731,1.89c1.468,0.728,4.434,1.92,5.641,2.398
					c0.181,0.071,0.367,0.105,0.553,0.105c0.497,0,0.978-0.248,1.261-0.688c0.657-1.02,1.281-1.919,1.908-2.75
					c0.37-0.491,0.402-1.158,0.083-1.684l-3.307-5.43c-0.014-0.021-0.033-0.052-0.047-0.072c-0.012-0.018-1.172-1.752-0.479-3.312
					c0.407-0.914,1.51-1.738,3.292-2.467c-0.225,0.286-0.464,0.603-0.723,0.954c-0.46,0.627-0.365,1.501,0.218,2.015
					c1.16,1.021,3.517,2.8,4.817,3.77c0.268,0.198,0.582,0.297,0.896,0.297c0.362,0,0.723-0.131,1.007-0.389
					c0.749-0.678,1.588-1.381,2.567-2.149c0.482-0.378,0.687-1.013,0.514-1.602l-1.789-6.11c-0.009-0.031-0.02-0.062-0.03-0.093
					c-0.007-0.019-0.679-1.98,0.397-3.313c0.264-0.326,0.95-1.173,3.814-1.53c-0.29,0.219-0.603,0.462-0.943,0.734
					c-0.607,0.486-0.742,1.355-0.311,2.003c0.904,1.355,2.877,3.872,3.684,4.891c0.292,0.37,0.729,0.569,1.177,0.569
					c0.232,0,0.469-0.055,0.688-0.167c1.093-0.564,2.083-1.034,3.027-1.435c0.565-0.24,0.927-0.802,0.913-1.415l-0.146-6.343
					c-0.001-0.026-0.003-0.062-0.005-0.088c-0.002-0.021-0.14-2.104,1.241-3.108c0.252-0.184,0.844-0.614,2.423-0.614
					c0.498,0,1.051,0.042,1.655,0.125c-0.336,0.136-0.7,0.289-1.099,0.464c-0.712,0.312-1.067,1.116-0.819,1.853
					c0.49,1.455,1.645,4.18,2.288,5.675c0.241,0.559,0.789,0.906,1.377,0.906c0.105,0,0.211-0.011,0.317-0.034
					c1.068-0.229,2.177-0.426,3.294-0.583c0.608-0.085,1.104-0.532,1.249-1.129l1.51-6.178c0.008-0.033,0.015-0.066,0.021-0.1
					c0.004-0.021,0.399-2.055,1.998-2.669C288.776,173.979,289.089,173.884,289.571,173.884 M289.571,172.384
					c-0.7,0-1.197,0.143-1.575,0.288c-2.438,0.938-2.938,3.812-2.938,3.812l-1.51,6.178c-1.148,0.161-2.283,0.361-3.402,0.603
					c-0.527-1.224-1.748-4.087-2.244-5.56c3.412-1.497,4.012-1.32,6.895-1.72c-3.816-1.316-6.341-1.743-8.054-1.743
					c-1.84,0-2.743,0.492-3.306,0.901c-2.111,1.537-1.854,4.443-1.854,4.443l0.146,6.343c-1.066,0.453-2.105,0.954-3.129,1.482
					c-0.826-1.044-2.748-3.497-3.611-4.792c2.91-2.33,3.535-2.314,6.215-3.445c-1.199-0.085-2.267-0.123-3.219-0.123
					c-5.682,0-7.246,1.354-7.971,2.249c-1.641,2.032-0.641,4.772-0.641,4.772l1.789,6.11c-0.906,0.711-1.795,1.444-2.648,2.218
					c-1.068-0.796-3.557-2.666-4.723-3.692c2.207-3.003,2.814-3.15,5.109-4.937c-8.219,1.593-9.711,3.724-10.258,4.95
					c-1.059,2.388,0.615,4.775,0.615,4.775l3.307,5.43c-0.693,0.92-1.346,1.871-1.971,2.841c-1.236-0.49-4.133-1.656-5.527-2.348
					c1.355-3.472,1.904-3.771,3.66-6.091c-7.529,3.666-8.418,6.11-8.629,7.437c-0.404,2.58,1.832,4.453,1.832,4.453l4.598,4.389
					c-0.432,1.066-0.828,2.149-1.182,3.253c-1.326-0.155-4.412-0.53-5.934-0.836c0.41-3.704,0.863-4.136,1.959-6.83
					c-6.322,5.489-6.549,8.081-6.408,9.416c0.275,2.597,2.92,3.827,2.92,3.827l5.586,3.055c-0.139,1.137-0.244,2.282-0.299,3.442
					c-1.318,0.192-4.404,0.63-5.957,0.729c-0.562-3.685-0.236-4.218,0.123-7.104c-4.686,6.939-4.232,9.501-3.752,10.754
					c0.938,2.438,3.812,2.94,3.812,2.94l6.182,1.505c0.16,1.148,0.361,2.284,0.604,3.404c-1.225,0.528-4.09,1.748-5.562,2.244
					c-1.496-3.414-1.32-4.013-1.721-6.895c-2.729,7.916-1.629,10.273-0.84,11.358c1.233,1.696,3.352,1.863,4.138,1.863
					c0.193,0,0.306-0.01,0.306-0.01l6.344-0.146c0.453,1.066,0.955,2.106,1.482,3.131c-1.043,0.824-3.498,2.747-4.795,3.608
					c-2.328-2.91-2.312-3.534-3.445-6.214c-0.588,8.352,1.084,10.344,2.129,11.188c0.914,0.74,1.973,0.943,2.86,0.943
					c1.083,0,1.911-0.303,1.911-0.303l6.109-1.788c0.711,0.907,1.445,1.797,2.221,2.649c-0.797,1.069-2.668,3.558-3.695,4.724
					c-3.004-2.208-3.148-2.815-4.936-5.11c1.592,8.219,3.725,9.71,4.951,10.255c0.574,0.256,1.148,0.353,1.688,0.353
					c1.708,0,3.085-0.968,3.085-0.968l5.43-3.304c0.92,0.693,1.871,1.347,2.842,1.972c-0.49,1.235-1.656,4.132-2.348,5.526
					c-3.473-1.355-3.771-1.904-6.092-3.658c3.666,7.526,6.111,8.415,7.438,8.623c0.216,0.034,0.427,0.05,0.633,0.05
					c2.248,0,3.818-1.879,3.818-1.879l4.389-4.596c1.068,0.431,2.152,0.828,3.256,1.182c-0.156,1.326-0.531,4.411-0.836,5.932
					c-3.707-0.41-4.137-0.862-6.832-1.956c4.907,5.649,7.498,6.43,8.946,6.43c0.172,0,0.328-0.011,0.47-0.026
					c2.598-0.272,3.826-2.918,3.826-2.918l3.057-5.584c1.137,0.138,2.283,0.244,3.443,0.3c0.191,1.316,0.629,4.402,0.729,5.953
					c-1.438,0.22-2.396,0.305-3.202,0.305c-1.258,0-2.143-0.207-3.903-0.426c4.845,3.271,7.556,4.037,9.178,4.037
					c0.7,0,1.197-0.144,1.576-0.289c2.438-0.936,2.939-3.809,2.939-3.809l1.506-6.181c1.148-0.161,2.283-0.361,3.404-0.604
					c0.527,1.223,1.748,4.089,2.244,5.56c-3.414,1.498-4.012,1.322-6.895,1.722c3.812,1.314,6.336,1.741,8.048,1.741
					c1.843,0,2.747-0.494,3.31-0.904c2.113-1.534,1.854-4.439,1.854-4.439l-0.145-6.343c1.066-0.454,2.105-0.956,3.131-1.484
					c0.824,1.044,2.748,3.499,3.607,4.793c-2.91,2.33-3.533,2.315-6.213,3.447c1.195,0.084,2.26,0.122,3.21,0.122
					c5.688,0,7.255-1.356,7.978-2.253c1.643-2.028,0.639-4.769,0.639-4.769l-1.785-6.111c0.906-0.711,1.797-1.444,2.648-2.219
					c1.068,0.796,3.559,2.667,4.723,3.693c-2.209,3.004-2.814,3.15-5.109,4.938c8.219-1.594,9.711-3.725,10.254-4.953
					c1.062-2.385-0.617-4.771-0.617-4.771l-3.301-5.433c0.693-0.919,1.346-1.87,1.971-2.841c1.234,0.49,4.133,1.656,5.525,2.349
					c-1.355,3.473-1.902,3.771-3.656,6.092c7.527-3.667,8.416-6.111,8.623-7.438c0.408-2.578-1.832-4.449-1.832-4.449l-4.594-4.393
					c0.432-1.066,0.828-2.149,1.182-3.253c1.324,0.154,4.412,0.529,5.932,0.837c-0.412,3.705-0.861,4.134-1.955,6.83
					c6.32-5.49,6.547-8.081,6.402-9.416c-0.273-2.596-2.92-3.824-2.92-3.824l-5.582-3.059c0.137-1.137,0.244-2.282,0.299-3.442
					c1.316-0.192,4.404-0.631,5.955-0.728c0.561,3.686,0.236,4.216-0.121,7.104c4.686-6.939,4.232-9.5,3.748-10.752
					c-0.938-2.437-3.811-2.938-3.811-2.938l-6.18-1.51c-0.162-1.148-0.361-2.283-0.604-3.403c1.223-0.527,4.088-1.748,5.561-2.242
					c1.496,3.414,1.32,4.01,1.721,6.892c2.73-7.915,1.629-10.271,0.838-11.354c-1.232-1.695-3.351-1.862-4.136-1.862
					c-0.193,0-0.306,0.01-0.306,0.01l-6.344,0.142c-0.453-1.066-0.953-2.105-1.482-3.129c1.043-0.824,3.5-2.748,4.793-3.607
					c2.33,2.91,2.314,3.531,3.447,6.211c0.59-8.353-1.086-10.342-2.129-11.185c-0.914-0.739-1.973-0.942-2.859-0.942
					c-1.084,0-1.912,0.303-1.912,0.303l-6.111,1.784c-0.711-0.907-1.443-1.796-2.217-2.647c0.795-1.068,2.666-3.559,3.693-4.722
					c3.004,2.208,3.148,2.812,4.936,5.106c-1.592-8.22-3.725-9.708-4.951-10.252c-0.573-0.255-1.146-0.352-1.687-0.352
					c-1.709,0-3.087,0.969-3.087,0.969l-5.432,3.299c-0.92-0.692-1.871-1.345-2.84-1.971c0.49-1.232,1.656-4.132,2.348-5.523
					c3.475,1.355,3.771,1.9,6.09,3.655c-3.664-7.527-6.109-8.413-7.436-8.622c-0.215-0.034-0.425-0.049-0.629-0.049
					c-2.249-0.001-3.82,1.881-3.82,1.881l-4.393,4.592c-1.068-0.431-2.15-0.827-3.254-1.181c0.154-1.325,0.529-4.412,0.838-5.931
					c3.707,0.41,4.133,0.86,6.828,1.955c-4.909-5.654-7.501-6.43-8.947-6.43c-0.171,0-0.326,0.011-0.467,0.025
					c-2.598,0.275-3.824,2.922-3.824,2.922l-3.061,5.581c-1.137-0.138-2.281-0.244-3.441-0.3c-0.193-1.316-0.631-4.403-0.727-5.953
					c1.438-0.22,2.396-0.304,3.201-0.304c1.257,0,2.14,0.206,3.9,0.426C293.902,173.15,291.192,172.384,289.571,172.384
					L289.571,172.384z"/>
			</g>
		</g>
		<g>
			<circle fill="#C4011A" stroke="#000000" stroke-width="2" stroke-miterlimit="10" cx="290.111" cy="229.243" r="29.504"/>
			<path fill="#7B161D" stroke="#000000" stroke-width="2" stroke-miterlimit="10" d="M314.376,229.242
				c0,13.404-10.861,24.266-24.265,24.266c-13.4,0-24.265-10.861-24.265-24.266c0-13.402,10.864-24.264,24.265-24.264
				C303.515,204.978,314.376,215.839,314.376,229.242z"/>
			<circle fill="#C4011A" stroke="#000000" stroke-miterlimit="10" cx="290.111" cy="229.244" r="15.312"/>
			<circle fill="#C1BD2B" stroke="#000000" stroke-width="2" stroke-miterlimit="10" cx="290.111" cy="229.242" r="12.491"/>
			<g>
				<circle fill="#231F31" stroke="#000000" stroke-miterlimit="10" cx="290.111" cy="229.243" r="4.632"/>
				<g>
					<polygon fill="#807D67" stroke="#000000" stroke-width="0.7" stroke-miterlimit="10" points="289.218,222.133 288.337,220.607 
						289.218,219.083 290.98,219.083 291.86,220.607 290.98,222.133 					"/>
					<polygon fill="#807D67" stroke="#000000" stroke-width="0.7" stroke-miterlimit="10" points="284.755,224.41 283.1,223.804 
						282.794,222.071 284.145,220.937 285.798,221.542 286.106,223.276 					"/>
					<polygon fill="#807D67" stroke="#000000" stroke-width="0.7" stroke-miterlimit="10" points="282.799,229.019 281.143,229.622 
						279.794,228.491 280.1,226.754 281.755,226.154 283.105,227.283 					"/>
					<polygon fill="#807D67" stroke="#000000" stroke-width="0.7" stroke-miterlimit="10" points="284.266,233.809 283.383,235.335 
						281.625,235.335 280.739,233.809 281.625,232.287 283.384,232.282 					"/>
					<polygon fill="#807D67" stroke="#000000" stroke-width="0.7" stroke-miterlimit="10" points="288.468,236.536 288.771,238.272 
						287.426,239.403 285.766,238.802 285.465,237.066 286.812,235.933 					"/>
					<polygon fill="#807D67" stroke="#000000" stroke-width="0.7" stroke-miterlimit="10" points="293.437,235.924 294.788,237.06 
						294.484,238.792 292.826,239.397 291.48,238.261 291.782,236.527 					"/>
					<polygon fill="#807D67" stroke="#000000" stroke-width="0.7" stroke-miterlimit="10" points="296.853,232.26 298.617,232.262 
						299.496,233.787 298.615,235.315 296.856,235.308 295.972,233.787 					"/>
					<polygon fill="#807D67" stroke="#000000" stroke-width="0.7" stroke-miterlimit="10" points="297.113,227.261 298.468,226.125 
						300.119,226.727 300.429,228.463 299.077,229.593 297.42,228.993 					"/>
					<polygon fill="#807D67" stroke="#000000" stroke-width="0.7" stroke-miterlimit="10" points="294.099,223.262 294.406,221.521 
						296.06,220.921 297.412,222.053 297.102,223.784 295.448,224.39 					"/>
				</g>
			</g>
		</g>
	</g>
	<path opacity="0.2" fill="none" stroke="#686380" stroke-width="5" stroke-linecap="round" stroke-miterlimit="10" d="
		M307.612,196.173c-2.609-1.436-5.431-2.581-8.435-3.387c-16.6-4.448-33.58,2.903-42.04,16.912"/>
	<path fill="none" stroke="#0D0C18" stroke-width="5" stroke-linecap="round" stroke-miterlimit="10" d="M266.553,258.317
		c6.546,5.479,14.979,8.774,24.185,8.774c17.185,0,31.686-11.496,36.23-27.215"/>
</g>
<g id="clouds">
	<path fill="#D3E2F5" d="M265.141,42.091c-2.513-3.922-6.898-6.528-11.901-6.528c-4.815,0-9.062,2.412-11.616,6.091
		c-0.475-0.086-0.963-0.139-1.463-0.139c-4.521,0-8.185,3.664-8.185,8.185c0,4.162,3.11,7.592,7.132,8.109
		c0,0.024-0.003,0.05-0.003,0.075c0,3.307,2.681,5.988,5.987,5.988c0.587,0,1.151-0.088,1.688-0.246
		c1.583,2.159,4.13,3.566,7.011,3.566c3.165,0,5.928-1.697,7.449-4.225c0.868,0.229,1.774,0.362,2.714,0.362
		c5.884,0,10.654-4.771,10.654-10.655C274.607,47.193,270.465,42.682,265.141,42.091z"/>
	<path fill="#D3E2F5" d="M233.145,17.662c1.768,2.76,4.854,4.594,8.374,4.594c3.388,0,6.376-1.697,8.173-4.286
		c0.334,0.061,0.678,0.099,1.029,0.099c3.181,0,5.759-2.578,5.759-5.76c0-2.928-2.188-5.341-5.019-5.705
		c0-0.018,0.003-0.035,0.003-0.053c0-2.327-1.887-4.213-4.213-4.213c-0.413,0-0.81,0.062-1.188,0.173
		C244.95,0.99,243.158,0,241.131,0c-2.227,0-4.171,1.194-5.241,2.973c-0.611-0.161-1.248-0.255-1.909-0.255
		c-4.141,0-7.497,3.356-7.497,7.497C226.483,14.072,229.398,17.246,233.145,17.662z"/>
	<path fill="#D3E2F5" d="M235.046,90.601c1.382,2.157,3.795,3.592,6.548,3.592c2.649,0,4.985-1.327,6.391-3.352
		c0.262,0.048,0.53,0.076,0.805,0.076c2.487,0,4.503-2.016,4.503-4.503c0-2.29-1.711-4.177-3.924-4.461
		c0-0.014,0.002-0.028,0.002-0.042c0-1.819-1.475-3.295-3.294-3.295c-0.323,0-0.634,0.049-0.929,0.136
		c-0.871-1.188-2.271-1.962-3.856-1.962c-1.742,0-3.262,0.934-4.099,2.324c-0.478-0.126-0.977-0.199-1.493-0.199
		c-3.237,0-5.862,2.625-5.862,5.862C229.837,87.794,232.116,90.276,235.046,90.601z"/>
</g>
</svg>
