<?xml version="1.0" encoding="utf-8"?>
<!-- Generator: Adobe Illustrator 16.0.4, SVG Export Plug-In . SVG Version: 6.00 Build 0)  -->
<!DOCTYPE svg PUBLIC "-//W3C//DTD SVG 1.1//EN" "http://www.w3.org/Graphics/SVG/1.1/DTD/svg11.dtd">
<svg version="1.1" id="Layer_1" xmlns="http://www.w3.org/2000/svg" xmlns:xlink="http://www.w3.org/1999/xlink" x="0px" y="0px"
	 width="599.385px" height="243.935px" viewBox="0 0 599.385 243.935" enable-background="new 0 0 599.385 243.935"
	 xml:space="preserve">
<g id="body">
	<g>
		<path fill="#515251" d="M379.914,25.792c0,1.65-1.35,3-3,3h-1.715c-1.65,0-3-1.35-3-3V13.126c0-1.65,1.35-3,3-3h1.715
			c1.65,0,3,1.35,3,3V25.792z"/>
		<path fill="none" stroke="#000000" stroke-width="2" stroke-miterlimit="10" d="M379.914,25.792c0,1.65-1.35,3-3,3h-1.715
			c-1.65,0-3-1.35-3-3V13.126c0-1.65,1.35-3,3-3h1.715c1.65,0,3,1.35,3,3V25.792z"/>
	</g>
	<g>
		<path fill="#F5B300" d="M54.385,97.954c2.2,0,3.19,1.607,2.201,3.572l-20.901,41.499c-0.99,1.965-3.599,3.572-5.799,3.572h-4.5
			c-2.2,0-3.519-1.734-2.93-3.854l11.36-40.935c0.588-2.12,2.87-3.854,5.07-3.854H54.385z"/>
		<path fill="none" stroke="#000000" stroke-width="2" stroke-miterlimit="10" d="M54.385,97.954c2.2,0,3.19,1.607,2.201,3.572
			l-20.901,41.499c-0.99,1.965-3.599,3.572-5.799,3.572h-4.5c-2.2,0-3.519-1.734-2.93-3.854l11.36-40.935
			c0.588-2.12,2.87-3.854,5.07-3.854H54.385z"/>
	</g>
	<g>
		<path fill="#F5B300" d="M56.901,89.9c0.816,2.043-0.316,3.714-2.516,3.714h-21c-2.2,0-4.469-1.738-5.042-3.862L5.428,4.862
			C4.854,2.738,6.185,1,8.385,1h9c2.2,0,4.668,1.671,5.484,3.714L56.901,89.9z"/>
		<path fill="none" stroke="#000000" stroke-width="2" stroke-miterlimit="10" d="M56.901,89.9c0.816,2.043-0.316,3.714-2.516,3.714
			h-21c-2.2,0-4.469-1.738-5.042-3.862L5.428,4.862C4.854,2.738,6.185,1,8.385,1h9c2.2,0,4.668,1.671,5.484,3.714L56.901,89.9z"/>
	</g>
	<g>
		<path fill="#F5B300" d="M360.102,29.239c0.807-2.629,3.717-4.78,6.467-4.78h16.778c2.75,0,5.927,2.05,7.061,4.556l17.767,39.29
			c1.134,2.505-0.168,4.866-2.892,5.245l-56.452,7.851c-2.724,0.379-4.292-1.462-3.484-4.091L360.102,29.239z"/>
		<path fill="none" stroke="#000000" stroke-width="2" stroke-miterlimit="10" d="M360.102,29.239
			c0.807-2.629,3.717-4.78,6.467-4.78h16.778c2.75,0,5.927,2.05,7.061,4.556l17.767,39.29c1.134,2.505-0.168,4.866-2.892,5.245
			l-56.452,7.851c-2.724,0.379-4.292-1.462-3.484-4.091L360.102,29.239z"/>
	</g>
	<path opacity="0.4" fill="#EEE1BA" d="M366.586,25.451l-13.038,49.683c0,0,14.087,0.006,13.873-2.673
		c-0.666-8.333,2.523-47.01,2.523-47.01H366.586z"/>
	<path opacity="0.51" fill="#EBD596" d="M373.677,25.451l4.375,49.676c0,0-4.676,3.216-4.462,0.537
		c0.666-8.333-1.483-50.191-1.483-50.191L373.677,25.451z"/>
	<g>
		<polygon fill="#F5B300" stroke="#000000" stroke-width="2" stroke-miterlimit="10" points="382.495,227.597 373.777,227.597 
			362.003,188.733 370.721,188.733 		"/>
		<polygon fill="#F5B300" stroke="#000000" stroke-width="2" stroke-miterlimit="10" points="443.325,227.597 434.607,227.597 
			422.834,188.733 431.551,188.733 		"/>
		
			<path display="none" fill="none" stroke="#D3B241" stroke-width="17" stroke-linecap="round" stroke-linejoin="round" stroke-miterlimit="10" d="
			M330.04,224.691c0,0,9.042,2.905,16.789,2.905c5.812,0,85.237,0,90.726,0c9.04,0,18.578-3.229,18.578-3.229"/>
		<g>
			<path fill="#515251" d="M476.178,217.803c-0.74-1.36-2.589-1.95-4.109-1.309l-10.294,4.341c-1.521,0.642-4.114,1.166-5.765,1.166
				h-39.952c-1.65,0-4.35,0-6,0h-2.286c-1.65,0-4.35,0-6,0h-39.951c-1.65,0-4.244-0.524-5.765-1.166l-10.295-4.341
				c-1.521-0.642-3.37-0.052-4.109,1.309c-0.739,1.361-0.144,3.091,1.325,3.844l9.729,4.984c1.469,0.753,3.002,1.485,3.407,1.628
				c0.404,0.143,2.868,0.26,4.519,0.26h41.14c1.65,0,4.35,0,6,0h2.286c1.65,0,4.35,0,6,0h41.14c1.65,0,3.35-0.04,3.777-0.089
				c0.427-0.049,2.681-1.046,4.149-1.799l9.728-4.984C476.321,220.894,476.917,219.164,476.178,217.803z"/>
			<path fill="none" stroke="#000000" stroke-width="2" stroke-miterlimit="10" d="M476.178,217.803
				c-0.74-1.36-2.589-1.95-4.109-1.309l-10.294,4.341c-1.521,0.642-4.114,1.166-5.765,1.166h-39.952c-1.65,0-4.35,0-6,0h-2.286
				c-1.65,0-4.35,0-6,0h-39.951c-1.65,0-4.244-0.524-5.765-1.166l-10.295-4.341c-1.521-0.642-3.37-0.052-4.109,1.309
				c-0.739,1.361-0.144,3.091,1.325,3.844l9.729,4.984c1.469,0.753,3.002,1.485,3.407,1.628c0.404,0.143,2.868,0.26,4.519,0.26
				h41.14c1.65,0,4.35,0,6,0h2.286c1.65,0,4.35,0,6,0h41.14c1.65,0,3.35-0.04,3.777-0.089c0.427-0.049,2.681-1.046,4.149-1.799
				l9.728-4.984C476.321,220.894,476.917,219.164,476.178,217.803z"/>
		</g>
		
			<polyline opacity="0.5" fill="none" stroke="#FFFFFF" stroke-width="2" stroke-linecap="round" stroke-linejoin="round" stroke-miterlimit="10" points="
			472.446,218.938 459.62,224.299 357.652,224.368 344.618,218.622 		"/>
		<polygon opacity="0.5" fill="#F9ECC3" points="376.981,221.133 374.379,221.159 364.136,188.625 366.719,189.547 		"/>
		<polygon opacity="0.5" fill="#F9ECC3" points="437.664,221.13 435.293,221.069 425.999,191.414 428.582,191.879 		"/>
	</g>
	<g>
		<polygon fill="#F5B300" stroke="#000000" stroke-width="2" stroke-miterlimit="10" points="381.55,241.84 371.184,241.84 
			357.184,195.627 367.55,195.627 		"/>
		<polygon fill="#F5B300" stroke="#000000" stroke-width="2" stroke-miterlimit="10" points="453.882,241.84 443.517,241.84 
			429.517,195.627 439.882,195.627 		"/>
		
			<path display="none" fill="none" stroke="#D3B241" stroke-width="17" stroke-linecap="round" stroke-linejoin="round" stroke-miterlimit="10" d="
			M319.176,238.384c0,0,10.751,3.456,19.964,3.456c6.911,0,101.354,0,107.881,0c10.75,0,22.091-3.84,22.091-3.84"/>
		<g>
			<path fill="#515251" d="M492.782,229.888c-0.787-1.45-2.676-2.112-4.196-1.472l-13.287,5.604
				c-1.521,0.641-4.114,1.165-5.765,1.165h-48.641c-1.65,0-4.35,0-6,0h-3.854c-1.65,0-4.35,0-6,0h-48.641
				c-1.65,0-4.244-0.524-5.765-1.165l-13.287-5.604c-1.521-0.641-3.409,0.021-4.196,1.472l-0.333,0.613
				c-0.787,1.45-0.23,3.252,1.238,4.005l12.577,6.443c1.469,0.753,3.064,1.507,3.547,1.677c0.481,0.17,3.156,0.309,4.807,0.309
				h50.053c1.65,0,4.35,0,6,0h3.854c1.65,0,4.35,0,6,0h50.053c1.65,0,3.416-0.048,3.924-0.105s2.961-1.127,4.43-1.88l12.577-6.443
				c1.469-0.753,2.025-2.555,1.238-4.005L492.782,229.888z"/>
			<path fill="none" stroke="#000000" stroke-width="2" stroke-miterlimit="10" d="M492.782,229.888
				c-0.787-1.45-2.676-2.112-4.196-1.472l-13.287,5.604c-1.521,0.641-4.114,1.165-5.765,1.165h-48.641c-1.65,0-4.35,0-6,0h-3.854
				c-1.65,0-4.35,0-6,0h-48.641c-1.65,0-4.244-0.524-5.765-1.165l-13.287-5.604c-1.521-0.641-3.409,0.021-4.196,1.472l-0.333,0.613
				c-0.787,1.45-0.23,3.252,1.238,4.005l12.577,6.443c1.469,0.753,3.064,1.507,3.547,1.677c0.481,0.17,3.156,0.309,4.807,0.309
				h50.053c1.65,0,4.35,0,6,0h3.854c1.65,0,4.35,0,6,0h50.053c1.65,0,3.416-0.048,3.924-0.105s2.961-1.127,4.43-1.88l12.577-6.443
				c1.469-0.753,2.025-2.555,1.238-4.005L492.782,229.888z"/>
		</g>
		
			<polyline opacity="0.5" fill="none" stroke="#FFFFFF" stroke-width="2" stroke-linecap="round" stroke-linejoin="round" stroke-miterlimit="10" points="
			488.51,231.543 473.26,237.918 352.01,238 336.51,231.168 		"/>
		<polygon opacity="0.5" fill="#F9ECC3" points="374.995,234.152 371.901,234.184 359.72,195.498 362.792,196.594 		"/>
		<polygon opacity="0.5" fill="#F9ECC3" points="447.152,234.15 444.333,234.078 433.281,198.815 436.352,199.367 		"/>
	</g>
	<path fill="#F5B300" stroke="#000000" stroke-width="2" stroke-miterlimit="10" d="M501.933,139.169
		c-10.966-41.837-48.465-56.174-71.583-64.814c-27.139-9.094-61.586-4.264-94.815,5.792c-0.667,0.184-1.398,0.404-2.209,0.67
		c-4.233,1.312-8.443,2.706-12.613,4.164c-49.256,10.096-265.521,4.987-265.521,4.987c-2.2,0-4,1.8-4,4v3
		c0,2.2,1.796,4.125,3.99,4.276c0,0,70.204,7.049,120.221,11.427c35.75,3.129,65.908,10.329,73.649,12.545
		c9.627,2.755,15.583,7.078,21.001,14.149c11.656,15.213,27.76,49.139,79.859,62.954c31.034,4.755,88.039,2.896,103.239-3.414
		C497.719,184.631,503.556,151.377,501.933,139.169z"/>
	<path fill="#F95F00" stroke="#000000" stroke-width="2" stroke-miterlimit="10" d="M304.385,155.46
		c-9.667-43.333,22.667-87,126-76.333c-0.597-0.224,0.544-4.556-0.035-4.772c-27.139-9.094-61.586-4.264-94.815,5.792
		c-0.667,0.184-1.398,0.404-2.209,0.67c-4.233,1.312-8.443,2.706-12.613,4.164c-49.256,10.096-265.521,4.987-265.521,4.987
		c-2.2,0-4,1.8-4,4v3c0,2.2,1.796,4.125,3.99,4.276c0,0,70.204,7.049,120.221,11.427c35.75,3.129,65.908,10.329,73.649,12.545
		c9.627,2.755,15.583,7.078,21.001,14.149c11.231,14.658,36.332,54.928,74.313,60.356
		C322.885,187.293,308.317,173.082,304.385,155.46z"/>
	<path fill="#D3B241" stroke="#000000" stroke-width="2" stroke-miterlimit="10" d="M258.679,163.127"/>
	<path fill="#008681" stroke="#EBD596" stroke-miterlimit="10" d="M220.885,170.293"/>
	<g opacity="0.3">
		<path fill="#FFFFFF" d="M16.549,9.9c-0.502-1.571-0.126-2.914,0.836-2.982s2.252,1.128,2.866,2.66L49.77,83.258
			c0.614,1.532-0.234,2.785-1.884,2.785h-4c-1.65,0-3.411-1.286-3.914-2.857L16.549,9.9z"/>
	</g>
	<g opacity="0.3">
		<path fill="#FFFFFF" d="M42.466,106.398c0.506-1.57,2.27-2.855,3.919-2.855h2c1.65,0,2.413,1.215,1.695,2.701l-15.39,31.848
			c-0.718,1.485-1.699,2.532-2.18,2.326s-0.461-1.66,0.044-3.23L42.466,106.398z"/>
	</g>
	<path fill="#F95F00" stroke="#FFFFFF" stroke-miterlimit="10" d="M518.385,97.459"/>
	<path fill="#F95F00" d="M303.052,231.793"/>
	<g>
		<path fill="#515251" stroke="#000000" stroke-width="2" stroke-miterlimit="10" d="M416.904,70.987
			c4.667,0.336,9.334,1.098,14.981,2.503c29.2,7.266,70.759,31.522,70.5,74.352c0.195,9.347-6.063,24.978-22.979,37.732
			c-5.021,0.311-7.521-2.248-6.021-6.684s4.5-23.848,3-37.292c-4.435-39.743-23.741-52.604-46.859-61.121
			c-4.14-1.519-10.307-2.852-11.307-4.352C418.219,76.126,416.073,71.576,416.904,70.987z"/>
		<path fill="none" stroke="#878787" stroke-width="2" stroke-linecap="round" stroke-miterlimit="10" d="M482.719,111.126
			c0,0,12.666,11,12.666,31.333"/>
		<path fill="none" stroke="#878787" stroke-width="2" stroke-linecap="round" stroke-miterlimit="10" d="M483.625,123.46
			c0,0,5.095,6,4.855,15.999"/>
		<path id="door" opacity="0.3" fill="none" stroke="#FFFFFF" stroke-miterlimit="10" d="M416.053,188.514
			c1.649-0.03,2.55-1.328,2.002-2.884l-34.458-96.717c-0.548-1.556-2.331-2.623-3.962-2.37c0,0-24.705,2.262-26.25,2.917
			c-1.375,0.583-17,4.208-16.333,20.333l4.988,77.02c0.189,1.64,1.694,2.956,3.345,2.926L416.053,188.514z"/>
		<g>
			<g>
				<path fill="#515251" stroke="#000000" stroke-width="2" stroke-miterlimit="10" d="M346.372,112.783
					c-0.886-6.541,3.5-13.252,9.726-15.445c0,0,3.719-1.387,10.275-2.585c6.582-1.202,12.898,1.704,14.852,8.009l13.186,40.574
					c1.953,6.305-1.834,11.059-8.416,10.565l-22.438-1.684c-6.582-0.493-12.691-6.249-13.577-12.789L346.372,112.783z"/>
				<g>
					
						<line fill="none" stroke="#878787" stroke-width="2" stroke-linecap="round" stroke-miterlimit="10" x1="371.417" y1="106.365" x2="356.864" y2="123.615"/>
					
						<line fill="none" stroke="#878787" stroke-width="2" stroke-linecap="round" stroke-miterlimit="10" x1="373.35" y1="113.443" x2="362.602" y2="126.182"/>
					
						<line fill="none" stroke="#878787" stroke-width="2" stroke-linecap="round" stroke-miterlimit="10" x1="366.521" y1="103.543" x2="358.766" y2="112.734"/>
				</g>
			</g>
			<g display="none">
				<path display="inline" fill="#515251" d="M335.368,143.298c-0.543,0.088-0.617-0.096-0.164-0.407l8.021-5.532
					c0.453-0.312,1.047-0.177,1.319,0.301l1.675,2.931c0.272,0.478,0.052,0.94-0.491,1.028L335.368,143.298z"/>
				<path display="inline" fill="none" stroke="#000000" stroke-miterlimit="10" d="M335.368,143.298
					c-0.543,0.088-0.617-0.096-0.164-0.407l8.021-5.532c0.453-0.312,1.047-0.177,1.319,0.301l1.675,2.931
					c0.272,0.478,0.052,0.94-0.491,1.028L335.368,143.298z"/>
			</g>
			
				<line display="none" stroke="#515251" stroke-width="2" stroke-linecap="round" stroke-miterlimit="10" x1="396.381" y1="129.126" x2="399.885" y2="127.793"/>
			
				<line display="none" stroke="#515251" stroke-width="2" stroke-linecap="round" stroke-miterlimit="10" x1="404.381" y1="155.459" x2="407.258" y2="154.713"/>
		</g>
		<path id="door_1_" opacity="0.3" fill="none" stroke="#FFFFFF" stroke-miterlimit="10" d="M426.677,86.543
			c-2.292-0.875-13.125-1.625-15.75-1.5c-5.874,0.083-18.543,0.981-18.543,0.981c-1.648,0.056-2.545,1.374-1.992,2.928
			l34.654,96.347c0.553,1.555,2.354,2.746,4.001,2.648l33.343,0.022c1.647-0.098,3.315-1.489,3.706-3.092
			C466.096,184.879,487.001,99.071,426.677,86.543z"/>
		<g>
			<path fill="#515251" stroke="#000000" stroke-width="2" stroke-miterlimit="10" d="M454.457,119.502
				c8.785,20.87,6.183,33.554-3.404,40.291c-12.333,8.667-26.915-2.96-35.7-23.829c-8.786-20.87-14.098-38.959-3.3-43.504
				C422.851,87.914,445.67,98.633,454.457,119.502z"/>
			<g>
				
					<line fill="none" stroke="#878787" stroke-width="2" stroke-linecap="round" stroke-miterlimit="10" x1="443.192" y1="123.847" x2="428.638" y2="141.096"/>
				
					<line fill="none" stroke="#878787" stroke-width="2" stroke-linecap="round" stroke-miterlimit="10" x1="445.125" y1="130.925" x2="434.376" y2="143.662"/>
				
					<line fill="none" stroke="#878787" stroke-width="2" stroke-linecap="round" stroke-miterlimit="10" x1="438.295" y1="121.024" x2="430.541" y2="130.216"/>
			</g>
			<g display="none">
				<path display="inline" fill="#515251" d="M404.368,139.298c-0.543,0.088-0.617-0.096-0.164-0.407l8.021-5.532
					c0.453-0.312,1.047-0.177,1.319,0.301l1.675,2.931c0.272,0.478,0.052,0.94-0.491,1.028L404.368,139.298z"/>
				<path display="inline" fill="none" stroke="#000000" stroke-miterlimit="10" d="M404.368,139.298
					c-0.543,0.088-0.617-0.096-0.164-0.407l8.021-5.532c0.453-0.312,1.047-0.177,1.319,0.301l1.675,2.931
					c0.272,0.478,0.052,0.94-0.491,1.028L404.368,139.298z"/>
			</g>
		</g>
	</g>
	<g opacity="0.2">
		<path fill="#FFFFFF" d="M56.552,95.793c0-1.1,0.9-1.986,2-1.969l219.5,3.438c1.1,0.017,1.359,0.663,0.576,1.436l-12.139,11.706
			c-0.79,0.765-2.335,1.317-3.431,1.227c0,0-4.21-0.344-206.506-14.837V95.793z"/>
	</g>
	<circle fill="#515251" stroke="#000000" stroke-width="2" stroke-miterlimit="10" cx="56.957" cy="95.488" r="2.874"/>
</g>
<g id="main_propeller">
	<path fill="#515251" stroke="#000000" stroke-width="2" stroke-miterlimit="10" d="M595.385,19.792H379.745c-1.657,0-3-1.343-3-3
		s1.343-3,3-3h215.641c1.657,0,3,1.343,3,3S597.042,19.792,595.385,19.792z"/>
	<path fill="#515251" stroke="#000000" stroke-width="2" stroke-miterlimit="10" d="M372.257,19.792H156.617c-1.657,0-3-1.343-3-3
		s1.343-3,3-3h215.641c1.657,0,3,1.343,3,3S373.915,19.792,372.257,19.792z"/>
	<path fill="#F95F00" stroke="#000000" stroke-width="2" stroke-miterlimit="10" d="M418.088,18.126c0,1.657-1.343,3-3,3h-27.703
		c-1.657,0-3-1.343-3-3v-2.667c0-1.657,1.343-3,3-3h27.703c1.657,0,3,1.343,3,3V18.126z"/>
	<path fill="#F95F00" stroke="#000000" stroke-width="2" stroke-miterlimit="10" d="M367.485,18.126c0,1.657-1.343,3-3,3h-27.703
		c-1.657,0-3-1.343-3-3v-2.667c0-1.657,1.343-3,3-3h27.703c1.657,0,3,1.343,3,3V18.126z"/>
	
		<line opacity="0.4" fill="none" stroke="#EEE1BA" stroke-width="2" stroke-linecap="round" stroke-miterlimit="10" x1="388.311" y1="15.385" x2="415.357" y2="15.385"/>
	
		<line opacity="0.4" fill="none" stroke="#EEE1BA" stroke-width="2" stroke-linecap="round" stroke-miterlimit="10" x1="337.101" y1="15.385" x2="364.147" y2="15.385"/>
</g>
<g id="mini_propeller">
	<g>
		<g>
			<polygon fill="#515251" stroke="#000000" stroke-miterlimit="10" points="67.651,83.863 69.948,86.452 75.642,82.299 
				72.45,78.704 			"/>
			<polygon fill="#515251" stroke="#000000" stroke-miterlimit="10" points="55.324,97.118 62.944,91.562 61.747,90.212 			"/>
			<polygon fill="#515251" stroke="#000000" stroke-miterlimit="10" points="93.859,55.684 89.059,60.845 95.346,67.929 
				101.04,63.775 			"/>
			<polygon fill="#515251" stroke="#000000" stroke-miterlimit="10" points="78.355,72.354 82.647,77.19 88.341,73.037 
				83.155,67.193 			"/>
			<polygon fill="#EBDDB5" stroke="#000000" stroke-miterlimit="10" points="108.045,58.667 99.763,49.336 93.859,55.684 
				101.04,63.775 			"/>
			<polygon fill="#EBDDB5" stroke="#000000" stroke-miterlimit="10" points="61.747,90.212 62.944,91.562 69.948,86.452 
				67.651,83.863 			"/>
			<polygon fill="#EBDDB5" stroke="#000000" stroke-miterlimit="10" points="72.45,78.704 75.642,82.299 82.647,77.19 
				78.355,72.354 			"/>
			<polygon fill="#EBDDB5" stroke="#000000" stroke-miterlimit="10" points="83.155,67.193 88.341,73.037 95.346,67.929 
				89.059,60.845 			"/>
			<path fill="#515251" stroke="#000000" stroke-miterlimit="10" d="M112.449,51.758l-5.303-5.975
				c-1.095-1.234-2.911-1.255-4.034-0.047l-0.594,0.638l0,0l-2.755,2.962l4.141,4.666l2.149,2.421c0,0,0.001,0.001,0.001,0.001
				l1.99,2.242l2.42-1.766c0.001-0.001,0.002-0.001,0.004-0.002l1.548-1.129C113.35,54.797,113.544,52.992,112.449,51.758z"/>
		</g>
		<g>
			<polygon fill="#515251" stroke="#000000" stroke-miterlimit="10" points="46.508,107.256 44.211,104.667 38.517,108.82 
				41.708,112.418 			"/>
			<polygon fill="#515251" stroke="#000000" stroke-miterlimit="10" points="58.835,94.001 51.215,99.558 52.413,100.908 			"/>
			<polygon fill="#515251" stroke="#000000" stroke-miterlimit="10" points="20.3,135.435 25.1,130.275 18.813,123.191 
				13.119,127.345 			"/>
			<polygon fill="#515251" stroke="#000000" stroke-miterlimit="10" points="35.804,118.765 31.512,113.93 25.817,118.083 
				31.004,123.926 			"/>
			<polygon fill="#EBDDB5" stroke="#000000" stroke-miterlimit="10" points="6.114,132.454 14.396,141.784 20.3,135.435 
				13.119,127.345 			"/>
			<polygon fill="#EBDDB5" stroke="#000000" stroke-miterlimit="10" points="52.413,100.908 51.215,99.558 44.211,104.667 
				46.508,107.256 			"/>
			<polygon fill="#EBDDB5" stroke="#000000" stroke-miterlimit="10" points="41.708,112.418 38.517,108.82 31.512,113.93 
				35.804,118.765 			"/>
			<polygon fill="#EBDDB5" stroke="#000000" stroke-miterlimit="10" points="31.004,123.926 25.817,118.083 18.813,123.191 
				25.1,130.275 			"/>
			<path fill="#515251" stroke="#000000" stroke-miterlimit="10" d="M14.396,141.784l-4.141-4.665l-2.149-2.422
				c-0.001-0.001-0.002-0.002-0.003-0.003l-1.988-2.24l-3.268,2.382l0,0.001l-0.705,0.514c-1.333,0.972-1.528,2.777-0.433,4.012
				l5.303,5.975c1.095,1.234,2.911,1.256,4.034,0.048l1.306-1.404c0.001-0.001,0.001-0.002,0.002-0.003L14.396,141.784z"/>
		</g>
	</g>
	<path fill="none" stroke="#000000" stroke-width="2" stroke-miterlimit="10" d="M6.114,132.454l-3.268,2.382l0,0.001l-0.705,0.514
		c-1.333,0.972-1.528,2.777-0.433,4.012l5.303,5.975c1.095,1.234,2.911,1.256,4.034,0.048l1.306-1.404
		c0.001-0.001,0.001-0.002,0.002-0.003l2.041-2.193"/>
	<path fill="none" stroke="#000000" stroke-width="2" stroke-miterlimit="10" d="M14.396,141.784l5.905-6.35l4.799-5.159l5.904-6.35
		l4.8-5.161l5.905-6.347l4.799-5.162l5.905-6.348l4.816-5.18l5.715-4.167l7.004-5.11l5.694-4.153l7.005-5.108l5.694-4.154
		l7.004-5.107l5.694-4.154l7.005-5.108l2.42-1.766c0.001-0.001,0.002-0.001,0.004-0.002l1.548-1.129
		c1.333-0.973,1.528-2.778,0.433-4.012l-5.303-5.975c-1.095-1.234-2.911-1.255-4.034-0.047l-0.594,0.638l-2.755,2.962l-5.904,6.348
		l-4.8,5.161l-5.904,6.348l-4.799,5.161l-5.905,6.349l-4.799,5.16l-5.904,6.349l-4.816,5.178l-5.715,4.168l-7.004,5.109
		l-5.694,4.153l-7.005,5.109l-5.695,4.153l-7.004,5.108l-5.694,4.153l-7.005,5.109"/>
</g>
</svg>
